<svg class="marks" width="502" height="319" xmlns="http://www.w3.org/2000/svg"><g transform="translate(46,6)"><g id="g51" class="type-group"><g transform="translate(0,0)"><rect class="background" style="pointer-events: none; fill: none; " width="367" height="265"></rect><g id="g52" class="type-group"><g transform="translate(0,265)"><rect class="background" style="pointer-events: none; fill: none; " width="0" height="0"></rect><g id="g53" class="type-rule" style="pointer-events: none; "><line x1="30.45185483078758" y1="-265" x2="30.45185483078758" y2="0" style="fill: none; stroke: #d8d8d8; stroke-width: 1px; opacity: 1; "></line><line x1="70.73967116873393" y1="-265" x2="70.73967116873393" y2="0" style="fill: none; stroke: #d8d8d8; stroke-width: 1px; opacity: 1; "></line><line x1="111.4939976541785" y1="-265" x2="111.4939976541785" y2="0" style="fill: none; stroke: #d8d8d8; stroke-width: 1px; opacity: 1; "></line><line x1="152.69617388122137" y1="-265" x2="152.69617388122137" y2="0" style="fill: none; stroke: #d8d8d8; stroke-width: 1px; opacity: 1; "></line><line x1="193.91701051416416" y1="-265" x2="193.91701051416416" y2="0" style="fill: none; stroke: #d8d8d8; stroke-width: 1px; opacity: 1; "></line><line x1="234.20482685211053" y1="-265" x2="234.20482685211053" y2="0" style="fill: none; stroke: #d8d8d8; stroke-width: 1px; opacity: 1; "></line><line x1="274.9591533375551" y1="-265" x2="274.9591533375551" y2="0" style="fill: none; stroke: #d8d8d8; stroke-width: 1px; opacity: 1; "></line><line x1="316.16132956459796" y1="-265" x2="316.16132956459796" y2="0" style="fill: none; stroke: #d8d8d8; stroke-width: 1px; opacity: 1; "></line><line x1="357.38216619754076" y1="-265" x2="357.38216619754076" y2="0" style="fill: none; stroke: #d8d8d8; stroke-width: 1px; opacity: 1; "></line></g><g id="g54" class="type-rule" style="pointer-events: none; "><line x1="30.45185483078758" y1="0" x2="30.45185483078758" y2="6" style="fill: none; stroke: #000000; stroke-width: 1px; opacity: 1; "></line><line x1="70.73967116873393" y1="0" x2="70.73967116873393" y2="6" style="fill: none; stroke: #000000; stroke-width: 1px; opacity: 1; "></line><line x1="111.4939976541785" y1="0" x2="111.4939976541785" y2="6" style="fill: none; stroke: #000000; stroke-width: 1px; opacity: 1; "></line><line x1="152.69617388122137" y1="0" x2="152.69617388122137" y2="6" style="fill: none; stroke: #000000; stroke-width: 1px; opacity: 1; "></line><line x1="193.91701051416416" y1="0" x2="193.91701051416416" y2="6" style="fill: none; stroke: #000000; stroke-width: 1px; opacity: 1; "></line><line x1="234.20482685211053" y1="0" x2="234.20482685211053" y2="6" style="fill: none; stroke: #000000; stroke-width: 1px; opacity: 1; "></line><line x1="274.9591533375551" y1="0" x2="274.9591533375551" y2="6" style="fill: none; stroke: #000000; stroke-width: 1px; opacity: 1; "></line><line x1="316.16132956459796" y1="0" x2="316.16132956459796" y2="6" style="fill: none; stroke: #000000; stroke-width: 1px; opacity: 1; "></line><line x1="357.38216619754076" y1="0" x2="357.38216619754076" y2="6" style="fill: none; stroke: #000000; stroke-width: 1px; opacity: 1; "></line></g><g id="g55" class="type-rule" style="pointer-events: none; "></g><g id="g56" class="type-text"><text x="30.45185483078758" y="9" text-anchor="middle" dy=".9em" style="font: normal normal normal 11px/normal sans-serif; fill: #000000; opacity: 1; ">2014</text><text x="70.73967116873393" y="9" text-anchor="middle" dy=".9em" style="font: normal normal normal 11px/normal sans-serif; fill: #000000; opacity: 1; ">April</text><text x="111.4939976541785" y="9" text-anchor="middle" dy=".9em" style="font: normal normal normal 11px/normal sans-serif; fill: #000000; opacity: 1; ">July</text><text x="152.69617388122137" y="9" text-anchor="middle" dy=".9em" style="font: normal normal normal 11px/normal sans-serif; fill: #000000; opacity: 1; ">October</text><text x="193.91701051416416" y="9" text-anchor="middle" dy=".9em" style="font: normal normal normal 11px/normal sans-serif; fill: #000000; opacity: 1; ">2015</text><text x="234.20482685211053" y="9" text-anchor="middle" dy=".9em" style="font: normal normal normal 11px/normal sans-serif; fill: #000000; opacity: 1; ">April</text><text x="274.9591533375551" y="9" text-anchor="middle" dy=".9em" style="font: normal normal normal 11px/normal sans-serif; fill: #000000; opacity: 1; ">July</text><text x="316.16132956459796" y="9" text-anchor="middle" dy=".9em" style="font: normal normal normal 11px/normal sans-serif; fill: #000000; opacity: 1; ">October</text><text x="357.38216619754076" y="9" text-anchor="middle" dy=".9em" style="font: normal normal normal 11px/normal sans-serif; fill: #000000; opacity: 1; ">2016</text></g><g id="g57" class="type-path" style="pointer-events: none; "><path transform="translate(0.5,0.5)" d="M0,6V0H367V6" style="fill: none; stroke: #000000; stroke-width: 1px; "></path></g><g id="g58" class="type-text"><text x="183" y="35" text-anchor="middle" dy=".35em" style="font: normal normal bold 11px/normal sans-serif; fill: #000000; ">Date</text></g></g></g><g id="g59" class="type-group"><g transform="translate(0,0)"><rect class="background" style="pointer-events: none; fill: none; " width="0" height="0"></rect><g id="g60" class="type-rule" style="pointer-events: none; "><line x1="0" y1="253.45454545454547" x2="367" y2="253.45454545454547" style="fill: none; stroke: #d8d8d8; stroke-width: 1px; opacity: 1; "></line><line x1="0" y1="226.68686868686868" x2="367" y2="226.68686868686868" style="fill: none; stroke: #d8d8d8; stroke-width: 1px; opacity: 1; "></line><line x1="0" y1="199.91919191919192" x2="367" y2="199.91919191919192" style="fill: none; stroke: #d8d8d8; stroke-width: 1px; opacity: 1; "></line><line x1="0" y1="173.15151515151513" x2="367" y2="173.15151515151513" style="fill: none; stroke: #d8d8d8; stroke-width: 1px; opacity: 1; "></line><line x1="0" y1="146.38383838383837" x2="367" y2="146.38383838383837" style="fill: none; stroke: #d8d8d8; stroke-width: 1px; opacity: 1; "></line><line x1="0" y1="119.61616161616159" x2="367" y2="119.61616161616159" style="fill: none; stroke: #d8d8d8; stroke-width: 1px; opacity: 1; "></line><line x1="0" y1="92.84848484848483" x2="367" y2="92.84848484848483" style="fill: none; stroke: #d8d8d8; stroke-width: 1px; opacity: 1; "></line><line x1="0" y1="66.08080808080805" x2="367" y2="66.08080808080805" style="fill: none; stroke: #d8d8d8; stroke-width: 1px; opacity: 1; "></line><line x1="0" y1="39.3131313131313" x2="367" y2="39.3131313131313" style="fill: none; stroke: #d8d8d8; stroke-width: 1px; opacity: 1; "></line><line x1="0" y1="12.545454545454534" x2="367" y2="12.545454545454534" style="fill: none; stroke: #d8d8d8; stroke-width: 1px; opacity: 1; "></line></g><g id="g61" class="type-rule" style="pointer-events: none; "><line x1="-6" y1="253.45454545454547" x2="0" y2="253.45454545454547" style="fill: none; stroke: #000000; stroke-width: 1px; opacity: 1; "></line><line x1="-6" y1="226.68686868686868" x2="0" y2="226.68686868686868" style="fill: none; stroke: #000000; stroke-width: 1px; opacity: 1; "></line><line x1="-6" y1="199.91919191919192" x2="0" y2="199.91919191919192" style="fill: none; stroke: #000000; stroke-width: 1px; opacity: 1; "></line><line x1="-6" y1="173.15151515151513" x2="0" y2="173.15151515151513" style="fill: none; stroke: #000000; stroke-width: 1px; opacity: 1; "></line><line x1="-6" y1="146.38383838383837" x2="0" y2="146.38383838383837" style="fill: none; stroke: #000000; stroke-width: 1px; opacity: 1; "></line><line x1="-6" y1="119.61616161616159" x2="0" y2="119.61616161616159" style="fill: none; stroke: #000000; stroke-width: 1px; opacity: 1; "></line><line x1="-6" y1="92.84848484848483" x2="0" y2="92.84848484848483" style="fill: none; stroke: #000000; stroke-width: 1px; opacity: 1; "></line><line x1="-6" y1="66.08080808080805" x2="0" y2="66.08080808080805" style="fill: none; stroke: #000000; stroke-width: 1px; opacity: 1; "></line><line x1="-6" y1="39.3131313131313" x2="0" y2="39.3131313131313" style="fill: none; stroke: #000000; stroke-width: 1px; opacity: 1; "></line><line x1="-6" y1="12.545454545454534" x2="0" y2="12.545454545454534" style="fill: none; stroke: #000000; stroke-width: 1px; opacity: 1; "></line></g><g id="g62" class="type-rule" style="pointer-events: none; "></g><g id="g63" class="type-text"><text x="-9" y="253.45454545454547" text-anchor="end" dy=".35em" style="font: normal normal normal 11px/normal sans-serif; fill: #000000; opacity: 1; ">1</text><text x="-9" y="226.68686868686868" text-anchor="end" dy=".35em" style="font: normal normal normal 11px/normal sans-serif; fill: #000000; opacity: 1; ">2</text><text x="-9" y="199.91919191919192" text-anchor="end" dy=".35em" style="font: normal normal normal 11px/normal sans-serif; fill: #000000; opacity: 1; ">3</text><text x="-9" y="173.15151515151513" text-anchor="end" dy=".35em" style="font: normal normal normal 11px/normal sans-serif; fill: #000000; opacity: 1; ">4</text><text x="-9" y="146.38383838383837" text-anchor="end" dy=".35em" style="font: normal normal normal 11px/normal sans-serif; fill: #000000; opacity: 1; ">5</text><text x="-9" y="119.61616161616159" text-anchor="end" dy=".35em" style="font: normal normal normal 11px/normal sans-serif; fill: #000000; opacity: 1; ">6</text><text x="-9" y="92.84848484848483" text-anchor="end" dy=".35em" style="font: normal normal normal 11px/normal sans-serif; fill: #000000; opacity: 1; ">7</text><text x="-9" y="66.08080808080805" text-anchor="end" dy=".35em" style="font: normal normal normal 11px/normal sans-serif; fill: #000000; opacity: 1; ">8</text><text x="-9" y="39.3131313131313" text-anchor="end" dy=".35em" style="font: normal normal normal 11px/normal sans-serif; fill: #000000; opacity: 1; ">9</text><text x="-9" y="12.545454545454534" text-anchor="end" dy=".35em" style="font: normal normal normal 11px/normal sans-serif; fill: #000000; opacity: 1; ">10</text></g><g id="g64" class="type-path" style="pointer-events: none; "><path transform="translate(0.5,0.5)" d="M-6,0H0V265H-6" style="fill: none; stroke: #000000; stroke-width: 1px; "></path></g><g id="g65" class="type-text"><text x="-35" y="132" text-anchor="middle" transform="rotate(-90 -35,132)" dy=".35em" style="font: normal normal bold 11px/normal sans-serif; fill: #000000; ">Pain Level</text></g></g></g><g id="g66" class="type-group"><g transform="translate(0,0)"><rect class="background" width="0" height="0" style="fill: none; "></rect><g id="g67" class="type-area"><path d="M16.876508416707438,114.96028348362664L21.088290100907205,129.02981469057863L25.300071790290417,139.92655823872985L29.511853479673626,147.8224096321973L33.72363516905684,153.26760329742402L37.93541685844005,156.84811205907758L42.14719854782326,159.95306933588017L46.358980237206474,161.8561972860952L50.57076192140624,163.10811423300544L54.78254361078944,162.40918343484046L58.994325300172655,159.18325586682838L63.20610698955587,150.2591528043079L67.41788867893908,141.24828320209517L71.62967036832228,140.08732940131452L75.8414520577055,139.5738010262053L80.05323374190526,142.52661153957692L84.26501543128848,150.04155924584623L88.47679712067169,152.45164845032798L92.68857881005489,150.7834031046237L96.90036049943811,150.00702404463703L101.11214218882132,149.83607667185225L105.32392387820454,148.75391112423046L109.53570556240429,152.39193001289576L113.7474872517875,155.08247684187276L117.95926894117072,154.62809394669173L122.17105063055392,151.33861334333972L126.38283231993714,145.73353695961848L130.59461400932037,135.453573404551L134.80639569870357,127.79469754378343L139.01817738290333,124.44737111574L143.22995907228653,121.63817426780265L147.44174076166976,121.6139705168226L151.65352245105296,122.1182255041549L155.86530414043617,125.35089657887193L160.0770858298194,130.19947749823564L164.2888675192026,133.40332846199647L168.50064920340236,136.88878268658405L172.71243089278556,138.7865951023604L176.9242125821688,139.88347912785935L181.135994271552,139.37474937152496L185.3477759609352,137.08253754681093L189.55955765031842,135.65015997460497L193.77133933970163,136.17686398698086L197.98312102908486,136.40766763159326L202.19490271328462,139.88881470484117L206.4066844026678,143.83999051696514L210.61846609205102,146.36782609265194L214.83024778143422,149.1398496471366L219.04202947081745,147.10067284365235L223.25381116020066,140.50148134979943L227.46559284958386,135.79994920036313L231.67737453378365,132.0980327234529L235.88915622316682,128.8022169697232L240.10093791255008,131.7186531682512L244.31271960193325,135.6479196108852L248.52450129131645,138.87067528977096L252.73628298069968,142.3737744413773L256.9480646700829,143.53941408749213L261.15984635428265,142.92286551184304L265.37162804366585,141.3253985910948L269.58340973304905,141.8442506651516L273.7951914224323,141.7590482388501L278.0069731118155,142.1934201538983L282.2187548011987,142.24940555516156L286.4305364905819,143.01615214062804L290.6423181747817,145.91708559188157L294.8540998641649,148.44160364241435L299.0658815535481,149.75875299049355L303.27766324293134,150.86218438761068L307.48944493231454,151.58684334528473L311.70122662169774,151.35591597025785L315.91300831108094,152.14133080836527L320.1247899952807,153.88485478771477L324.33657168466397,155.67971126123027L328.5483533740471,157.38980891193296L332.76013506343037,158.65957017334816L336.97191675281357,158.98421963655736L341.18369844219677,157.85392152987535L345.39548013158,155.05000490729591L349.6072618209632,150.7547376139177L349.6072618209632,197.29413865586193L345.39548013158,190.36661492881728L341.18369844219677,185.01384165347002L336.97191675281357,181.44610748650777L332.76013506343037,179.497885533065L328.5483533740471,178.56535266889966L324.33657168466397,177.93067345728574L320.1247899952807,176.98283869096915L315.91300831108094,176.09044540441548L311.70122662169774,175.34160156101453L307.48944493231454,175.59970889959814L303.27766324293134,176.76613580438627L299.0658815535481,176.00242944842185L294.8540998641649,172.6821648773047L290.6423181747817,169.54120989248622L286.4305364905819,167.6252518556663L282.2187548011987,165.93167548397858L278.0069731118155,165.0284104069512L273.7951914224323,164.60436291933317L269.58340973304905,164.36771340141482L265.37162804366585,164.84106673775102L261.15984635428265,165.5890650001325L256.9480646700829,167.52367921038527L252.73628298069968,166.13948175843785L248.52450129131645,162.40531909950082L244.31271960193325,159.62214198746665L240.10093791255008,154.77307275100358L235.88915622316682,153.14980490404298L231.67737453378365,155.34669820241817L227.46559284958386,160.08767892485113L223.25381116020066,163.94704063305952L219.04202947081745,170.25569060818955L214.83024778143422,172.89543127446055L210.61846609205102,168.97330082386452L206.4066844026678,166.5236491144559L202.19490271328462,162.28876672484978L197.98312102908486,159.9194703157326L193.77133933970163,159.87034917289077L189.55955765031842,161.36666409034433L185.3477759609352,161.7763771323093L181.135994271552,162.88622619285732L176.9242125821688,164.74555894819963L172.71243089278556,164.5762410785577L168.50064920340236,160.7453269619098L164.2888675192026,157.4859295240766L160.0770858298194,153.43365478837637L155.86530414043617,148.42100596500902L151.65352245105296,146.0227327316747L147.44174076166976,144.5150759279262L143.22995907228653,145.41765891562122L139.01817738290333,147.3908130695247L134.80639569870357,151.56494904207634L130.59461400932037,158.74861359830425L126.38283231993714,170.07339863450176L122.17105063055392,175.43942009639406L117.95926894117072,178.37108908679477L113.7474872517875,179.78026072158588L109.53570556240429,175.5166856131132L105.32392387820454,172.68007842719499L101.11214218882132,172.57264232778283L96.90036049943811,173.5896706444673L92.68857881005489,173.83728187443893L88.47679712067169,176.41294208852733L84.26501543128848,173.91767400592727L80.05323374190526,166.3220740909726L75.8414520577055,163.6479372707179L71.62967036832228,162.87159899876275L67.41788867893908,165.18419359224455L63.20610698955587,173.4424163853552L58.994325300172655,183.5942969332968L54.78254361078944,185.75346460066797L50.57076192140624,186.44212163350747L46.358980237206474,186.32474620895766L42.14719854782326,183.63464110624395L37.93541685844005,179.67866030812215L33.72363516905684,174.81289915996345L29.511853479673626,169.27780694229727L25.300071790290417,164.71489409053856L21.088290100907205,162.15820143471853L16.876508416707438,161.21666658070797Z" style="fill: #1f77b4; fill-opacity: 0.2; stroke: rgba(0, 0, 0, 0.0); "></path></g></g><g transform="translate(0,0)"><rect class="background" width="0" height="0" style="fill: none; "></rect><g id="g68" class="type-area"><path d="M16.681818181818183,145.46486651466816L20.905063290286268,161.18339829644006L25.128308398754353,173.15076511884962L29.35155350722244,181.2328469838184L33.574798615690526,186.3522107969561L37.79804372415862,189.41054145226843L42.0212888326267,190.9130219449264L46.24453394627824,191.50903024894455L50.467779054746316,191.223989496922L54.69102416321441,188.91984477137586L58.91426927168249,186.7016175735124L63.13751438015058,182.32176073782517L67.36075948861867,178.85255489569184L71.5840046022702,179.12875297500236L75.80724971073829,178.6756379305565L80.03049481920638,180.7413657036614L84.25373992767446,181.44697865768995L88.47698503614254,179.49728553603055L92.70023014461063,176.46691969338812L96.92347525826216,175.2455152541188L101.14672036673026,173.85389335713688L105.36996547519834,176.35376969057128L109.59321058366642,179.97959383511295L113.81645569213451,181.9434039433847L118.03970080060259,184.76667568174352L122.26294591425413,186.47495683784854L126.48619102272221,186.25180194135902L130.7094361311903,184.47101960382022L134.9326812396584,181.65445063093705L139.15592634812648,180.08896927500945L143.37917145659458,178.01306055108518L147.60241657024608,175.9763854138418L151.8256616787142,176.30077053432785L156.04890678718226,177.53144131686037L160.27215189565035,177.9328676998937L164.49539700411844,177.10003764499757L168.7186421125865,175.15382991353005L172.94188722623807,172.19030487555622L177.16513233470616,168.2063756413986L181.38837744317422,163.34194793097106L185.6116225516423,158.184935128689L189.8348676601104,153.78323026509548L194.05811276857847,151.34405589099006L198.28135788223003,151.4465250402281L202.50460299069812,152.25006628420408L206.72784809916618,152.53722308712196L210.9510932076343,155.02063360289563L215.1743383161024,159.4539374935195L219.39758342457046,162.55675290745486L223.62082853822199,166.132914096532L227.8440736466901,167.95998140932574L232.06731875515817,166.7841619645676L236.29056386362626,162.71865849984883L240.51380897209432,161.2581620908223L244.73705408056242,163.61615841572234L248.96029919421397,165.47042285638514L253.18354430268204,167.1690401861206L257.40678941115016,169.25462808928071L261.6300345196182,169.50399112897585L265.8532796280863,168.34864240691647L270.0765247365544,165.5217088077028L274.2997698502059,164.37402523962527L278.523014958674,162.56678483158404L282.7462600671421,161.36143063461986L286.96950517561015,164.57023672760772L291.1927502840783,168.18770164270353L295.41599539254634,175.0186375428971L299.6392405061979,180.46112134372683L303.86248561466596,184.6911737813307L308.085730723134,182.21782343055554L312.30897583160214,175.49648097373952L316.53222094007026,168.43065383164452L320.7554660485383,159.98471963992736L324.9787111621899,155.01412475131022L329.20195627065794,154.20698392250267L333.425201379126,158.65873862404092L337.64844648759413,162.75963459480468L341.8716915960622,166.69567889328408L346.0949367045303,167.55642193968148L350.3181818181818,164.61991832334053L350.3181818181818,208.73978387802651L346.0949367045303,196.0306283065787L341.8716915960622,188.0014458049808L337.64844648759413,183.48531928854632L333.425201379126,180.65865169884373L329.20195627065794,177.03431290403245L324.9787111621899,177.48044849411872L320.7554660485383,182.99340710487326L316.53222094007026,190.55547547555508L312.30897583160214,199.47205499176866L308.085730723134,205.18875309182337L303.86248561466596,208.64222842880898L299.6392405061979,202.6360513169196L295.41599539254634,197.09054479662115L291.1927502840783,190.40394579028305L286.96950517561015,186.69190040578806L282.7462600671421,185.32608788400148L278.523014958674,185.6282122153673L274.2997698502059,188.4948765158591L270.0765247365544,190.55682641312524L265.8532796280863,191.52122361310376L261.6300345196182,193.50777441677454L257.40678941115016,192.48561317226338L253.18354430268204,190.15628725190965L248.96029919421397,188.501387605649L244.73705408056242,185.73593424571155L240.51380897209432,184.69752126297325L236.29056386362626,185.68416078405545L232.06731875515817,189.33106100436032L227.8440736466901,191.3471249876493L223.62082853822199,188.30676721194763L219.39758342457046,184.98802147095265L215.1743383161024,181.54358517654916L210.9510932076343,176.7822058489235L206.72784809916618,174.75732019650238L202.50460299069812,174.533861588838L198.28135788223003,175.3366683770037L194.05811276857847,177.2163980353577L189.8348676601104,179.60710572280493L185.6116225516423,182.9111585398744L181.38837744317422,187.14376432667854L177.16513233470616,192.1549138968582L172.94188722623807,197.33461841793468L168.7186421125865,201.62488139292537L164.49539700411844,203.8200876098972L160.27215189565035,202.99005474760003L156.04890678718226,200.8037014348917L151.8256616787142,199.27752681532954L147.60241657024608,199.1114218070712L143.37917145659458,200.44988074384815L139.15592634812648,202.88071942999505L134.9326812396584,204.44669599972576L130.7094361311903,206.65434537656185L126.48619102272221,209.5192981544115L122.26294591425413,210.22361909983027L118.03970080060259,207.82780564454745L113.81645569213451,205.8967843776558L109.59321058366642,202.58391445385453L105.36996547519834,198.71425840719527L101.14672036673026,197.21234708756373L96.92347525826216,197.7778608412355L92.70023014461063,199.75434563416326L88.47698503614254,201.3671135114188L84.25373992767446,204.1034028053803L80.03049481920638,202.79037951181573L75.80724971073829,201.5744189140394L71.5840046022702,201.15543687064817L67.36075948861867,202.23516639080498L63.13751438015058,205.08399666579214L58.91426927168249,210.4765941257148L54.69102416321441,213.5162410999821L50.467779054746316,214.12917783093363L46.24453394627824,214.96819504902228L42.0212888326267,213.81669546006123L37.79804372415862,211.1867845808605L33.574798615690526,206.90849372490922L29.35155350722244,201.62977336882324L25.128308398754353,196.83383207901264L20.905063290286268,193.33160834919704L16.681818181818183,190.91646099021906Z" style="fill: #ff7f0e; fill-opacity: 0.2; stroke: rgba(0, 0, 0, 0.0); "></path></g></g></g><g id="g69" class="type-group"><g transform="translate(0,0)"><rect class="background" width="0" height="0" style="fill: none; "></rect><g id="g70" class="type-line"><path d="M16.876508416707438,138.08847503216728L21.088290100907205,145.59400806264858L25.300071790290417,152.3207261646341L29.511853479673626,158.55010828724727L33.72363516905684,164.0402512286936L37.93541685844005,168.26338618359986L42.14719854782326,171.79385522106205L46.358980237206474,174.09047174752655L50.57076192140624,174.77511793325658L54.78254361078944,174.08132401775424L58.994325300172655,171.38877640006257L63.20610698955587,161.8507845948315L67.41788867893908,153.2162383971699L71.62967036832228,151.47946420003876L75.8414520577055,151.61086914846175L80.05323374190526,154.42434281527474L84.26501543128848,161.97961662588673L88.47679712067169,164.43229526942775L92.68857881005489,162.3103424895313L96.90036049943811,161.79834734455218L101.11214218882132,161.20435949981757L105.32392387820454,160.71699477571272L109.53570556240429,163.95430781300462L113.7474872517875,167.4313687817293L117.95926894117072,166.49959151674327L122.17105063055392,163.3890167198669L126.38283231993714,157.90346779706002L130.59461400932037,147.10109350142764L134.80639569870357,139.6798232929299L139.01817738290333,135.91909209263233L143.22995907228653,133.5279165917118L147.44174076166976,133.06452322237456L151.65352245105296,134.0704791179148L155.86530414043617,136.88595127194046L160.0770858298194,141.81656614330586L164.2888675192026,145.44462899303667L168.50064920340236,148.81705482424695L172.71243089278556,151.68141809045903L176.9242125821688,152.3145190380295L181.135994271552,151.13048778219115L185.3477759609352,149.42945733955997L189.55955765031842,148.50841203247467L193.77133933970163,148.02360657993594L197.98312102908486,148.16356897366296L202.19490271328462,151.0887907148456L206.4066844026678,155.18181981571053L210.61846609205102,157.6705634582581L214.83024778143422,161.01764046079856L219.04202947081745,158.67818172592095L223.25381116020066,152.22426099142933L227.46559284958386,147.94381406260715L231.67737453378365,143.7223654629354L235.88915622316682,140.97601093688306L240.10093791255008,143.24586295962754L244.31271960193325,147.63503079917578L248.52450129131645,150.63799719463577L252.73628298069968,154.2566280999076L256.9480646700829,155.5315466489386L261.15984635428265,154.25596525598766L265.37162804366585,153.0832326644228L269.58340973304905,153.10598203328308L273.7951914224323,153.1817055790915L278.0069731118155,153.61091528042473L282.2187548011987,154.09054051956994L286.4305364905819,155.32070199814714L290.6423181747817,157.7291477421839L294.8540998641649,160.56188425985962L299.0658815535481,162.8805912194577L303.27766324293134,163.81416009599832L307.48944493231454,163.59327612244158L311.70122662169774,163.3487587656361L315.91300831108094,164.11588810639037L320.1247899952807,165.43384673934196L324.33657168466397,166.80519235925797L328.5483533740471,167.9775807904163L332.76013506343037,169.07872785320657L336.97191675281357,170.21516356153268L341.18369844219677,171.43388159167282L345.39548013158,172.70830991805659L349.6072618209632,174.02443813488983" style="fill: rgba(0, 0, 0, 0.0); stroke: #1f77b4; stroke-width: 2px; "></path></g></g><g transform="translate(0,0)"><rect class="background" width="0" height="0" style="fill: none; "></rect><g id="g71" class="type-line"><path d="M16.681818181818183,168.1906637524436L20.905063290286268,177.25750332281856L25.128308398754353,184.992298598931L29.35155350722244,191.43131017632066L33.574798615690526,196.63035226093268L37.79804372415862,200.2986630165646L42.0212888326267,202.36485870249396L46.24453394627824,203.23861264898355L50.467779054746316,202.6765836639277L54.69102416321441,201.21804293567902L58.91426927168249,198.58910584961362L63.13751438015058,193.70287870180866L67.36075948861867,190.54386064324854L71.5840046022702,190.14209492282524L75.80724971073829,190.12502842229782L80.03049481920638,191.76587260773843L84.25373992767446,192.7751907315351L88.47698503614254,190.43219952372456L92.70023014461063,188.11063266377585L96.92347525826216,186.51168804767713L101.14672036673026,185.5331202223503L105.36996547519834,187.53401404888317L109.59321058366642,191.2817541444838L113.81645569213451,193.92009416052014L118.03970080060259,196.2972406631455L122.26294591425413,198.3492879688394L126.48619102272221,197.88555004788526L130.7094361311903,195.5626824901909L134.9326812396584,193.05057331533152L139.15592634812648,191.48484435250222L143.37917145659458,189.23147064746664L147.60241657024608,187.54390361045648L151.8256616787142,187.78914867482854L156.04890678718226,189.16757137587615L160.27215189565035,190.46146122374688L164.49539700411844,190.4600626274474L168.7186421125865,188.3893556532278L172.94188722623807,184.76246164674546L177.16513233470616,180.18064476912838L181.38837744317422,175.2428561288248L185.6116225516423,170.54804683428154L189.8348676601104,166.69516799395007L194.05811276857847,164.28022696317387L198.28135788223003,163.39159670861588L202.50460299069812,163.39196393652102L206.72784809916618,163.647271641812L210.9510932076343,165.90141972590956L215.1743383161024,170.49876133503435L219.39758342457046,173.77238718920387L223.62082853822199,177.21984065423985L227.8440736466901,179.65355319848766L232.06731875515817,178.057611484464L236.29056386362626,174.20140964195204L240.51380897209432,172.97784167689764L244.73705408056242,174.67604633071693L248.96029919421397,176.98590523101706L253.18354430268204,178.66266371901514L257.40678941115016,180.8701206307719L261.6300345196182,181.5058827728752L265.8532796280863,179.9349330100102L270.0765247365544,178.03926761041402L274.2997698502059,176.43445087774217L278.523014958674,174.09749852347554L282.7462600671421,173.34375925931053L286.96950517561015,175.63106856669788L291.1927502840783,179.2958237164933L295.41599539254634,186.054591169759L299.6392405061979,191.54858633032308L303.86248561466596,196.66670110507L308.085730723134,193.7032882611896L312.30897583160214,187.48426798275412L316.53222094007026,179.49306465359982L320.7554660485383,171.48906337240044L324.9787111621899,166.24728662271446L329.20195627065794,165.6206484132676L333.425201379126,169.65869516144244L337.64844648759413,173.1224769416755L341.8716915960622,177.3485623491324L346.0949367045303,181.79352512313008L350.3181818181818,186.67985110068338" style="fill: rgba(0, 0, 0, 0.0); stroke: #ff7f0e; stroke-width: 2px; "></path></g></g></g><g id="g72" class="type-group"><g transform="translate(380.88216619754076,0.5)"><rect class="background" style="pointer-events: none; fill: none; " width="72" height="46"></rect><g id="g73" class="type-text" style="pointer-events: none; "><text x="3" y="3" text-anchor="start" dy=".9em" style="font: normal normal bold 11px/normal sans-serif; fill: #000000; opacity: 1; ">Time of Day</text></g><g id="g74" class="type-symbol" style="pointer-events: none; "><path transform="translate(7.5,23)" d="M0,3.989422804014327A3.989422804014327,3.989422804014327 0 1,1 0,-3.989422804014327A3.989422804014327,3.989422804014327 0 1,1 0,3.989422804014327Z" style="fill: #1f77b4; stroke: #1f77b4; stroke-width: 1px; opacity: 1; "></path><path transform="translate(7.5,38)" d="M0,3.989422804014327A3.989422804014327,3.989422804014327 0 1,1 0,-3.989422804014327A3.989422804014327,3.989422804014327 0 1,1 0,3.989422804014327Z" style="fill: #ff7f0e; stroke: #ff7f0e; stroke-width: 1px; opacity: 1; "></path></g><g id="g75" class="type-text" style="pointer-events: none; "><text x="16" y="23" text-anchor="start" dy=".35em" style="font: normal normal normal 10px/normal sans-serif; fill: #000000; opacity: 1; ">end</text><text x="16" y="38" text-anchor="start" dy=".35em" style="font: normal normal normal 10px/normal sans-serif; fill: #000000; opacity: 1; ">mid</text></g></g></g></g></g></g></svg>