<?xml version="1.0" encoding="UTF-8" standalone="no"?>
<!-- Created with Inkscape (http://www.inkscape.org/) -->

<svg
   xmlns:dc="http://purl.org/dc/elements/1.1/"
   xmlns:cc="http://creativecommons.org/ns#"
   xmlns:rdf="http://www.w3.org/1999/02/22-rdf-syntax-ns#"
   xmlns:svg="http://www.w3.org/2000/svg"
   xmlns="http://www.w3.org/2000/svg"
   xmlns:sodipodi="http://sodipodi.sourceforge.net/DTD/sodipodi-0.dtd"
   xmlns:inkscape="http://www.inkscape.org/namespaces/inkscape"
   id="svg3572"
   version="1.1"
   inkscape:version="0.91 r13725"
   xml:space="preserve"
   width="750"
   height="550"
   viewBox="0 0 750 550"
   sodipodi:docname="retention_by_baseline_parole.svg"><metadata
     id="metadata3578"><rdf:RDF><cc:Work
         rdf:about=""><dc:format>image/svg+xml</dc:format><dc:type
           rdf:resource="http://purl.org/dc/dcmitype/StillImage" /><dc:title></dc:title></cc:Work></rdf:RDF></metadata><defs
     id="defs3576" /><sodipodi:namedview
     pagecolor="#ffffff"
     bordercolor="#666666"
     borderopacity="1"
     objecttolerance="10"
     gridtolerance="10"
     guidetolerance="10"
     inkscape:pageopacity="0"
     inkscape:pageshadow="2"
     inkscape:window-width="1366"
     inkscape:window-height="706"
     id="namedview3574"
     showgrid="false"
     inkscape:zoom="0.65555556"
     inkscape:cx="247.5"
     inkscape:cy="180"
     inkscape:window-x="-8"
     inkscape:window-y="-8"
     inkscape:window-maximized="1"
     inkscape:current-layer="g3580" /><g
     id="g3580"
     inkscape:groupmode="layer"
     inkscape:label="retention_by_baseline_parole"
     transform="matrix(0.015475,0,0,-0.015475,0,550)"><path
       d="m 341.75215,324.21954 47998.50085,0 0,34908.00046 -47998.50085,0 0,-34908.00046 z"
       style="fill:#eaf2f3;fill-opacity:1;fill-rule:nonzero;stroke:#eaf2f3;stroke-width:69.81599426;stroke-linecap:butt;stroke-linejoin:miter;stroke-miterlimit:10;stroke-dasharray:none;stroke-opacity:1"
       id="path3582"
       inkscape:connector-curvature="0" /><path
       d="m 3866.7521,8212.7195 43251.0009,0 0,23682.0005 -43251.0009,0 0,-23682.0005 z"
       style="fill:#ffffff;fill-opacity:1;fill-rule:nonzero;stroke:#ffffff;stroke-width:69.81599426;stroke-linecap:butt;stroke-linejoin:miter;stroke-miterlimit:10;stroke-dasharray:none;stroke-opacity:1"
       id="path3584"
       inkscape:connector-curvature="0" /><path
       d="m 3866.7521,8212.7195 43251.0009,0"
       style="fill:none;stroke:#eaf2f3;stroke-width:104.72399902;stroke-linecap:butt;stroke-linejoin:miter;stroke-miterlimit:10;stroke-dasharray:none;stroke-opacity:1"
       id="path3586"
       inkscape:connector-curvature="0" /><path
       d="m 3866.7521,12705.22 43251.0009,0"
       style="fill:none;stroke:#eaf2f3;stroke-width:104.72399902;stroke-linecap:butt;stroke-linejoin:miter;stroke-miterlimit:10;stroke-dasharray:none;stroke-opacity:1"
       id="path3588"
       inkscape:connector-curvature="0" /><path
       d="m 3866.7521,17197.72 43251.0009,0"
       style="fill:none;stroke:#eaf2f3;stroke-width:104.72399902;stroke-linecap:butt;stroke-linejoin:miter;stroke-miterlimit:10;stroke-dasharray:none;stroke-opacity:1"
       id="path3590"
       inkscape:connector-curvature="0" /><path
       d="m 3866.7521,21688.72 43251.0009,0"
       style="fill:none;stroke:#eaf2f3;stroke-width:104.72399902;stroke-linecap:butt;stroke-linejoin:miter;stroke-miterlimit:10;stroke-dasharray:none;stroke-opacity:1"
       id="path3592"
       inkscape:connector-curvature="0" /><path
       d="m 3866.7521,26181.22 43251.0009,0"
       style="fill:none;stroke:#eaf2f3;stroke-width:104.72399902;stroke-linecap:butt;stroke-linejoin:miter;stroke-miterlimit:10;stroke-dasharray:none;stroke-opacity:1"
       id="path3594"
       inkscape:connector-curvature="0" /><path
       d="m 3866.7521,30672.22 43251.0009,0"
       style="fill:none;stroke:#eaf2f3;stroke-width:104.72399902;stroke-linecap:butt;stroke-linejoin:miter;stroke-miterlimit:10;stroke-dasharray:none;stroke-opacity:1"
       id="path3596"
       inkscape:connector-curvature="0" /><path
       d="m 5872.2521,8212.7195 3919.5,0 0,15138.0005 -3919.5,0 0,-15138.0005 z"
       style="fill:#add8e6;fill-opacity:1;fill-rule:nonzero;stroke:#1a476f;stroke-width:14.54500389;stroke-linecap:butt;stroke-linejoin:miter;stroke-miterlimit:10;stroke-dasharray:none;stroke-opacity:1"
       id="path3598"
       inkscape:connector-curvature="0" /><path
       d="m 9791.7521,8212.7195 3921.0009,0 0,17362.5005 -3921.0009,0 0,-17362.5005 z"
       style="fill:#938dd2;fill-opacity:1;fill-rule:nonzero;stroke:#000000;stroke-width:14.54500389;stroke-linecap:butt;stroke-linejoin:miter;stroke-miterlimit:10;stroke-dasharray:none;stroke-opacity:1"
       id="path3600"
       inkscape:connector-curvature="0" /><path
       d="m 16339.253,8212.7195 3919.5,0 0,12870.0005 -3919.5,0 0,-12870.0005 z"
       style="fill:#add8e6;fill-opacity:1;fill-rule:nonzero;stroke:#1a476f;stroke-width:14.54500389;stroke-linecap:butt;stroke-linejoin:miter;stroke-miterlimit:10;stroke-dasharray:none;stroke-opacity:1"
       id="path3602"
       inkscape:connector-curvature="0" /><path
       d="m 20258.753,8212.7195 3921,0 0,15811.5005 -3921,0 0,-15811.5005 z"
       style="fill:#938dd2;fill-opacity:1;fill-rule:nonzero;stroke:#000000;stroke-width:14.54500389;stroke-linecap:butt;stroke-linejoin:miter;stroke-miterlimit:10;stroke-dasharray:none;stroke-opacity:1"
       id="path3604"
       inkscape:connector-curvature="0" /><path
       d="m 26806.253,8212.7195 3919.5,0 0,10602.0005 -3919.5,0 0,-10602.0005 z"
       style="fill:#add8e6;fill-opacity:1;fill-rule:nonzero;stroke:#1a476f;stroke-width:14.54500389;stroke-linecap:butt;stroke-linejoin:miter;stroke-miterlimit:10;stroke-dasharray:none;stroke-opacity:1"
       id="path3606"
       inkscape:connector-curvature="0" /><path
       d="m 30725.753,8212.7195 3919.5,0 0,14038.5005 -3919.5,0 0,-14038.5005 z"
       style="fill:#938dd2;fill-opacity:1;fill-rule:nonzero;stroke:#000000;stroke-width:14.54500389;stroke-linecap:butt;stroke-linejoin:miter;stroke-miterlimit:10;stroke-dasharray:none;stroke-opacity:1"
       id="path3608"
       inkscape:connector-curvature="0" /><path
       d="m 37271.753,8212.7195 3921,0 0,9096.0005 -3921,0 0,-9096.0005 z"
       style="fill:#add8e6;fill-opacity:1;fill-rule:nonzero;stroke:#1a476f;stroke-width:14.54500389;stroke-linecap:butt;stroke-linejoin:miter;stroke-miterlimit:10;stroke-dasharray:none;stroke-opacity:1"
       id="path3610"
       inkscape:connector-curvature="0" /><path
       d="m 41192.753,8212.7195 3919.5,0 0,11545.5005 -3919.5,0 0,-11545.5005 z"
       style="fill:#938dd2;fill-opacity:1;fill-rule:nonzero;stroke:#000000;stroke-width:14.54500389;stroke-linecap:butt;stroke-linejoin:miter;stroke-miterlimit:10;stroke-dasharray:none;stroke-opacity:1"
       id="path3612"
       inkscape:connector-curvature="0" /><g
       id="g3614" /><g
       id="g3616"
       transform="matrix(1.5,0,0,1.5,341.75215,324.21954)"><text
         transform="matrix(1,0,0,-1,4365.7651,15771)"
         style="font-variant:normal;font-weight:normal;font-size:646px;font-family:Arial;-inkscape-font-specification:ArialMT;writing-mode:lr-tb;fill:#000000;fill-opacity:1;fill-rule:nonzero;stroke:none"
         id="text3618"><tspan
           x="0 359.17599 718.35199 897.29401"
           y="0"
           sodipodi:role="line"
           id="tspan3620">67.4</tspan></text>
</g><g
       id="g3622" /><g
       id="g3624"
       transform="matrix(1.5,0,0,1.5,341.75215,324.21954)"><text
         transform="matrix(1,0,0,-1,6978.7651,17254)"
         style="font-variant:normal;font-weight:normal;font-size:646px;font-family:Arial;-inkscape-font-specification:ArialMT;writing-mode:lr-tb;fill:#000000;fill-opacity:1;fill-rule:nonzero;stroke:none"
         id="text3626"><tspan
           x="0 359.17599 718.35199 897.29401"
           y="0"
           sodipodi:role="line"
           id="tspan3628">77.3</tspan></text>
</g><g
       id="g3630" /><g
       id="g3632"
       transform="matrix(1.5,0,0,1.5,341.75215,324.21954)"><text
         transform="matrix(1,0,0,-1,11343.765,14259)"
         style="font-variant:normal;font-weight:normal;font-size:646px;font-family:Arial;-inkscape-font-specification:ArialMT;writing-mode:lr-tb;fill:#000000;fill-opacity:1;fill-rule:nonzero;stroke:none"
         id="text3634"><tspan
           x="0 359.17599 718.35199 897.29401"
           y="0"
           sodipodi:role="line"
           id="tspan3636">57.3</tspan></text>
</g><g
       id="g3638" /><g
       id="g3640"
       transform="matrix(1.5,0,0,1.5,341.75215,324.21954)"><text
         transform="matrix(1,0,0,-1,13956.765,16221)"
         style="font-variant:normal;font-weight:normal;font-size:646px;font-family:Arial;-inkscape-font-specification:ArialMT;writing-mode:lr-tb;fill:#000000;fill-opacity:1;fill-rule:nonzero;stroke:none"
         id="text3642"><tspan
           x="0 359.17599 718.35199 897.29401"
           y="0"
           sodipodi:role="line"
           id="tspan3644">70.4</tspan></text>
</g><g
       id="g3646" /><g
       id="g3648"
       transform="matrix(1.5,0,0,1.5,341.75215,324.21954)"><text
         transform="matrix(1,0,0,-1,18320.766,12747)"
         style="font-variant:normal;font-weight:normal;font-size:646px;font-family:Arial;-inkscape-font-specification:ArialMT;writing-mode:lr-tb;fill:#000000;fill-opacity:1;fill-rule:nonzero;stroke:none"
         id="text3650"><tspan
           x="0 359.17599 718.35199 897.29401"
           y="0"
           sodipodi:role="line"
           id="tspan3652">47.2</tspan></text>
</g><g
       id="g3654" /><g
       id="g3656"
       transform="matrix(1.5,0,0,1.5,341.75215,324.21954)"><text
         transform="matrix(1,0,0,-1,20934.766,15038)"
         style="font-variant:normal;font-weight:normal;font-size:646px;font-family:Arial;-inkscape-font-specification:ArialMT;writing-mode:lr-tb;fill:#000000;fill-opacity:1;fill-rule:nonzero;stroke:none"
         id="text3658"><tspan
           x="0 359.17599 718.35199 897.29401"
           y="0"
           sodipodi:role="line"
           id="tspan3660">62.5</tspan></text>
</g><g
       id="g3662" /><g
       id="g3664"
       transform="matrix(1.5,0,0,1.5,341.75215,324.21954)"><text
         transform="matrix(1,0,0,-1,25298.766,11744)"
         style="font-variant:normal;font-weight:normal;font-size:646px;font-family:Arial;-inkscape-font-specification:ArialMT;writing-mode:lr-tb;fill:#000000;fill-opacity:1;fill-rule:nonzero;stroke:none"
         id="text3666"><tspan
           x="0 359.17599 718.35199 897.29401"
           y="0"
           sodipodi:role="line"
           id="tspan3668">40.5</tspan></text>
</g><g
       id="g3670" /><g
       id="g3672"
       transform="matrix(1.5,0,0,1.5,341.75215,324.21954)"><text
         transform="matrix(1,0,0,-1,27912.766,13376)"
         style="font-variant:normal;font-weight:normal;font-size:646px;font-family:Arial;-inkscape-font-specification:ArialMT;writing-mode:lr-tb;fill:#000000;fill-opacity:1;fill-rule:nonzero;stroke:none"
         id="text3674"><tspan
           x="0 359.17599 718.35199 897.29401"
           y="0"
           sodipodi:role="line"
           id="tspan3676">51.4</tspan></text>
</g><g
       id="g3678"
       transform="matrix(1.5,0,0,1.5,341.75215,324.21954)"><text
         transform="matrix(1,0,0,-1,13037,16975)"
         style="font-variant:normal;font-weight:normal;font-size:970px;font-family:Arial;-inkscape-font-specification:ArialMT;writing-mode:lr-tb;fill:#000000;fill-opacity:1;fill-rule:nonzero;stroke:none"
         id="text3680"><tspan
           x="0"
           y="0"
           id="tspan3682">*</tspan></text>
</g><g
       id="g3684"
       transform="matrix(1.5,0,0,1.5,341.75215,324.21954)"><text
         transform="matrix(1,0,0,-1,19942,15687)"
         style="font-variant:normal;font-weight:normal;font-size:970px;font-family:Arial;-inkscape-font-specification:ArialMT;writing-mode:lr-tb;fill:#000000;fill-opacity:1;fill-rule:nonzero;stroke:none"
         id="text3686"><tspan
           x="0"
           y="0"
           id="tspan3688">*</tspan></text>
</g><path
       d="m 3866.7521,8212.7195 0,23682.0005"
       style="fill:none;stroke:#000000;stroke-width:69.81599426;stroke-linecap:butt;stroke-linejoin:miter;stroke-miterlimit:10;stroke-dasharray:none;stroke-opacity:1"
       id="path3690"
       inkscape:connector-curvature="0" /><path
       d="m 3866.7521,8212.7195 -484.5,0"
       style="fill:none;stroke:#000000;stroke-width:69.81599426;stroke-linecap:butt;stroke-linejoin:miter;stroke-miterlimit:10;stroke-dasharray:none;stroke-opacity:1"
       id="path3692"
       inkscape:connector-curvature="0" /><g
       id="g3694" /><g
       id="g3696"
       transform="matrix(1.5,0,0,1.5,341.75215,324.21954)"><text
         transform="matrix(0,1,1,0,1623,5034.376)"
         style="font-variant:normal;font-weight:normal;font-size:808px;font-family:Arial;-inkscape-font-specification:ArialMT;writing-mode:lr-tb;fill:#000000;fill-opacity:1;fill-rule:nonzero;stroke:none"
         id="text3698"><tspan
           x="0"
           y="0"
           id="tspan3700">0</tspan></text>
</g><path
       d="m 3866.7521,12705.22 -484.5,0"
       style="fill:none;stroke:#000000;stroke-width:69.81599426;stroke-linecap:butt;stroke-linejoin:miter;stroke-miterlimit:10;stroke-dasharray:none;stroke-opacity:1"
       id="path3702"
       inkscape:connector-curvature="0" /><g
       id="g3704" /><g
       id="g3706"
       transform="matrix(1.5,0,0,1.5,341.75215,324.21954)"><text
         transform="matrix(0,1,1,0,1623,7804.7519)"
         style="font-variant:normal;font-weight:normal;font-size:808px;font-family:Arial;-inkscape-font-specification:ArialMT;writing-mode:lr-tb;fill:#000000;fill-opacity:1;fill-rule:nonzero;stroke:none"
         id="text3708"><tspan
           x="0 449.24799"
           y="0"
           sodipodi:role="line"
           id="tspan3710">20</tspan></text>
</g><path
       d="m 3866.7521,17197.72 -484.5,0"
       style="fill:none;stroke:#000000;stroke-width:69.81599426;stroke-linecap:butt;stroke-linejoin:miter;stroke-miterlimit:10;stroke-dasharray:none;stroke-opacity:1"
       id="path3712"
       inkscape:connector-curvature="0" /><g
       id="g3714" /><g
       id="g3716"
       transform="matrix(1.5,0,0,1.5,341.75215,324.21954)"><text
         transform="matrix(0,1,1,0,1623,10799.752)"
         style="font-variant:normal;font-weight:normal;font-size:808px;font-family:Arial;-inkscape-font-specification:ArialMT;writing-mode:lr-tb;fill:#000000;fill-opacity:1;fill-rule:nonzero;stroke:none"
         id="text3718"><tspan
           x="0 449.24799"
           y="0"
           sodipodi:role="line"
           id="tspan3720">40</tspan></text>
</g><path
       d="m 3866.7521,21688.72 -484.5,0"
       style="fill:none;stroke:#000000;stroke-width:69.81599426;stroke-linecap:butt;stroke-linejoin:miter;stroke-miterlimit:10;stroke-dasharray:none;stroke-opacity:1"
       id="path3722"
       inkscape:connector-curvature="0" /><g
       id="g3724" /><g
       id="g3726"
       transform="matrix(1.5,0,0,1.5,341.75215,324.21954)"><text
         transform="matrix(0,1,1,0,1623,13793.752)"
         style="font-variant:normal;font-weight:normal;font-size:808px;font-family:Arial;-inkscape-font-specification:ArialMT;writing-mode:lr-tb;fill:#000000;fill-opacity:1;fill-rule:nonzero;stroke:none"
         id="text3728"><tspan
           x="0 449.24799"
           y="0"
           sodipodi:role="line"
           id="tspan3730">60</tspan></text>
</g><path
       d="m 3866.7521,26181.22 -484.5,0"
       style="fill:none;stroke:#000000;stroke-width:69.81599426;stroke-linecap:butt;stroke-linejoin:miter;stroke-miterlimit:10;stroke-dasharray:none;stroke-opacity:1"
       id="path3732"
       inkscape:connector-curvature="0" /><g
       id="g3734" /><g
       id="g3736"
       transform="matrix(1.5,0,0,1.5,341.75215,324.21954)"><text
         transform="matrix(0,1,1,0,1623,16788.752)"
         style="font-variant:normal;font-weight:normal;font-size:808px;font-family:Arial;-inkscape-font-specification:ArialMT;writing-mode:lr-tb;fill:#000000;fill-opacity:1;fill-rule:nonzero;stroke:none"
         id="text3738"><tspan
           x="0 449.24799"
           y="0"
           sodipodi:role="line"
           id="tspan3740">80</tspan></text>
</g><path
       d="m 3866.7521,30672.22 -484.5,0"
       style="fill:none;stroke:#000000;stroke-width:69.81599426;stroke-linecap:butt;stroke-linejoin:miter;stroke-miterlimit:10;stroke-dasharray:none;stroke-opacity:1"
       id="path3742"
       inkscape:connector-curvature="0" /><g
       id="g3744" /><g
       id="g3746"
       transform="matrix(1.5,0,0,1.5,341.75215,324.21954)"><text
         transform="matrix(0,1,1,0,1623,19558.129)"
         style="font-variant:normal;font-weight:normal;font-size:808px;font-family:Arial;-inkscape-font-specification:ArialMT;writing-mode:lr-tb;fill:#000000;fill-opacity:1;fill-rule:nonzero;stroke:none"
         id="text3748"><tspan
           x="0 449.24799 898.49597"
           y="0"
           sodipodi:role="line"
           id="tspan3750">100</tspan></text>
</g><path
       d="m 3866.7521,8212.7195 43251.0009,0"
       style="fill:none;stroke:#000000;stroke-width:69.81599426;stroke-linecap:butt;stroke-linejoin:miter;stroke-miterlimit:10;stroke-dasharray:none;stroke-opacity:1"
       id="path3752"
       inkscape:connector-curvature="0" /><g
       id="g3754" /><g
       id="g3756"
       transform="matrix(1.5,0,0,1.5,341.75215,324.21954)"><text
         transform="matrix(1,0,0,-1,4594.7158,4370)"
         style="font-variant:normal;font-weight:normal;font-size:808px;font-family:Arial;-inkscape-font-specification:ArialMT;writing-mode:lr-tb;fill:#000000;fill-opacity:1;fill-rule:nonzero;stroke:none"
         id="text3758"><tspan
           x="0 627.81598 1077.064 1526.312 1795.376 2019.192 2468.4399 2737.5039 2961.3201"
           y="0"
           sodipodi:role="line"
           id="tspan3760">Quarter 1</tspan></text>
</g><g
       id="g3762" /><g
       id="g3764"
       transform="matrix(1.5,0,0,1.5,341.75215,324.21954)"><text
         transform="matrix(1,0,0,-1,11572.716,4370)"
         style="font-variant:normal;font-weight:normal;font-size:808px;font-family:Arial;-inkscape-font-specification:ArialMT;writing-mode:lr-tb;fill:#000000;fill-opacity:1;fill-rule:nonzero;stroke:none"
         id="text3766"><tspan
           x="0 627.81598 1077.064 1526.312 1795.376 2019.192 2468.4399 2737.5039 2961.3201"
           y="0"
           sodipodi:role="line"
           id="tspan3768">Quarter 2</tspan></text>
</g><g
       id="g3770" /><g
       id="g3772"
       transform="matrix(1.5,0,0,1.5,341.75215,324.21954)"><text
         transform="matrix(1,0,0,-1,18550.717,4370)"
         style="font-variant:normal;font-weight:normal;font-size:808px;font-family:Arial;-inkscape-font-specification:ArialMT;writing-mode:lr-tb;fill:#000000;fill-opacity:1;fill-rule:nonzero;stroke:none"
         id="text3774"><tspan
           x="0 627.81598 1077.064 1526.312 1795.376 2019.192 2468.4399 2737.5039 2961.3201"
           y="0"
           sodipodi:role="line"
           id="tspan3776">Quarter 3</tspan></text>
</g><g
       id="g3778" /><g
       id="g3780"
       transform="matrix(1.5,0,0,1.5,341.75215,324.21954)"><text
         transform="matrix(1,0,0,-1,25528.717,4370)"
         style="font-variant:normal;font-weight:normal;font-size:808px;font-family:Arial;-inkscape-font-specification:ArialMT;writing-mode:lr-tb;fill:#000000;fill-opacity:1;fill-rule:nonzero;stroke:none"
         id="text3782"><tspan
           x="0 627.81598 1077.064 1526.312 1795.376 2019.192 2468.4399 2737.5039 2961.3201"
           y="0"
           sodipodi:role="line"
           id="tspan3784">Quarter 4</tspan></text>
</g><g
       id="g3786" /><g
       id="g3788"
       transform="matrix(1.5,0,0,1.5,341.75215,324.21954)"><text
         transform="matrix(1,0,0,-1,8031.7217,21526)"
         style="font-variant:normal;font-weight:normal;font-size:1131px;font-family:Arial;-inkscape-font-specification:ArialMT;writing-mode:lr-tb;fill:#000000;fill-opacity:1;fill-rule:nonzero;stroke:none"
         id="text3790"><tspan
           x="0 753.24597 1382.082 1758.705 2324.2051 2953.041 3581.877 3895.1641 4208.4512 4585.0742 5213.9102 5527.1968 6156.0332 6407.1152 7035.9512 7664.7871 8293.623 8606.9102 9235.7461 9864.582 10177.869 10806.705 11435.541 12064.377 12441 13069.836 13698.672 14327.508 14704.131 15332.967 15961.803 16212.885 16841.721"
           y="0"
           sodipodi:role="line"
           id="tspan3792">Percent retained on buprenorphine</tspan></text>
</g><path
       d="m 12119.753,1965.2195 26745,0 0,3889.5 -26745,0 0,-3889.5 z"
       style="fill:#ffffff;fill-opacity:1;fill-rule:nonzero;stroke:#000000;stroke-width:69.81599426;stroke-linecap:butt;stroke-linejoin:miter;stroke-miterlimit:10;stroke-dasharray:none;stroke-opacity:1"
       id="path3794"
       inkscape:connector-curvature="0" /><path
       d="m 12644.753,2488.7195 4537.5,0 0,1212 -4537.5,0 0,-1212 z"
       style="fill:#add8e6;fill-opacity:1;fill-rule:nonzero;stroke:#1a476f;stroke-width:14.54500389;stroke-linecap:butt;stroke-linejoin:miter;stroke-miterlimit:10;stroke-dasharray:none;stroke-opacity:1"
       id="path3796"
       inkscape:connector-curvature="0" /><path
       d="m 26252.753,2488.7195 4537.5,0 0,1212 -4537.5,0 0,-1212 z"
       style="fill:#938dd2;fill-opacity:1;fill-rule:nonzero;stroke:#000000;stroke-width:14.54500389;stroke-linecap:butt;stroke-linejoin:miter;stroke-miterlimit:10;stroke-dasharray:none;stroke-opacity:1"
       id="path3798"
       inkscape:connector-curvature="0" /><g
       id="g3800"
       transform="matrix(1.5,0,0,1.5,341.75215,324.21954)"><text
         transform="matrix(1,0,0,-1,11712,1564)"
         style="font-variant:normal;font-weight:normal;font-size:808px;font-family:Arial;-inkscape-font-specification:ArialMT;writing-mode:lr-tb;fill:#000000;fill-opacity:1;fill-rule:nonzero;stroke:none"
         id="text3802"><tspan
           x="0 538.12799 987.37598 1391.376 1615.192 1839.0081 2422.384 2646.2 3117.2639 3341.0801 3790.3279"
           y="0"
           sodipodi:role="line"
           id="tspan3804">Yes, N = 89</tspan></text>
</g><g
       id="g3806"
       transform="matrix(1.5,0,0,1.5,341.75215,324.21954)"><text
         transform="matrix(1,0,0,-1,20784,1564)"
         style="font-variant:normal;font-weight:normal;font-size:808px;font-family:Arial;-inkscape-font-specification:ArialMT;writing-mode:lr-tb;fill:#000000;fill-opacity:1;fill-rule:nonzero;stroke:none"
         id="text3808"><tspan
           x="0 583.37598 1032.624 1256.4399 1480.256 2063.6321 2287.448 2758.512 2982.3279 3431.5759 3880.824"
           y="0"
           sodipodi:role="line"
           id="tspan3810">No, N = 216</tspan></text>
</g><g
       id="g3812" /><g
       id="g3814"
       transform="matrix(1.5,0,0,1.5,341.75215,324.21954)"><text
         transform="matrix(1,0,0,-1,10662.156,2702)"
         style="font-variant:normal;font-weight:normal;font-size:808px;font-family:Arial;-inkscape-font-specification:ArialMT;writing-mode:lr-tb;fill:#000000;fill-opacity:1;fill-rule:nonzero;stroke:none"
         id="text3816"><tspan
           x="0 627.81598 1077.064 1300.88 1750.1281 2199.376 2468.4399 2917.688 3097.064 3546.312 3770.1279 4219.376 4488.4399 4712.2559 5161.5039 5430.5679 5879.8159 6329.064 6778.312 7002.1279 7181.5039 7630.752 8080 8303.8164 8753.0645 8976.8799 9200.6963 9649.9443 10099.192 10503.192 10952.44 11131.816 11311.192 11760.44"
           y="0"
           sodipodi:role="line"
           id="tspan3818">On parole or probation at baseline</tspan></text>
</g></g></svg>