<?xml version="1.0" encoding="UTF-8" standalone="no"?>
<!-- Created with Inkscape (http://www.inkscape.org/) -->

<svg
   xmlns:dc="http://purl.org/dc/elements/1.1/"
   xmlns:cc="http://creativecommons.org/ns#"
   xmlns:rdf="http://www.w3.org/1999/02/22-rdf-syntax-ns#"
   xmlns:svg="http://www.w3.org/2000/svg"
   xmlns="http://www.w3.org/2000/svg"
   xmlns:sodipodi="http://sodipodi.sourceforge.net/DTD/sodipodi-0.dtd"
   xmlns:inkscape="http://www.inkscape.org/namespaces/inkscape"
   id="svg3820"
   version="1.1"
   inkscape:version="0.91 r13725"
   xml:space="preserve"
   width="750"
   height="550"
   viewBox="0 0 750 550"
   sodipodi:docname="reten_by_baseline_ever_incar.svg"><metadata
     id="metadata3826"><rdf:RDF><cc:Work
         rdf:about=""><dc:format>image/svg+xml</dc:format><dc:type
           rdf:resource="http://purl.org/dc/dcmitype/StillImage" /><dc:title></dc:title></cc:Work></rdf:RDF></metadata><defs
     id="defs3824" /><sodipodi:namedview
     pagecolor="#ffffff"
     bordercolor="#666666"
     borderopacity="1"
     objecttolerance="10"
     gridtolerance="10"
     guidetolerance="10"
     inkscape:pageopacity="0"
     inkscape:pageshadow="2"
     inkscape:window-width="1366"
     inkscape:window-height="706"
     id="namedview3822"
     showgrid="false"
     inkscape:zoom="0.65555556"
     inkscape:cx="297.05931"
     inkscape:cy="183.30673"
     inkscape:window-x="-8"
     inkscape:window-y="-8"
     inkscape:window-maximized="1"
     inkscape:current-layer="g3828" /><g
     id="g3828"
     inkscape:groupmode="layer"
     inkscape:label="reten_by_baseline_ever_incar"
     transform="matrix(0.015475,0,0,-0.015475,0,550)"><path
       d="m 300.13189,385.55371 47998.51111,0 0,34908.01429 -47998.51111,0 0,-34908.01429 z"
       style="fill:#eaf2f3;fill-opacity:1;fill-rule:nonzero;stroke:#eaf2f3;stroke-width:69.81599426;stroke-linecap:butt;stroke-linejoin:miter;stroke-miterlimit:10;stroke-dasharray:none;stroke-opacity:1"
       id="path3830"
       inkscape:connector-curvature="0" /><path
       d="m 3825.132,8274.0536 43251.011,0 0,23682.0144 -43251.011,0 0,-23682.0144 z"
       style="fill:#ffffff;fill-opacity:1;fill-rule:nonzero;stroke:#ffffff;stroke-width:69.81599426;stroke-linecap:butt;stroke-linejoin:miter;stroke-miterlimit:10;stroke-dasharray:none;stroke-opacity:1"
       id="path3832"
       inkscape:connector-curvature="0" /><path
       d="m 3825.132,8274.0536 43251.011,0"
       style="fill:none;stroke:#eaf2f3;stroke-width:104.72399902;stroke-linecap:butt;stroke-linejoin:miter;stroke-miterlimit:10;stroke-dasharray:none;stroke-opacity:1"
       id="path3834"
       inkscape:connector-curvature="0" /><path
       d="m 3825.132,12766.56 43251.011,0"
       style="fill:none;stroke:#eaf2f3;stroke-width:104.72399902;stroke-linecap:butt;stroke-linejoin:miter;stroke-miterlimit:10;stroke-dasharray:none;stroke-opacity:1"
       id="path3836"
       inkscape:connector-curvature="0" /><path
       d="m 3825.132,17259.068 43251.011,0"
       style="fill:none;stroke:#eaf2f3;stroke-width:104.72399902;stroke-linecap:butt;stroke-linejoin:miter;stroke-miterlimit:10;stroke-dasharray:none;stroke-opacity:1"
       id="path3838"
       inkscape:connector-curvature="0" /><path
       d="m 3825.132,21750.068 43251.011,0"
       style="fill:none;stroke:#eaf2f3;stroke-width:104.72399902;stroke-linecap:butt;stroke-linejoin:miter;stroke-miterlimit:10;stroke-dasharray:none;stroke-opacity:1"
       id="path3840"
       inkscape:connector-curvature="0" /><path
       d="m 3825.132,26242.568 43251.011,0"
       style="fill:none;stroke:#eaf2f3;stroke-width:104.72399902;stroke-linecap:butt;stroke-linejoin:miter;stroke-miterlimit:10;stroke-dasharray:none;stroke-opacity:1"
       id="path3842"
       inkscape:connector-curvature="0" /><path
       d="m 3825.132,30733.568 43251.011,0"
       style="fill:none;stroke:#eaf2f3;stroke-width:104.72399902;stroke-linecap:butt;stroke-linejoin:miter;stroke-miterlimit:10;stroke-dasharray:none;stroke-opacity:1"
       id="path3844"
       inkscape:connector-curvature="0" /><path
       d="m 5830.6321,8274.0536 3919.4998,0 0,16329.0144 -3919.4998,0 0,-16329.0144 z"
       style="fill:#add8e6;fill-opacity:1;fill-rule:nonzero;stroke:#1a476f;stroke-width:14.54500389;stroke-linecap:butt;stroke-linejoin:miter;stroke-miterlimit:10;stroke-dasharray:none;stroke-opacity:1"
       id="path3846"
       inkscape:connector-curvature="0" /><path
       d="m 9750.1319,8274.0536 3921.0001,0 0,17901.0144 -3921.0001,0 0,-17901.0144 z"
       style="fill:#938dd2;fill-opacity:1;fill-rule:nonzero;stroke:#000000;stroke-width:14.54500389;stroke-linecap:butt;stroke-linejoin:miter;stroke-miterlimit:10;stroke-dasharray:none;stroke-opacity:1"
       id="path3848"
       inkscape:connector-curvature="0" /><path
       d="m 16297.638,8274.0536 3919.505,0 0,14577.0144 -3919.505,0 0,-14577.0144 z"
       style="fill:#add8e6;fill-opacity:1;fill-rule:nonzero;stroke:#1a476f;stroke-width:14.54500389;stroke-linecap:butt;stroke-linejoin:miter;stroke-miterlimit:10;stroke-dasharray:none;stroke-opacity:1"
       id="path3850"
       inkscape:connector-curvature="0" /><path
       d="m 20217.143,8274.0536 3921,0 0,16149.0144 -3921,0 0,-16149.0144 z"
       style="fill:#938dd2;fill-opacity:1;fill-rule:nonzero;stroke:#000000;stroke-width:14.54500389;stroke-linecap:butt;stroke-linejoin:miter;stroke-miterlimit:10;stroke-dasharray:none;stroke-opacity:1"
       id="path3852"
       inkscape:connector-curvature="0" /><path
       d="m 26764.643,8274.0536 3919.5,0 0,12622.5144 -3919.5,0 0,-12622.5144 z"
       style="fill:#add8e6;fill-opacity:1;fill-rule:nonzero;stroke:#1a476f;stroke-width:14.54500389;stroke-linecap:butt;stroke-linejoin:miter;stroke-miterlimit:10;stroke-dasharray:none;stroke-opacity:1"
       id="path3854"
       inkscape:connector-curvature="0" /><path
       d="m 30684.143,8274.0536 3919.5,0 0,14397.0144 -3919.5,0 0,-14397.0144 z"
       style="fill:#938dd2;fill-opacity:1;fill-rule:nonzero;stroke:#000000;stroke-width:14.54500389;stroke-linecap:butt;stroke-linejoin:miter;stroke-miterlimit:10;stroke-dasharray:none;stroke-opacity:1"
       id="path3856"
       inkscape:connector-curvature="0" /><path
       d="m 37230.143,8274.0536 3921,0 0,10489.5144 -3921,0 0,-10489.5144 z"
       style="fill:#add8e6;fill-opacity:1;fill-rule:nonzero;stroke:#1a476f;stroke-width:14.54500389;stroke-linecap:butt;stroke-linejoin:miter;stroke-miterlimit:10;stroke-dasharray:none;stroke-opacity:1"
       id="path3858"
       inkscape:connector-curvature="0" /><path
       d="m 41151.143,8274.0536 3919.5,0 0,11971.5144 -3919.5,0 0,-11971.5144 z"
       style="fill:#938dd2;fill-opacity:1;fill-rule:nonzero;stroke:#000000;stroke-width:14.54500389;stroke-linecap:butt;stroke-linejoin:miter;stroke-miterlimit:10;stroke-dasharray:none;stroke-opacity:1"
       id="path3860"
       inkscape:connector-curvature="0" /><g
       id="g3862" /><g
       id="g3864"
       transform="matrix(1.5,0,0,1.5,300.13189,385.55371)"><text
         transform="matrix(1,0,0,-1,4365.7651,16565)"
         style="font-variant:normal;font-weight:normal;font-size:646px;font-family:Arial;-inkscape-font-specification:ArialMT;writing-mode:lr-tb;fill:#000000;fill-opacity:1;fill-rule:nonzero;stroke:none"
         id="text3866"><tspan
           x="0 359.17599 718.35199 897.29401"
           y="0"
           sodipodi:role="line"
           id="tspan3868">72.7</tspan></text>
</g><g
       id="g3870" /><g
       id="g3872"
       transform="matrix(1.5,0,0,1.5,300.13189,385.55371)"><text
         transform="matrix(1,0,0,-1,6978.7651,17613)"
         style="font-variant:normal;font-weight:normal;font-size:646px;font-family:Arial;-inkscape-font-specification:ArialMT;writing-mode:lr-tb;fill:#000000;fill-opacity:1;fill-rule:nonzero;stroke:none"
         id="text3874"><tspan
           x="0 359.17599 718.35199 897.29401"
           y="0"
           sodipodi:role="line"
           id="tspan3876">79.7</tspan></text>
</g><g
       id="g3878" /><g
       id="g3880"
       transform="matrix(1.5,0,0,1.5,300.13189,385.55371)"><text
         transform="matrix(1,0,0,-1,11343.765,15397)"
         style="font-variant:normal;font-weight:normal;font-size:646px;font-family:Arial;-inkscape-font-specification:ArialMT;writing-mode:lr-tb;fill:#000000;fill-opacity:1;fill-rule:nonzero;stroke:none"
         id="text3882"><tspan
           x="0 359.17599 718.35199 897.29401"
           y="0"
           sodipodi:role="line"
           id="tspan3884">64.9</tspan></text>
</g><g
       id="g3886" /><g
       id="g3888"
       transform="matrix(1.5,0,0,1.5,300.13189,385.55371)"><text
         transform="matrix(1,0,0,-1,13956.765,16445)"
         style="font-variant:normal;font-weight:normal;font-size:646px;font-family:Arial;-inkscape-font-specification:ArialMT;writing-mode:lr-tb;fill:#000000;fill-opacity:1;fill-rule:nonzero;stroke:none"
         id="text3890"><tspan
           x="0 359.17599 718.35199 897.29401"
           y="0"
           sodipodi:role="line"
           id="tspan3892">71.9</tspan></text>
</g><g
       id="g3894" /><g
       id="g3896"
       transform="matrix(1.5,0,0,1.5,300.13189,385.55371)"><text
         transform="matrix(1,0,0,-1,18320.766,14094)"
         style="font-variant:normal;font-weight:normal;font-size:646px;font-family:Arial;-inkscape-font-specification:ArialMT;writing-mode:lr-tb;fill:#000000;fill-opacity:1;fill-rule:nonzero;stroke:none"
         id="text3898"><tspan
           x="0 359.17599 718.35199 897.29401"
           y="0"
           sodipodi:role="line"
           id="tspan3900">56.2</tspan></text>
</g><g
       id="g3902" /><g
       id="g3904"
       transform="matrix(1.5,0,0,1.5,300.13189,385.55371)"><text
         transform="matrix(1,0,0,-1,20934.766,15277)"
         style="font-variant:normal;font-weight:normal;font-size:646px;font-family:Arial;-inkscape-font-specification:ArialMT;writing-mode:lr-tb;fill:#000000;fill-opacity:1;fill-rule:nonzero;stroke:none"
         id="text3906"><tspan
           x="0 359.17599 718.35199 897.29401"
           y="0"
           sodipodi:role="line"
           id="tspan3908">64.1</tspan></text>
</g><g
       id="g3910" /><g
       id="g3912"
       transform="matrix(1.5,0,0,1.5,300.13189,385.55371)"><text
         transform="matrix(1,0,0,-1,25298.766,12672)"
         style="font-variant:normal;font-weight:normal;font-size:646px;font-family:Arial;-inkscape-font-specification:ArialMT;writing-mode:lr-tb;fill:#000000;fill-opacity:1;fill-rule:nonzero;stroke:none"
         id="text3914"><tspan
           x="0 359.17599 718.35199 897.29401"
           y="0"
           sodipodi:role="line"
           id="tspan3916">46.7</tspan></text>
</g><g
       id="g3918" /><g
       id="g3920"
       transform="matrix(1.5,0,0,1.5,300.13189,385.55371)"><text
         transform="matrix(1,0,0,-1,27912.766,13660)"
         style="font-variant:normal;font-weight:normal;font-size:646px;font-family:Arial;-inkscape-font-specification:ArialMT;writing-mode:lr-tb;fill:#000000;fill-opacity:1;fill-rule:nonzero;stroke:none"
         id="text3922"><tspan
           x="0 359.17599 718.35199 897.29401"
           y="0"
           sodipodi:role="line"
           id="tspan3924">53.3</tspan></text>
</g><g
       id="g3926"
       transform="matrix(1.5,0,0,1.5,300.13189,385.55371)"><text
         transform="matrix(1,0,0,-1,6699,16315)"
         style="font-variant:normal;font-weight:normal;font-size:646px;font-family:Arial;-inkscape-font-specification:ArialMT;writing-mode:lr-tb;fill:#000000;fill-opacity:1;fill-rule:nonzero;stroke:none"
         id="text3928"><tspan
           x="0 359.17599 538.11798 914.73602 1093.678 1452.854"
           y="0"
           sodipodi:role="line"
           id="tspan3930">n = 51</tspan></text>
</g><g
       id="g3932"
       transform="matrix(1.5,0,0,1.5,300.13189,385.55371)"><text
         transform="matrix(1,0,0,-1,3813,15233)"
         style="font-variant:normal;font-weight:normal;font-size:646px;font-family:Arial;-inkscape-font-specification:ArialMT;writing-mode:lr-tb;fill:#000000;fill-opacity:1;fill-rule:nonzero;stroke:none"
         id="text3934"><tspan
           x="0 359.17599 538.11798 914.73602 1093.678 1452.854 1812.03"
           y="0"
           sodipodi:role="line"
           id="tspan3936">n = 176</tspan></text>
</g><g
       id="g3938"
       transform="matrix(1.5,0,0,1.5,300.13189,385.55371)"><text
         transform="matrix(1,0,0,-1,10770,14151)"
         style="font-variant:normal;font-weight:normal;font-size:646px;font-family:Arial;-inkscape-font-specification:ArialMT;writing-mode:lr-tb;fill:#000000;fill-opacity:1;fill-rule:nonzero;stroke:none"
         id="text3940"><tspan
           x="0 359.17599 538.11798 914.73602 1093.678 1452.854 1812.03"
           y="0"
           sodipodi:role="line"
           id="tspan3942">n = 157</tspan></text>
</g><g
       id="g3944"
       transform="matrix(1.5,0,0,1.5,300.13189,385.55371)"><text
         transform="matrix(1,0,0,-1,13501,15284)"
         style="font-variant:normal;font-weight:normal;font-size:646px;font-family:Arial;-inkscape-font-specification:ArialMT;writing-mode:lr-tb;fill:#000000;fill-opacity:1;fill-rule:nonzero;stroke:none"
         id="text3946"><tspan
           x="0 359.17599 538.11798 914.73602 1093.678 1452.854"
           y="0"
           sodipodi:role="line"
           id="tspan3948">n = 46</tspan></text>
</g><g
       id="g3950"
       transform="matrix(1.5,0,0,1.5,300.13189,385.55371)"><text
         transform="matrix(1,0,0,-1,17829,12914)"
         style="font-variant:normal;font-weight:normal;font-size:646px;font-family:Arial;-inkscape-font-specification:ArialMT;writing-mode:lr-tb;fill:#000000;fill-opacity:1;fill-rule:nonzero;stroke:none"
         id="text3952"><tspan
           x="0 359.17599 538.11798 914.73602 1093.678 1452.854 1812.03"
           y="0"
           sodipodi:role="line"
           id="tspan3954">n = 136</tspan></text>
</g><g
       id="g3956"
       transform="matrix(1.5,0,0,1.5,300.13189,385.55371)"><text
         transform="matrix(1,0,0,-1,20560,14099)"
         style="font-variant:normal;font-weight:normal;font-size:646px;font-family:Arial;-inkscape-font-specification:ArialMT;writing-mode:lr-tb;fill:#000000;fill-opacity:1;fill-rule:nonzero;stroke:none"
         id="text3958"><tspan
           x="0 359.17599 538.11798 914.73602 1093.678 1452.854"
           y="0"
           sodipodi:role="line"
           id="tspan3960">n = 41</tspan></text>
</g><g
       id="g3962"
       transform="matrix(1.5,0,0,1.5,300.13189,385.55371)"><text
         transform="matrix(1,0,0,-1,24786,11420)"
         style="font-variant:normal;font-weight:normal;font-size:646px;font-family:Arial;-inkscape-font-specification:ArialMT;writing-mode:lr-tb;fill:#000000;fill-opacity:1;fill-rule:nonzero;stroke:none"
         id="text3964"><tspan
           x="0 359.17599 538.11798 914.73602 1093.678 1452.854 1812.03"
           y="0"
           sodipodi:role="line"
           id="tspan3966">n = 113</tspan></text>
</g><g
       id="g3968"
       transform="matrix(1.5,0,0,1.5,300.13189,385.55371)"><text
         transform="matrix(1,0,0,-1,27671,12502)"
         style="font-variant:normal;font-weight:normal;font-size:646px;font-family:Arial;-inkscape-font-specification:ArialMT;writing-mode:lr-tb;fill:#000000;fill-opacity:1;fill-rule:nonzero;stroke:none"
         id="text3970"><tspan
           x="0 359.17599 538.11798 914.73602 1093.678 1452.854"
           y="0"
           sodipodi:role="line"
           id="tspan3972">n = 34</tspan></text>
</g><path
       d="m 3825.132,8274.0536 0,23682.0144"
       style="fill:none;stroke:#000000;stroke-width:69.81599426;stroke-linecap:butt;stroke-linejoin:miter;stroke-miterlimit:10;stroke-dasharray:none;stroke-opacity:1"
       id="path3974"
       inkscape:connector-curvature="0" /><path
       d="m 3825.132,8274.0536 -484.5001,0"
       style="fill:none;stroke:#000000;stroke-width:69.81599426;stroke-linecap:butt;stroke-linejoin:miter;stroke-miterlimit:10;stroke-dasharray:none;stroke-opacity:1"
       id="path3976"
       inkscape:connector-curvature="0" /><g
       id="g3978" /><g
       id="g3980"
       transform="matrix(1.5,0,0,1.5,300.13189,385.55371)"><text
         transform="matrix(0,1,1,0,1623,5034.376)"
         style="font-variant:normal;font-weight:normal;font-size:808px;font-family:Arial;-inkscape-font-specification:ArialMT;writing-mode:lr-tb;fill:#000000;fill-opacity:1;fill-rule:nonzero;stroke:none"
         id="text3982"><tspan
           x="0"
           y="0"
           id="tspan3984">0</tspan></text>
</g><path
       d="m 3825.132,12766.56 -484.5001,0"
       style="fill:none;stroke:#000000;stroke-width:69.81599426;stroke-linecap:butt;stroke-linejoin:miter;stroke-miterlimit:10;stroke-dasharray:none;stroke-opacity:1"
       id="path3986"
       inkscape:connector-curvature="0" /><g
       id="g3988" /><g
       id="g3990"
       transform="matrix(1.5,0,0,1.5,300.13189,385.55371)"><text
         transform="matrix(0,1,1,0,1623,7804.7519)"
         style="font-variant:normal;font-weight:normal;font-size:808px;font-family:Arial;-inkscape-font-specification:ArialMT;writing-mode:lr-tb;fill:#000000;fill-opacity:1;fill-rule:nonzero;stroke:none"
         id="text3992"><tspan
           x="0 449.24799"
           y="0"
           sodipodi:role="line"
           id="tspan3994">20</tspan></text>
</g><path
       d="m 3825.132,17259.068 -484.5001,0"
       style="fill:none;stroke:#000000;stroke-width:69.81599426;stroke-linecap:butt;stroke-linejoin:miter;stroke-miterlimit:10;stroke-dasharray:none;stroke-opacity:1"
       id="path3996"
       inkscape:connector-curvature="0" /><g
       id="g3998" /><g
       id="g4000"
       transform="matrix(1.5,0,0,1.5,300.13189,385.55371)"><text
         transform="matrix(0,1,1,0,1623,10799.752)"
         style="font-variant:normal;font-weight:normal;font-size:808px;font-family:Arial;-inkscape-font-specification:ArialMT;writing-mode:lr-tb;fill:#000000;fill-opacity:1;fill-rule:nonzero;stroke:none"
         id="text4002"><tspan
           x="0 449.24799"
           y="0"
           sodipodi:role="line"
           id="tspan4004">40</tspan></text>
</g><path
       d="m 3825.132,21750.068 -484.5001,0"
       style="fill:none;stroke:#000000;stroke-width:69.81599426;stroke-linecap:butt;stroke-linejoin:miter;stroke-miterlimit:10;stroke-dasharray:none;stroke-opacity:1"
       id="path4006"
       inkscape:connector-curvature="0" /><g
       id="g4008" /><g
       id="g4010"
       transform="matrix(1.5,0,0,1.5,300.13189,385.55371)"><text
         transform="matrix(0,1,1,0,1623,13793.752)"
         style="font-variant:normal;font-weight:normal;font-size:808px;font-family:Arial;-inkscape-font-specification:ArialMT;writing-mode:lr-tb;fill:#000000;fill-opacity:1;fill-rule:nonzero;stroke:none"
         id="text4012"><tspan
           x="0 449.24799"
           y="0"
           sodipodi:role="line"
           id="tspan4014">60</tspan></text>
</g><path
       d="m 3825.132,26242.568 -484.5001,0"
       style="fill:none;stroke:#000000;stroke-width:69.81599426;stroke-linecap:butt;stroke-linejoin:miter;stroke-miterlimit:10;stroke-dasharray:none;stroke-opacity:1"
       id="path4016"
       inkscape:connector-curvature="0" /><g
       id="g4018" /><g
       id="g4020"
       transform="matrix(1.5,0,0,1.5,300.13189,385.55371)"><text
         transform="matrix(0,1,1,0,1623,16788.752)"
         style="font-variant:normal;font-weight:normal;font-size:808px;font-family:Arial;-inkscape-font-specification:ArialMT;writing-mode:lr-tb;fill:#000000;fill-opacity:1;fill-rule:nonzero;stroke:none"
         id="text4022"><tspan
           x="0 449.24799"
           y="0"
           sodipodi:role="line"
           id="tspan4024">80</tspan></text>
</g><path
       d="m 3825.132,30733.568 -484.5001,0"
       style="fill:none;stroke:#000000;stroke-width:69.81599426;stroke-linecap:butt;stroke-linejoin:miter;stroke-miterlimit:10;stroke-dasharray:none;stroke-opacity:1"
       id="path4026"
       inkscape:connector-curvature="0" /><g
       id="g4028" /><g
       id="g4030"
       transform="matrix(1.5,0,0,1.5,300.13189,385.55371)"><text
         transform="matrix(0,1,1,0,1623,19558.129)"
         style="font-variant:normal;font-weight:normal;font-size:808px;font-family:Arial;-inkscape-font-specification:ArialMT;writing-mode:lr-tb;fill:#000000;fill-opacity:1;fill-rule:nonzero;stroke:none"
         id="text4032"><tspan
           x="0 449.24799 898.49597"
           y="0"
           sodipodi:role="line"
           id="tspan4034">100</tspan></text>
</g><path
       d="m 3825.132,8274.0536 43251.011,0"
       style="fill:none;stroke:#000000;stroke-width:69.81599426;stroke-linecap:butt;stroke-linejoin:miter;stroke-miterlimit:10;stroke-dasharray:none;stroke-opacity:1"
       id="path4036"
       inkscape:connector-curvature="0" /><g
       id="g4038" /><g
       id="g4040"
       transform="matrix(1.5,0,0,1.5,300.13189,385.55371)"><text
         transform="matrix(1,0,0,-1,4594.7158,4370)"
         style="font-variant:normal;font-weight:normal;font-size:808px;font-family:Arial;-inkscape-font-specification:ArialMT;writing-mode:lr-tb;fill:#000000;fill-opacity:1;fill-rule:nonzero;stroke:none"
         id="text4042"><tspan
           x="0 627.81598 1077.064 1526.312 1795.376 2019.192 2468.4399 2737.5039 2961.3201"
           y="0"
           sodipodi:role="line"
           id="tspan4044">Quarter 1</tspan></text>
</g><g
       id="g4046" /><g
       id="g4048"
       transform="matrix(1.5,0,0,1.5,300.13189,385.55371)"><text
         transform="matrix(1,0,0,-1,11572.716,4370)"
         style="font-variant:normal;font-weight:normal;font-size:808px;font-family:Arial;-inkscape-font-specification:ArialMT;writing-mode:lr-tb;fill:#000000;fill-opacity:1;fill-rule:nonzero;stroke:none"
         id="text4050"><tspan
           x="0 627.81598 1077.064 1526.312 1795.376 2019.192 2468.4399 2737.5039 2961.3201"
           y="0"
           sodipodi:role="line"
           id="tspan4052">Quarter 2</tspan></text>
</g><g
       id="g4054" /><g
       id="g4056"
       transform="matrix(1.5,0,0,1.5,300.13189,385.55371)"><text
         transform="matrix(1,0,0,-1,18550.717,4370)"
         style="font-variant:normal;font-weight:normal;font-size:808px;font-family:Arial;-inkscape-font-specification:ArialMT;writing-mode:lr-tb;fill:#000000;fill-opacity:1;fill-rule:nonzero;stroke:none"
         id="text4058"><tspan
           x="0 627.81598 1077.064 1526.312 1795.376 2019.192 2468.4399 2737.5039 2961.3201"
           y="0"
           sodipodi:role="line"
           id="tspan4060">Quarter 3</tspan></text>
</g><g
       id="g4062" /><g
       id="g4064"
       transform="matrix(1.5,0,0,1.5,300.13189,385.55371)"><text
         transform="matrix(1,0,0,-1,25528.717,4370)"
         style="font-variant:normal;font-weight:normal;font-size:808px;font-family:Arial;-inkscape-font-specification:ArialMT;writing-mode:lr-tb;fill:#000000;fill-opacity:1;fill-rule:nonzero;stroke:none"
         id="text4066"><tspan
           x="0 627.81598 1077.064 1526.312 1795.376 2019.192 2468.4399 2737.5039 2961.3201"
           y="0"
           sodipodi:role="line"
           id="tspan4068">Quarter 4</tspan></text>
</g><g
       id="g4070" /><g
       id="g4072"
       transform="matrix(1.5,0,0,1.5,300.13189,385.55371)"><text
         transform="matrix(1,0,0,-1,8031.7217,21526)"
         style="font-variant:normal;font-weight:normal;font-size:1131px;font-family:Arial;-inkscape-font-specification:ArialMT;writing-mode:lr-tb;fill:#000000;fill-opacity:1;fill-rule:nonzero;stroke:none"
         id="text4074"><tspan
           x="0 753.24597 1382.082 1758.705 2324.2051 2953.041 3581.877 3895.1641 4208.4512 4585.0742 5213.9102 5527.1968 6156.0332 6407.1152 7035.9512 7664.7871 8293.623 8606.9102 9235.7461 9864.582 10177.869 10806.705 11435.541 12064.377 12441 13069.836 13698.672 14327.508 14704.131 15332.967 15961.803 16212.885 16841.721"
           y="0"
           sodipodi:role="line"
           id="tspan4076">Percent retained on buprenorphine</tspan></text>
</g><path
       d="m 12078.132,2026.5538 26745.011,0 0,3889.4999 -26745.011,0 0,-3889.4999 z"
       style="fill:#ffffff;fill-opacity:1;fill-rule:nonzero;stroke:#000000;stroke-width:69.81599426;stroke-linecap:butt;stroke-linejoin:miter;stroke-miterlimit:10;stroke-dasharray:none;stroke-opacity:1"
       id="path4078"
       inkscape:connector-curvature="0" /><path
       d="m 12603.132,2550.0538 4537.508,0 0,1212 -4537.508,0 0,-1212 z"
       style="fill:#add8e6;fill-opacity:1;fill-rule:nonzero;stroke:#1a476f;stroke-width:14.54500389;stroke-linecap:butt;stroke-linejoin:miter;stroke-miterlimit:10;stroke-dasharray:none;stroke-opacity:1"
       id="path4080"
       inkscape:connector-curvature="0" /><path
       d="m 26917.643,2550.0538 4539,0 0,1212 -4539,0 0,-1212 z"
       style="fill:#938dd2;fill-opacity:1;fill-rule:nonzero;stroke:#000000;stroke-width:14.54500389;stroke-linecap:butt;stroke-linejoin:miter;stroke-miterlimit:10;stroke-dasharray:none;stroke-opacity:1"
       id="path4082"
       inkscape:connector-curvature="0" /><g
       id="g4084"
       transform="matrix(1.5,0,0,1.5,300.13189,385.55371)"><text
         transform="matrix(1,0,0,-1,11712,1564)"
         style="font-variant:normal;font-weight:normal;font-size:808px;font-family:Arial;-inkscape-font-specification:ArialMT;writing-mode:lr-tb;fill:#000000;fill-opacity:1;fill-rule:nonzero;stroke:none"
         id="text4086"><tspan
           x="0 538.12799 987.37598 1391.376 1615.192 1839.0081 2422.384 2646.2 3117.2639 3341.0801 3790.3279 4239.5762"
           y="0"
           sodipodi:role="line"
           id="tspan4088">Yes, N = 242</tspan></text>
</g><g
       id="g4090"
       transform="matrix(1.5,0,0,1.5,300.13189,385.55371)"><text
         transform="matrix(1,0,0,-1,21255,1564)"
         style="font-variant:normal;font-weight:normal;font-size:808px;font-family:Arial;-inkscape-font-specification:ArialMT;writing-mode:lr-tb;fill:#000000;fill-opacity:1;fill-rule:nonzero;stroke:none"
         id="text4092"><tspan
           x="0 583.37598 1032.624 1256.4399 1480.256 2063.6321 2287.448 2758.512 2982.3279 3431.5759"
           y="0"
           sodipodi:role="line"
           id="tspan4094">No, N = 64</tspan></text>
</g><g
       id="g4096" /><g
       id="g4098"
       transform="matrix(1.5,0,0,1.5,300.13189,385.55371)"><text
         transform="matrix(1,0,0,-1,10942.936,2702)"
         style="font-variant:normal;font-weight:normal;font-size:808px;font-family:Arial;-inkscape-font-specification:ArialMT;writing-mode:lr-tb;fill:#000000;fill-opacity:1;fill-rule:nonzero;stroke:none"
         id="text4100"><tspan
           x="0 538.12799 942.12799 1391.376 1660.4399 1884.256 2333.5039 2782.752 3232 3681.248 3905.064 4084.4399 4533.688 4937.688 5386.936 5656 6060 6509.248 6778.312 7227.5601 7451.376 7900.624 8349.8721 8573.6885 9044.752 9268.5684 9717.8164 9941.6318 10390.88 10840.128 11244.128"
           y="0"
           sodipodi:role="line"
           id="tspan4102">Ever been incarcerated &gt; 3 days</tspan></text>
</g></g></svg>