<?xml version="1.0" encoding="UTF-8" standalone="no"?>
<!-- Created with Inkscape (http://www.inkscape.org/) -->

<svg
   xmlns:dc="http://purl.org/dc/elements/1.1/"
   xmlns:cc="http://creativecommons.org/ns#"
   xmlns:rdf="http://www.w3.org/1999/02/22-rdf-syntax-ns#"
   xmlns:svg="http://www.w3.org/2000/svg"
   xmlns="http://www.w3.org/2000/svg"
   xmlns:sodipodi="http://sodipodi.sourceforge.net/DTD/sodipodi-0.dtd"
   xmlns:inkscape="http://www.inkscape.org/namespaces/inkscape"
   id="svg4224"
   version="1.1"
   inkscape:version="0.91 r13725"
   xml:space="preserve"
   width="750.85699"
   height="550.28198"
   viewBox="0 0 750.85699 550.28198"
   sodipodi:docname="reten_by_quarterly_incar.svg"><metadata
     id="metadata4230"><rdf:RDF><cc:Work
         rdf:about=""><dc:format>image/svg+xml</dc:format><dc:type
           rdf:resource="http://purl.org/dc/dcmitype/StillImage" /><dc:title></dc:title></cc:Work></rdf:RDF></metadata><defs
     id="defs4228" /><sodipodi:namedview
     pagecolor="#ffffff"
     bordercolor="#666666"
     borderopacity="1"
     objecttolerance="10"
     gridtolerance="10"
     guidetolerance="10"
     inkscape:pageopacity="0"
     inkscape:pageshadow="2"
     inkscape:window-width="1366"
     inkscape:window-height="706"
     id="namedview4226"
     showgrid="false"
     inkscape:zoom="0.46354778"
     inkscape:cx="111.19998"
     inkscape:cy="128.29099"
     inkscape:window-x="-8"
     inkscape:window-y="-8"
     inkscape:window-maximized="1"
     inkscape:current-layer="g4232" /><g
     id="g4232"
     inkscape:groupmode="layer"
     inkscape:label="reten_by_quarterly_incar"
     transform="matrix(0.015475,0,0,-0.015475,0,550.28204)"><path
       d="m 333.99286,285.2809 47998.50114,0 0,34908.0011 -47998.50114,0 0,-34908.0011 z"
       style="fill:#eaf2f3;fill-opacity:1;fill-rule:nonzero;stroke:#eaf2f3;stroke-width:69.81599426;stroke-linecap:butt;stroke-linejoin:miter;stroke-miterlimit:10;stroke-dasharray:none;stroke-opacity:1"
       id="path4234"
       inkscape:connector-curvature="0" /><path
       d="m 3858.9928,8173.7809 43251.0012,0 0,23682.0011 -43251.0012,0 0,-23682.0011 z"
       style="fill:#ffffff;fill-opacity:1;fill-rule:nonzero;stroke:#ffffff;stroke-width:69.81599426;stroke-linecap:butt;stroke-linejoin:miter;stroke-miterlimit:10;stroke-dasharray:none;stroke-opacity:1"
       id="path4236"
       inkscape:connector-curvature="0" /><path
       d="m 3858.9928,8173.7809 43251.0012,0"
       style="fill:none;stroke:#eaf2f3;stroke-width:104.72399902;stroke-linecap:butt;stroke-linejoin:miter;stroke-miterlimit:10;stroke-dasharray:none;stroke-opacity:1"
       id="path4238"
       inkscape:connector-curvature="0" /><path
       d="m 3858.9928,12666.282 43251.0012,0"
       style="fill:none;stroke:#eaf2f3;stroke-width:104.72399902;stroke-linecap:butt;stroke-linejoin:miter;stroke-miterlimit:10;stroke-dasharray:none;stroke-opacity:1"
       id="path4240"
       inkscape:connector-curvature="0" /><path
       d="m 3858.9928,17158.782 43251.0012,0"
       style="fill:none;stroke:#eaf2f3;stroke-width:104.72399902;stroke-linecap:butt;stroke-linejoin:miter;stroke-miterlimit:10;stroke-dasharray:none;stroke-opacity:1"
       id="path4242"
       inkscape:connector-curvature="0" /><path
       d="m 3858.9928,21649.782 43251.0012,0"
       style="fill:none;stroke:#eaf2f3;stroke-width:104.72399902;stroke-linecap:butt;stroke-linejoin:miter;stroke-miterlimit:10;stroke-dasharray:none;stroke-opacity:1"
       id="path4244"
       inkscape:connector-curvature="0" /><path
       d="m 3858.9928,26142.282 43251.0012,0"
       style="fill:none;stroke:#eaf2f3;stroke-width:104.72399902;stroke-linecap:butt;stroke-linejoin:miter;stroke-miterlimit:10;stroke-dasharray:none;stroke-opacity:1"
       id="path4246"
       inkscape:connector-curvature="0" /><path
       d="m 3858.9928,30633.282 43251.0012,0"
       style="fill:none;stroke:#eaf2f3;stroke-width:104.72399902;stroke-linecap:butt;stroke-linejoin:miter;stroke-miterlimit:10;stroke-dasharray:none;stroke-opacity:1"
       id="path4248"
       inkscape:connector-curvature="0" /><path
       d="m 5864.4928,8173.7809 3919.5,0 0,20416.5011 -3919.5,0 0,-20416.5011 z"
       style="fill:#add8e6;fill-opacity:1;fill-rule:nonzero;stroke:#1a476f;stroke-width:14.54500389;stroke-linecap:butt;stroke-linejoin:miter;stroke-miterlimit:10;stroke-dasharray:none;stroke-opacity:1"
       id="path4250"
       inkscape:connector-curvature="0" /><path
       d="m 9783.9928,8173.7809 3921.0012,0 0,19944.0011 -3921.0012,0 0,-19944.0011 z"
       style="fill:#938dd2;fill-opacity:1;fill-rule:nonzero;stroke:#000000;stroke-width:14.54500389;stroke-linecap:butt;stroke-linejoin:miter;stroke-miterlimit:10;stroke-dasharray:none;stroke-opacity:1"
       id="path4252"
       inkscape:connector-curvature="0" /><path
       d="m 16331.494,8173.7809 3919.5,0 0,14149.5011 -3919.5,0 0,-14149.5011 z"
       style="fill:#add8e6;fill-opacity:1;fill-rule:nonzero;stroke:#1a476f;stroke-width:14.54500389;stroke-linecap:butt;stroke-linejoin:miter;stroke-miterlimit:10;stroke-dasharray:none;stroke-opacity:1"
       id="path4254"
       inkscape:connector-curvature="0" /><path
       d="m 20250.994,8173.7809 3921,0 0,18664.5011 -3921,0 0,-18664.5011 z"
       style="fill:#938dd2;fill-opacity:1;fill-rule:nonzero;stroke:#000000;stroke-width:14.54500389;stroke-linecap:butt;stroke-linejoin:miter;stroke-miterlimit:10;stroke-dasharray:none;stroke-opacity:1"
       id="path4256"
       inkscape:connector-curvature="0" /><path
       d="m 26798.494,8173.7809 3919.5,0 0,14442.0011 -3919.5,0 0,-14442.0011 z"
       style="fill:#add8e6;fill-opacity:1;fill-rule:nonzero;stroke:#1a476f;stroke-width:14.54500389;stroke-linecap:butt;stroke-linejoin:miter;stroke-miterlimit:10;stroke-dasharray:none;stroke-opacity:1"
       id="path4258"
       inkscape:connector-curvature="0" /><path
       d="m 30717.994,8173.7809 3919.5,0 0,17473.5011 -3919.5,0 0,-17473.5011 z"
       style="fill:#938dd2;fill-opacity:1;fill-rule:nonzero;stroke:#000000;stroke-width:14.54500389;stroke-linecap:butt;stroke-linejoin:miter;stroke-miterlimit:10;stroke-dasharray:none;stroke-opacity:1"
       id="path4260"
       inkscape:connector-curvature="0" /><path
       d="m 37263.994,8173.7809 3921,0 0,7143.0011 -3921,0 0,-7143.0011 z"
       style="fill:#add8e6;fill-opacity:1;fill-rule:nonzero;stroke:#1a476f;stroke-width:14.54500389;stroke-linecap:butt;stroke-linejoin:miter;stroke-miterlimit:10;stroke-dasharray:none;stroke-opacity:1"
       id="path4262"
       inkscape:connector-curvature="0" /><path
       d="m 41184.994,8173.7809 3919.5,0 0,14980.5011 -3919.5,0 0,-14980.5011 z"
       style="fill:#938dd2;fill-opacity:1;fill-rule:nonzero;stroke:#000000;stroke-width:14.54500389;stroke-linecap:butt;stroke-linejoin:miter;stroke-miterlimit:10;stroke-dasharray:none;stroke-opacity:1"
       id="path4264"
       inkscape:connector-curvature="0" /><g
       id="g4266" /><g
       id="g4268"
       transform="matrix(1.5,0,0,1.5,333.99286,285.2809)"><text
         transform="matrix(1,0,0,-1,4365.7651,19290)"
         style="font-variant:normal;font-weight:normal;font-size:646px;font-family:Arial;-inkscape-font-specification:ArialMT;writing-mode:lr-tb;fill:#000000;fill-opacity:1;fill-rule:nonzero;stroke:none"
         id="text4270"><tspan
           x="0 359.17599 718.35199 897.29401"
           y="0"
           sodipodi:role="line"
           id="tspan4272">90.9</tspan></text>
</g><g
       id="g4274" /><g
       id="g4276"
       transform="matrix(1.5,0,0,1.5,333.99286,285.2809)"><text
         transform="matrix(1,0,0,-1,6978.7651,18976)"
         style="font-variant:normal;font-weight:normal;font-size:646px;font-family:Arial;-inkscape-font-specification:ArialMT;writing-mode:lr-tb;fill:#000000;fill-opacity:1;fill-rule:nonzero;stroke:none"
         id="text4278"><tspan
           x="0 359.17599 718.35199 897.29401"
           y="0"
           sodipodi:role="line"
           id="tspan4280">88.8</tspan></text>
</g><g
       id="g4282" /><g
       id="g4284"
       transform="matrix(1.5,0,0,1.5,333.99286,285.2809)"><text
         transform="matrix(1,0,0,-1,11612.824,15113)"
         style="font-variant:normal;font-weight:normal;font-size:646px;font-family:Arial;-inkscape-font-specification:ArialMT;writing-mode:lr-tb;fill:#000000;fill-opacity:1;fill-rule:nonzero;stroke:none"
         id="text4286"><tspan
           x="0 359.17599"
           y="0"
           sodipodi:role="line"
           id="tspan4288">63</tspan></text>
</g><g
       id="g4290" /><g
       id="g4292"
       transform="matrix(1.5,0,0,1.5,333.99286,285.2809)"><text
         transform="matrix(1,0,0,-1,13956.765,18122)"
         style="font-variant:normal;font-weight:normal;font-size:646px;font-family:Arial;-inkscape-font-specification:ArialMT;writing-mode:lr-tb;fill:#000000;fill-opacity:1;fill-rule:nonzero;stroke:none"
         id="text4294"><tspan
           x="0 359.17599 718.35199 897.29401"
           y="0"
           sodipodi:role="line"
           id="tspan4296">83.1</tspan></text>
</g><g
       id="g4298" /><g
       id="g4300"
       transform="matrix(1.5,0,0,1.5,333.99286,285.2809)"><text
         transform="matrix(1,0,0,-1,18320.766,15307)"
         style="font-variant:normal;font-weight:normal;font-size:646px;font-family:Arial;-inkscape-font-specification:ArialMT;writing-mode:lr-tb;fill:#000000;fill-opacity:1;fill-rule:nonzero;stroke:none"
         id="text4302"><tspan
           x="0 359.17599 718.35199 897.29401"
           y="0"
           sodipodi:role="line"
           id="tspan4304">64.3</tspan></text>
</g><g
       id="g4306" /><g
       id="g4308"
       transform="matrix(1.5,0,0,1.5,333.99286,285.2809)"><text
         transform="matrix(1,0,0,-1,20934.766,17329)"
         style="font-variant:normal;font-weight:normal;font-size:646px;font-family:Arial;-inkscape-font-specification:ArialMT;writing-mode:lr-tb;fill:#000000;fill-opacity:1;fill-rule:nonzero;stroke:none"
         id="text4310"><tspan
           x="0 359.17599 718.35199 897.29401"
           y="0"
           sodipodi:role="line"
           id="tspan4312">77.8</tspan></text>
</g><g
       id="g4314" /><g
       id="g4316"
       transform="matrix(1.5,0,0,1.5,333.99286,285.2809)"><text
         transform="matrix(1,0,0,-1,25298.766,10441)"
         style="font-variant:normal;font-weight:normal;font-size:646px;font-family:Arial;-inkscape-font-specification:ArialMT;writing-mode:lr-tb;fill:#000000;fill-opacity:1;fill-rule:nonzero;stroke:none"
         id="text4318"><tspan
           x="0 359.17599 718.35199 897.29401"
           y="0"
           sodipodi:role="line"
           id="tspan4320">31.8</tspan></text>
</g><g
       id="g4322" /><g
       id="g4324"
       transform="matrix(1.5,0,0,1.5,333.99286,285.2809)"><text
         transform="matrix(1,0,0,-1,27912.766,15667)"
         style="font-variant:normal;font-weight:normal;font-size:646px;font-family:Arial;-inkscape-font-specification:ArialMT;writing-mode:lr-tb;fill:#000000;fill-opacity:1;fill-rule:nonzero;stroke:none"
         id="text4326"><tspan
           x="0 359.17599 718.35199 897.29401"
           y="0"
           sodipodi:role="line"
           id="tspan4328">66.7</tspan></text>
</g><g
       id="g4330"
       transform="matrix(1.5,0,0,1.5,333.99286,285.2809)"><text
         transform="matrix(1,0,0,-1,13089,18727)"
         style="font-variant:normal;font-weight:normal;font-size:970px;font-family:Arial;-inkscape-font-specification:ArialMT;writing-mode:lr-tb;fill:#000000;fill-opacity:1;fill-rule:nonzero;stroke:none"
         id="text4332"><tspan
           x="0"
           y="0"
           id="tspan4334">*</tspan></text>
</g><g
       id="g4336"
       transform="matrix(1.5,0,0,1.5,333.99286,285.2809)"><text
         transform="matrix(1,0,0,-1,26950,16151)"
         style="font-variant:normal;font-weight:normal;font-size:970px;font-family:Arial;-inkscape-font-specification:ArialMT;writing-mode:lr-tb;fill:#000000;fill-opacity:1;fill-rule:nonzero;stroke:none"
         id="text4338"><tspan
           x="0 377.32999"
           y="0"
           sodipodi:role="line"
           id="tspan4340">**</tspan></text>
</g><g
       id="g4342"
       transform="matrix(1.5,0,0,1.5,333.99286,285.2809)"><text
         transform="matrix(1,0,0,-1,6441,17655)"
         style="font-variant:normal;font-weight:normal;font-size:646px;font-family:Arial;-inkscape-font-specification:ArialMT;writing-mode:lr-tb;fill:#000000;fill-opacity:1;fill-rule:nonzero;stroke:none"
         id="text4344"><tspan
           x="0 466.41199 645.354 1021.972 1200.9139 1560.09 1919.266"
           y="0"
           sodipodi:role="line"
           id="tspan4346">N = 169</tspan></text>
</g><g
       id="g4348"
       transform="matrix(1.5,0,0,1.5,333.99286,285.2809)"><text
         transform="matrix(1,0,0,-1,3916,17964)"
         style="font-variant:normal;font-weight:normal;font-size:646px;font-family:Arial;-inkscape-font-specification:ArialMT;writing-mode:lr-tb;fill:#000000;fill-opacity:1;fill-rule:nonzero;stroke:none"
         id="text4350"><tspan
           x="0 466.41199 645.354 1021.972 1200.9139 1560.09"
           y="0"
           sodipodi:role="line"
           id="tspan4352">N = 11</tspan></text>
</g><g
       id="g4354"
       transform="matrix(1.5,0,0,1.5,333.99286,285.2809)"><text
         transform="matrix(1,0,0,-1,13346,16830)"
         style="font-variant:normal;font-weight:normal;font-size:646px;font-family:Arial;-inkscape-font-specification:ArialMT;writing-mode:lr-tb;fill:#000000;fill-opacity:1;fill-rule:nonzero;stroke:none"
         id="text4356"><tspan
           x="0 466.41199 645.354 1021.972 1200.9139 1560.09 1919.266"
           y="0"
           sodipodi:role="line"
           id="tspan4358">N = 148</tspan></text>
</g><g
       id="g4360"
       transform="matrix(1.5,0,0,1.5,333.99286,285.2809)"><text
         transform="matrix(1,0,0,-1,10873,13945)"
         style="font-variant:normal;font-weight:normal;font-size:646px;font-family:Arial;-inkscape-font-specification:ArialMT;writing-mode:lr-tb;fill:#000000;fill-opacity:1;fill-rule:nonzero;stroke:none"
         id="text4362"><tspan
           x="0 466.41199 645.354 1021.972 1200.9139 1560.09"
           y="0"
           sodipodi:role="line"
           id="tspan4364">N = 27</tspan></text>
</g><g
       id="g4366"
       transform="matrix(1.5,0,0,1.5,333.99286,285.2809)"><text
         transform="matrix(1,0,0,-1,17829,14048)"
         style="font-variant:normal;font-weight:normal;font-size:646px;font-family:Arial;-inkscape-font-specification:ArialMT;writing-mode:lr-tb;fill:#000000;fill-opacity:1;fill-rule:nonzero;stroke:none"
         id="text4368"><tspan
           x="0 466.41199 645.354 1021.972 1200.9139 1560.09"
           y="0"
           sodipodi:role="line"
           id="tspan4370">N = 14</tspan></text>
</g><g
       id="g4372"
       transform="matrix(1.5,0,0,1.5,333.99286,285.2809)"><text
         transform="matrix(1,0,0,-1,20354,16212)"
         style="font-variant:normal;font-weight:normal;font-size:646px;font-family:Arial;-inkscape-font-specification:ArialMT;writing-mode:lr-tb;fill:#000000;fill-opacity:1;fill-rule:nonzero;stroke:none"
         id="text4374"><tspan
           x="0 466.41199 645.354 1021.972 1200.9139 1560.09 1919.266"
           y="0"
           sodipodi:role="line"
           id="tspan4376">N = 153</tspan></text>
</g><g
       id="g4378"
       transform="matrix(1.5,0,0,1.5,333.99286,285.2809)"><text
         transform="matrix(1,0,0,-1,24889,9204)"
         style="font-variant:normal;font-weight:normal;font-size:646px;font-family:Arial;-inkscape-font-specification:ArialMT;writing-mode:lr-tb;fill:#000000;fill-opacity:1;fill-rule:nonzero;stroke:none"
         id="text4380"><tspan
           x="0 466.41199 645.354 1021.972 1200.9139 1560.09"
           y="0"
           sodipodi:role="line"
           id="tspan4382">N = 22</tspan></text>
</g><g
       id="g4384"
       transform="matrix(1.5,0,0,1.5,333.99286,285.2809)"><text
         transform="matrix(1,0,0,-1,27362,14460)"
         style="font-variant:normal;font-weight:normal;font-size:646px;font-family:Arial;-inkscape-font-specification:ArialMT;writing-mode:lr-tb;fill:#000000;fill-opacity:1;fill-rule:nonzero;stroke:none"
         id="text4386"><tspan
           x="0 466.41199 645.354 1021.972 1200.9139 1560.09 1919.266"
           y="0"
           sodipodi:role="line"
           id="tspan4388">N = 150</tspan></text>
</g><path
       d="m 3858.9928,8173.7809 0,23682.0011"
       style="fill:none;stroke:#000000;stroke-width:69.81599426;stroke-linecap:butt;stroke-linejoin:miter;stroke-miterlimit:10;stroke-dasharray:none;stroke-opacity:1"
       id="path4390"
       inkscape:connector-curvature="0" /><path
       d="m 3858.9928,8173.7809 -484.5,0"
       style="fill:none;stroke:#000000;stroke-width:69.81599426;stroke-linecap:butt;stroke-linejoin:miter;stroke-miterlimit:10;stroke-dasharray:none;stroke-opacity:1"
       id="path4392"
       inkscape:connector-curvature="0" /><g
       id="g4394" /><g
       id="g4396"
       transform="matrix(1.5,0,0,1.5,333.99286,285.2809)"><text
         transform="matrix(0,1,1,0,1623,5034.376)"
         style="font-variant:normal;font-weight:normal;font-size:808px;font-family:Arial;-inkscape-font-specification:ArialMT;writing-mode:lr-tb;fill:#000000;fill-opacity:1;fill-rule:nonzero;stroke:none"
         id="text4398"><tspan
           x="0"
           y="0"
           id="tspan4400">0</tspan></text>
</g><path
       d="m 3858.9928,12666.282 -484.5,0"
       style="fill:none;stroke:#000000;stroke-width:69.81599426;stroke-linecap:butt;stroke-linejoin:miter;stroke-miterlimit:10;stroke-dasharray:none;stroke-opacity:1"
       id="path4402"
       inkscape:connector-curvature="0" /><g
       id="g4404" /><g
       id="g4406"
       transform="matrix(1.5,0,0,1.5,333.99286,285.2809)"><text
         transform="matrix(0,1,1,0,1623,7804.7519)"
         style="font-variant:normal;font-weight:normal;font-size:808px;font-family:Arial;-inkscape-font-specification:ArialMT;writing-mode:lr-tb;fill:#000000;fill-opacity:1;fill-rule:nonzero;stroke:none"
         id="text4408"><tspan
           x="0 449.24799"
           y="0"
           sodipodi:role="line"
           id="tspan4410">20</tspan></text>
</g><path
       d="m 3858.9928,17158.782 -484.5,0"
       style="fill:none;stroke:#000000;stroke-width:69.81599426;stroke-linecap:butt;stroke-linejoin:miter;stroke-miterlimit:10;stroke-dasharray:none;stroke-opacity:1"
       id="path4412"
       inkscape:connector-curvature="0" /><g
       id="g4414" /><g
       id="g4416"
       transform="matrix(1.5,0,0,1.5,333.99286,285.2809)"><text
         transform="matrix(0,1,1,0,1623,10799.752)"
         style="font-variant:normal;font-weight:normal;font-size:808px;font-family:Arial;-inkscape-font-specification:ArialMT;writing-mode:lr-tb;fill:#000000;fill-opacity:1;fill-rule:nonzero;stroke:none"
         id="text4418"><tspan
           x="0 449.24799"
           y="0"
           sodipodi:role="line"
           id="tspan4420">40</tspan></text>
</g><path
       d="m 3858.9928,21649.782 -484.5,0"
       style="fill:none;stroke:#000000;stroke-width:69.81599426;stroke-linecap:butt;stroke-linejoin:miter;stroke-miterlimit:10;stroke-dasharray:none;stroke-opacity:1"
       id="path4422"
       inkscape:connector-curvature="0" /><g
       id="g4424" /><g
       id="g4426"
       transform="matrix(1.5,0,0,1.5,333.99286,285.2809)"><text
         transform="matrix(0,1,1,0,1623,13793.752)"
         style="font-variant:normal;font-weight:normal;font-size:808px;font-family:Arial;-inkscape-font-specification:ArialMT;writing-mode:lr-tb;fill:#000000;fill-opacity:1;fill-rule:nonzero;stroke:none"
         id="text4428"><tspan
           x="0 449.24799"
           y="0"
           sodipodi:role="line"
           id="tspan4430">60</tspan></text>
</g><path
       d="m 3858.9928,26142.282 -484.5,0"
       style="fill:none;stroke:#000000;stroke-width:69.81599426;stroke-linecap:butt;stroke-linejoin:miter;stroke-miterlimit:10;stroke-dasharray:none;stroke-opacity:1"
       id="path4432"
       inkscape:connector-curvature="0" /><g
       id="g4434" /><g
       id="g4436"
       transform="matrix(1.5,0,0,1.5,333.99286,285.2809)"><text
         transform="matrix(0,1,1,0,1623,16788.752)"
         style="font-variant:normal;font-weight:normal;font-size:808px;font-family:Arial;-inkscape-font-specification:ArialMT;writing-mode:lr-tb;fill:#000000;fill-opacity:1;fill-rule:nonzero;stroke:none"
         id="text4438"><tspan
           x="0 449.24799"
           y="0"
           sodipodi:role="line"
           id="tspan4440">80</tspan></text>
</g><path
       d="m 3858.9928,30633.282 -484.5,0"
       style="fill:none;stroke:#000000;stroke-width:69.81599426;stroke-linecap:butt;stroke-linejoin:miter;stroke-miterlimit:10;stroke-dasharray:none;stroke-opacity:1"
       id="path4442"
       inkscape:connector-curvature="0" /><g
       id="g4444" /><g
       id="g4446"
       transform="matrix(1.5,0,0,1.5,333.99286,285.2809)"><text
         transform="matrix(0,1,1,0,1623,19558.129)"
         style="font-variant:normal;font-weight:normal;font-size:808px;font-family:Arial;-inkscape-font-specification:ArialMT;writing-mode:lr-tb;fill:#000000;fill-opacity:1;fill-rule:nonzero;stroke:none"
         id="text4448"><tspan
           x="0 449.24799 898.49597"
           y="0"
           sodipodi:role="line"
           id="tspan4450">100</tspan></text>
</g><path
       d="m 3858.9928,8173.7809 43251.0012,0"
       style="fill:none;stroke:#000000;stroke-width:69.81599426;stroke-linecap:butt;stroke-linejoin:miter;stroke-miterlimit:10;stroke-dasharray:none;stroke-opacity:1"
       id="path4452"
       inkscape:connector-curvature="0" /><g
       id="g4454" /><g
       id="g4456"
       transform="matrix(1.5,0,0,1.5,333.99286,285.2809)"><text
         transform="matrix(1,0,0,-1,4594.7158,4370)"
         style="font-variant:normal;font-weight:normal;font-size:808px;font-family:Arial;-inkscape-font-specification:ArialMT;writing-mode:lr-tb;fill:#000000;fill-opacity:1;fill-rule:nonzero;stroke:none"
         id="text4458"><tspan
           x="0 627.81598 1077.064 1526.312 1795.376 2019.192 2468.4399 2737.5039 2961.3201"
           y="0"
           sodipodi:role="line"
           id="tspan4460">Quarter 1</tspan></text>
</g><g
       id="g4462" /><g
       id="g4464"
       transform="matrix(1.5,0,0,1.5,333.99286,285.2809)"><text
         transform="matrix(1,0,0,-1,11572.716,4370)"
         style="font-variant:normal;font-weight:normal;font-size:808px;font-family:Arial;-inkscape-font-specification:ArialMT;writing-mode:lr-tb;fill:#000000;fill-opacity:1;fill-rule:nonzero;stroke:none"
         id="text4466"><tspan
           x="0 627.81598 1077.064 1526.312 1795.376 2019.192 2468.4399 2737.5039 2961.3201"
           y="0"
           sodipodi:role="line"
           id="tspan4468">Quarter 2</tspan></text>
</g><g
       id="g4470" /><g
       id="g4472"
       transform="matrix(1.5,0,0,1.5,333.99286,285.2809)"><text
         transform="matrix(1,0,0,-1,18550.717,4370)"
         style="font-variant:normal;font-weight:normal;font-size:808px;font-family:Arial;-inkscape-font-specification:ArialMT;writing-mode:lr-tb;fill:#000000;fill-opacity:1;fill-rule:nonzero;stroke:none"
         id="text4474"><tspan
           x="0 627.81598 1077.064 1526.312 1795.376 2019.192 2468.4399 2737.5039 2961.3201"
           y="0"
           sodipodi:role="line"
           id="tspan4476">Quarter 3</tspan></text>
</g><g
       id="g4478" /><g
       id="g4480"
       transform="matrix(1.5,0,0,1.5,333.99286,285.2809)"><text
         transform="matrix(1,0,0,-1,25528.717,4370)"
         style="font-variant:normal;font-weight:normal;font-size:808px;font-family:Arial;-inkscape-font-specification:ArialMT;writing-mode:lr-tb;fill:#000000;fill-opacity:1;fill-rule:nonzero;stroke:none"
         id="text4482"><tspan
           x="0 627.81598 1077.064 1526.312 1795.376 2019.192 2468.4399 2737.5039 2961.3201"
           y="0"
           sodipodi:role="line"
           id="tspan4484">Quarter 4</tspan></text>
</g><g
       id="g4486" /><g
       id="g4488"
       transform="matrix(1.5,0,0,1.5,333.99286,285.2809)"><text
         transform="matrix(1,0,0,-1,7052.7217,21732)"
         style="font-variant:normal;font-weight:normal;font-size:1131px;font-family:Arial;-inkscape-font-specification:ArialMT;writing-mode:lr-tb;fill:#000000;fill-opacity:1;fill-rule:nonzero;stroke:none"
         id="text4490"><tspan
           x="0 753.24597 1382.082 1758.705 2324.2051 2953.041 3581.877 3895.1641 4208.4512 4585.0742 5213.9102 5527.1968 6156.0332 6407.1152 7035.9512 7664.7871 8293.623 8606.9102 9235.7461 9864.582 10177.869 10806.705 11435.541 12064.377 12441 13069.836 13698.672 14327.508 14704.131 15332.967 15961.803 16212.885 16841.721"
           y="0"
           sodipodi:role="line"
           id="tspan4492">Percent retained on buprenorphine</tspan></text>
</g><path
       d="m 7445.4928,1926.2809 36078.0012,0 0,3889.5 -36078.0012,0 0,-3889.5 z"
       style="fill:#ffffff;fill-opacity:1;fill-rule:nonzero;stroke:#000000;stroke-width:69.81599426;stroke-linecap:butt;stroke-linejoin:miter;stroke-miterlimit:10;stroke-dasharray:none;stroke-opacity:1"
       id="path4494"
       inkscape:connector-curvature="0" /><path
       d="m 17478.994,2449.7809 4539,0 0,1212 -4539,0 0,-1212 z"
       style="fill:#add8e6;fill-opacity:1;fill-rule:nonzero;stroke:#1a476f;stroke-width:14.54500389;stroke-linecap:butt;stroke-linejoin:miter;stroke-miterlimit:10;stroke-dasharray:none;stroke-opacity:1"
       id="path4496"
       inkscape:connector-curvature="0" /><path
       d="m 26598.994,2449.7809 4537.5,0 0,1212 -4537.5,0 0,-1212 z"
       style="fill:#938dd2;fill-opacity:1;fill-rule:nonzero;stroke:#000000;stroke-width:14.54500389;stroke-linecap:butt;stroke-linejoin:miter;stroke-miterlimit:10;stroke-dasharray:none;stroke-opacity:1"
       id="path4498"
       inkscape:connector-curvature="0" /><g
       id="g4500"
       transform="matrix(1.5,0,0,1.5,333.99286,285.2809)"><text
         transform="matrix(1,0,0,-1,14941,1564)"
         style="font-variant:normal;font-weight:normal;font-size:808px;font-family:Arial;-inkscape-font-specification:ArialMT;writing-mode:lr-tb;fill:#000000;fill-opacity:1;fill-rule:nonzero;stroke:none"
         id="text4502"><tspan
           x="0 538.12799 987.37598"
           y="0"
           sodipodi:role="line"
           id="tspan4504">Yes</tspan></text>
</g><g
       id="g4506"
       transform="matrix(1.5,0,0,1.5,333.99286,285.2809)"><text
         transform="matrix(1,0,0,-1,21020,1564)"
         style="font-variant:normal;font-weight:normal;font-size:808px;font-family:Arial;-inkscape-font-specification:ArialMT;writing-mode:lr-tb;fill:#000000;fill-opacity:1;fill-rule:nonzero;stroke:none"
         id="text4508"><tspan
           x="0 583.37598"
           y="0"
           sodipodi:role="line"
           id="tspan4510">No</tspan></text>
</g><g
       id="g4512" /><g
       id="g4514"
       transform="matrix(1.5,0,0,1.5,333.99286,285.2809)"><text
         transform="matrix(1,0,0,-1,5568.5244,2702)"
         style="font-variant:normal;font-weight:normal;font-size:808px;font-family:Arial;-inkscape-font-specification:ArialMT;writing-mode:lr-tb;fill:#000000;fill-opacity:1;fill-rule:nonzero;stroke:none"
         id="text4516"><tspan
           x="0 538.12799 987.37598 1436.624 1616 2065.248 2469.248 2693.064 2916.8799 3500.2561 3949.5039 4353.5039 4577.3198 4756.6958 5205.9438 5609.9438 6059.1919 6328.2559 6732.2559 7181.5039 7450.5679 7899.8159 8123.6318 8572.8799 9022.1279 9245.9443 9425.3203 9874.5684 10098.384 10547.632 10996.88 11220.696 11669.944 12119.192 12523.192 12927.192 13151.008 13600.256 14049.504 14273.32 14722.568 14991.632 15440.88 15664.696 16113.944 16563.191 16967.191 17416.439 17640.256 18089.504 18538.752 18988 19257.064 19480.881 19930.129 20199.191 20378.568 20782.568 21006.385 21410.385 21589.76 21993.76 22173.137"
           y="0"
           sodipodi:role="line"
           id="tspan4518">Subject was incarcerated in 30 days before each quarterly visit</tspan></text>
</g></g></svg>