<?xml version="1.0" encoding="UTF-8" standalone="no"?>
<!-- Created with Inkscape (http://www.inkscape.org/) -->

<svg
   xmlns:dc="http://purl.org/dc/elements/1.1/"
   xmlns:cc="http://creativecommons.org/ns#"
   xmlns:rdf="http://www.w3.org/1999/02/22-rdf-syntax-ns#"
   xmlns:svg="http://www.w3.org/2000/svg"
   xmlns="http://www.w3.org/2000/svg"
   xmlns:sodipodi="http://sodipodi.sourceforge.net/DTD/sodipodi-0.dtd"
   xmlns:inkscape="http://www.inkscape.org/namespaces/inkscape"
   id="svg3336"
   version="1.1"
   inkscape:version="0.91 r13725"
   xml:space="preserve"
   width="743.85718"
   height="541.28168"
   viewBox="0 0 743.85718 541.28168"
   sodipodi:docname="retention_by_baseline_parole.svg"><metadata
     id="metadata3342"><rdf:RDF><cc:Work
         rdf:about=""><dc:format>image/svg+xml</dc:format><dc:type
           rdf:resource="http://purl.org/dc/dcmitype/StillImage" /><dc:title></dc:title></cc:Work></rdf:RDF></metadata><defs
     id="defs3340" /><sodipodi:namedview
     pagecolor="#ffffff"
     bordercolor="#666666"
     borderopacity="1"
     objecttolerance="10"
     gridtolerance="10"
     guidetolerance="10"
     inkscape:pageopacity="0"
     inkscape:pageshadow="2"
     inkscape:window-width="1366"
     inkscape:window-height="706"
     id="namedview3338"
     showgrid="false"
     fit-margin-top="0"
     fit-margin-left="0"
     fit-margin-right="0"
     fit-margin-bottom="0"
     inkscape:zoom="0.52738381"
     inkscape:cx="590.00585"
     inkscape:cy="197.60265"
     inkscape:window-x="-8"
     inkscape:window-y="-8"
     inkscape:window-maximized="1"
     inkscape:current-layer="g3344" /><g
     id="g3344"
     inkscape:groupmode="layer"
     inkscape:label="retention_by_baseline_parole"
     transform="matrix(0.015475,0,0,-0.015475,124.33633,450.70795)"><path
       d="m -7999.75,-5818 47998.5,0 0,34908 -47998.5,0 0,-34908 z"
       style="fill:#eaf2f3;fill-opacity:1;fill-rule:nonzero;stroke:#eaf2f3;stroke-width:69.81599426;stroke-linecap:butt;stroke-linejoin:miter;stroke-miterlimit:10;stroke-dasharray:none;stroke-opacity:1"
       id="path3346"
       inkscape:connector-curvature="0" /><path
       d="m -4474.75,2070.5 43251,0 0,23682 -43251,0 0,-23682 z"
       style="fill:#ffffff;fill-opacity:1;fill-rule:nonzero;stroke:#ffffff;stroke-width:69.81599426;stroke-linecap:butt;stroke-linejoin:miter;stroke-miterlimit:10;stroke-dasharray:none;stroke-opacity:1"
       id="path3348"
       inkscape:connector-curvature="0" /><path
       d="m -4474.75,2070.5 43251,0"
       style="fill:none;stroke:#eaf2f3;stroke-width:104.72399902;stroke-linecap:butt;stroke-linejoin:miter;stroke-miterlimit:10;stroke-dasharray:none;stroke-opacity:1"
       id="path3350"
       inkscape:connector-curvature="0" /><path
       d="m -4474.75,6563 43251,0"
       style="fill:none;stroke:#eaf2f3;stroke-width:104.72399902;stroke-linecap:butt;stroke-linejoin:miter;stroke-miterlimit:10;stroke-dasharray:none;stroke-opacity:1"
       id="path3352"
       inkscape:connector-curvature="0" /><path
       d="m -4474.75,11055.5 43251,0"
       style="fill:none;stroke:#eaf2f3;stroke-width:104.72399902;stroke-linecap:butt;stroke-linejoin:miter;stroke-miterlimit:10;stroke-dasharray:none;stroke-opacity:1"
       id="path3354"
       inkscape:connector-curvature="0" /><path
       d="m -4474.75,15546.5 43251,0"
       style="fill:none;stroke:#eaf2f3;stroke-width:104.72399902;stroke-linecap:butt;stroke-linejoin:miter;stroke-miterlimit:10;stroke-dasharray:none;stroke-opacity:1"
       id="path3356"
       inkscape:connector-curvature="0" /><path
       d="m -4474.75,20039 43251,0"
       style="fill:none;stroke:#eaf2f3;stroke-width:104.72399902;stroke-linecap:butt;stroke-linejoin:miter;stroke-miterlimit:10;stroke-dasharray:none;stroke-opacity:1"
       id="path3358"
       inkscape:connector-curvature="0" /><path
       d="m -4474.75,24530 43251,0"
       style="fill:none;stroke:#eaf2f3;stroke-width:104.72399902;stroke-linecap:butt;stroke-linejoin:miter;stroke-miterlimit:10;stroke-dasharray:none;stroke-opacity:1"
       id="path3360"
       inkscape:connector-curvature="0" /><path
       d="m -2469.25,2070.5 3919.5,0 0,15138 -3919.5,0 0,-15138 z"
       style="fill:#add8e6;fill-opacity:1;fill-rule:nonzero;stroke:#1a476f;stroke-width:14.54500389;stroke-linecap:butt;stroke-linejoin:miter;stroke-miterlimit:10;stroke-dasharray:none;stroke-opacity:1"
       id="path3362"
       inkscape:connector-curvature="0" /><path
       d="m 1450.25,2070.5 3921,0 0,17362.5 -3921,0 0,-17362.5 z"
       style="fill:#938dd2;fill-opacity:1;fill-rule:nonzero;stroke:#000000;stroke-width:14.54500389;stroke-linecap:butt;stroke-linejoin:miter;stroke-miterlimit:10;stroke-dasharray:none;stroke-opacity:1"
       id="path3364"
       inkscape:connector-curvature="0" /><path
       d="m 7997.75,2070.5 3919.5,0 0,12870 -3919.5,0 0,-12870 z"
       style="fill:#add8e6;fill-opacity:1;fill-rule:nonzero;stroke:#1a476f;stroke-width:14.54500389;stroke-linecap:butt;stroke-linejoin:miter;stroke-miterlimit:10;stroke-dasharray:none;stroke-opacity:1"
       id="path3366"
       inkscape:connector-curvature="0" /><path
       d="m 11917.25,2070.5 3921,0 0,15811.5 -3921,0 0,-15811.5 z"
       style="fill:#938dd2;fill-opacity:1;fill-rule:nonzero;stroke:#000000;stroke-width:14.54500389;stroke-linecap:butt;stroke-linejoin:miter;stroke-miterlimit:10;stroke-dasharray:none;stroke-opacity:1"
       id="path3368"
       inkscape:connector-curvature="0" /><path
       d="m 18464.75,2070.5 3919.5,0 0,10602 -3919.5,0 0,-10602 z"
       style="fill:#add8e6;fill-opacity:1;fill-rule:nonzero;stroke:#1a476f;stroke-width:14.54500389;stroke-linecap:butt;stroke-linejoin:miter;stroke-miterlimit:10;stroke-dasharray:none;stroke-opacity:1"
       id="path3370"
       inkscape:connector-curvature="0" /><path
       d="m 22384.25,2070.5 3919.5,0 0,14038.5 -3919.5,0 0,-14038.5 z"
       style="fill:#938dd2;fill-opacity:1;fill-rule:nonzero;stroke:#000000;stroke-width:14.54500389;stroke-linecap:butt;stroke-linejoin:miter;stroke-miterlimit:10;stroke-dasharray:none;stroke-opacity:1"
       id="path3372"
       inkscape:connector-curvature="0" /><path
       d="m 28930.25,2070.5 3921,0 0,9096 -3921,0 0,-9096 z"
       style="fill:#add8e6;fill-opacity:1;fill-rule:nonzero;stroke:#1a476f;stroke-width:14.54500389;stroke-linecap:butt;stroke-linejoin:miter;stroke-miterlimit:10;stroke-dasharray:none;stroke-opacity:1"
       id="path3374"
       inkscape:connector-curvature="0" /><path
       d="m 32851.25,2070.5 3919.5,0 0,11545.5 -3919.5,0 0,-11545.5 z"
       style="fill:#938dd2;fill-opacity:1;fill-rule:nonzero;stroke:#000000;stroke-width:14.54500389;stroke-linecap:butt;stroke-linejoin:miter;stroke-miterlimit:10;stroke-dasharray:none;stroke-opacity:1"
       id="path3376"
       inkscape:connector-curvature="0" /><g
       id="g3378" /><g
       id="g3380"
       transform="matrix(1.5,0,0,1.5,-7999.75,-5818)"><text
         transform="matrix(1,0,0,-1,4365.7651,15771)"
         style="font-variant:normal;font-weight:normal;font-size:646px;font-family:Arial;-inkscape-font-specification:ArialMT;writing-mode:lr-tb;fill:#000000;fill-opacity:1;fill-rule:nonzero;stroke:none"
         id="text3382"><tspan
           x="0 359.17599 718.35199 897.29401"
           y="0"
           sodipodi:role="line"
           id="tspan3384">67.4</tspan></text>
</g><g
       id="g3386" /><g
       id="g3388"
       transform="matrix(1.5,0,0,1.5,-7999.75,-5818)"><text
         transform="matrix(1,0,0,-1,6978.7651,17254)"
         style="font-variant:normal;font-weight:normal;font-size:646px;font-family:Arial;-inkscape-font-specification:ArialMT;writing-mode:lr-tb;fill:#000000;fill-opacity:1;fill-rule:nonzero;stroke:none"
         id="text3390"><tspan
           x="0 359.17599 718.35199 897.29401"
           y="0"
           sodipodi:role="line"
           id="tspan3392">77.3</tspan></text>
</g><g
       id="g3394" /><g
       id="g3396"
       transform="matrix(1.5,0,0,1.5,-7999.75,-5818)"><text
         transform="matrix(1,0,0,-1,11343.765,14259)"
         style="font-variant:normal;font-weight:normal;font-size:646px;font-family:Arial;-inkscape-font-specification:ArialMT;writing-mode:lr-tb;fill:#000000;fill-opacity:1;fill-rule:nonzero;stroke:none"
         id="text3398"><tspan
           x="0 359.17599 718.35199 897.29401"
           y="0"
           sodipodi:role="line"
           id="tspan3400">57.3</tspan></text>
</g><g
       id="g3402" /><g
       id="g3404"
       transform="matrix(1.5,0,0,1.5,-7999.75,-5818)"><text
         transform="matrix(1,0,0,-1,13956.765,16221)"
         style="font-variant:normal;font-weight:normal;font-size:646px;font-family:Arial;-inkscape-font-specification:ArialMT;writing-mode:lr-tb;fill:#000000;fill-opacity:1;fill-rule:nonzero;stroke:none"
         id="text3406"><tspan
           x="0 359.17599 718.35199 897.29401"
           y="0"
           sodipodi:role="line"
           id="tspan3408">70.4</tspan></text>
</g><g
       id="g3410" /><g
       id="g3412"
       transform="matrix(1.5,0,0,1.5,-7999.75,-5818)"><text
         transform="matrix(1,0,0,-1,18320.766,12747)"
         style="font-variant:normal;font-weight:normal;font-size:646px;font-family:Arial;-inkscape-font-specification:ArialMT;writing-mode:lr-tb;fill:#000000;fill-opacity:1;fill-rule:nonzero;stroke:none"
         id="text3414"><tspan
           x="0 359.17599 718.35199 897.29401"
           y="0"
           sodipodi:role="line"
           id="tspan3416">47.2</tspan></text>
</g><g
       id="g3418" /><g
       id="g3420"
       transform="matrix(1.5,0,0,1.5,-7999.75,-5818)"><text
         transform="matrix(1,0,0,-1,20934.766,15038)"
         style="font-variant:normal;font-weight:normal;font-size:646px;font-family:Arial;-inkscape-font-specification:ArialMT;writing-mode:lr-tb;fill:#000000;fill-opacity:1;fill-rule:nonzero;stroke:none"
         id="text3422"><tspan
           x="0 359.17599 718.35199 897.29401"
           y="0"
           sodipodi:role="line"
           id="tspan3424">62.5</tspan></text>
</g><g
       id="g3426" /><g
       id="g3428"
       transform="matrix(1.5,0,0,1.5,-7999.75,-5818)"><text
         transform="matrix(1,0,0,-1,25298.766,11744)"
         style="font-variant:normal;font-weight:normal;font-size:646px;font-family:Arial;-inkscape-font-specification:ArialMT;writing-mode:lr-tb;fill:#000000;fill-opacity:1;fill-rule:nonzero;stroke:none"
         id="text3430"><tspan
           x="0 359.17599 718.35199 897.29401"
           y="0"
           sodipodi:role="line"
           id="tspan3432">40.5</tspan></text>
</g><g
       id="g3434" /><g
       id="g3436"
       transform="matrix(1.5,0,0,1.5,-7999.75,-5818)"><text
         transform="matrix(1,0,0,-1,27912.766,13376)"
         style="font-variant:normal;font-weight:normal;font-size:646px;font-family:Arial;-inkscape-font-specification:ArialMT;writing-mode:lr-tb;fill:#000000;fill-opacity:1;fill-rule:nonzero;stroke:none"
         id="text3438"><tspan
           x="0 359.17599 718.35199 897.29401"
           y="0"
           sodipodi:role="line"
           id="tspan3440">51.4</tspan></text>
</g><g
       id="g3442"
       transform="matrix(1.5,0,0,1.5,-7999.75,-5818)"><text
         transform="matrix(1,0,0,-1,13037,16975)"
         style="font-variant:normal;font-weight:normal;font-size:970px;font-family:Arial;-inkscape-font-specification:ArialMT;writing-mode:lr-tb;fill:#000000;fill-opacity:1;fill-rule:nonzero;stroke:none"
         id="text3444"><tspan
           x="0"
           y="0"
           id="tspan3446">*</tspan></text>
</g><g
       id="g3448"
       transform="matrix(1.5,0,0,1.5,-7999.75,-5818)"><text
         transform="matrix(1,0,0,-1,19942,15687)"
         style="font-variant:normal;font-weight:normal;font-size:970px;font-family:Arial;-inkscape-font-specification:ArialMT;writing-mode:lr-tb;fill:#000000;fill-opacity:1;fill-rule:nonzero;stroke:none"
         id="text3450"><tspan
           x="0"
           y="0"
           id="tspan3452">*</tspan></text>
</g><g
       id="g3454"
       transform="matrix(1.5,0,0,1.5,-7999.75,-5818)"><text
         transform="matrix(1,0,0,-1,6419,16193)"
         style="font-variant:normal;font-weight:normal;font-size:646px;font-family:Arial;-inkscape-font-specification:ArialMT;writing-mode:lr-tb;fill:#000000;fill-opacity:1;fill-rule:nonzero;stroke:none"
         id="text3456"><tspan
           x="0 359.17599 538.11798 914.73602 1093.678 1452.854 1812.03"
           y="0"
           sodipodi:role="line"
           id="tspan3458">n = 167</tspan></text>
</g><g
       id="g3460"
       transform="matrix(1.5,0,0,1.5,-7999.75,-5818)"><text
         transform="matrix(1,0,0,-1,3953,14704)"
         style="font-variant:normal;font-weight:normal;font-size:646px;font-family:Arial;-inkscape-font-specification:ArialMT;writing-mode:lr-tb;fill:#000000;fill-opacity:1;fill-rule:nonzero;stroke:none"
         id="text3462"><tspan
           x="0 359.17599 538.11798 914.73602 1093.678 1452.854"
           y="0"
           sodipodi:role="line"
           id="tspan3464">n = 60</tspan></text>
</g><g
       id="g3466"
       transform="matrix(1.5,0,0,1.5,-7999.75,-5818)"><text
         transform="matrix(1,0,0,-1,10977,13123)"
         style="font-variant:normal;font-weight:normal;font-size:646px;font-family:Arial;-inkscape-font-specification:ArialMT;writing-mode:lr-tb;fill:#000000;fill-opacity:1;fill-rule:nonzero;stroke:none"
         id="text3468"><tspan
           x="0 359.17599 538.11798 914.73602 1093.678 1452.854"
           y="0"
           sodipodi:role="line"
           id="tspan3470">n = 51</tspan></text>
</g><g
       id="g3472"
       transform="matrix(1.5,0,0,1.5,-7999.75,-5818)"><text
         transform="matrix(1,0,0,-1,13442,15076)"
         style="font-variant:normal;font-weight:normal;font-size:646px;font-family:Arial;-inkscape-font-specification:ArialMT;writing-mode:lr-tb;fill:#000000;fill-opacity:1;fill-rule:nonzero;stroke:none"
         id="text3474"><tspan
           x="0 359.17599 538.11798 914.73602 1093.678 1452.854 1812.03"
           y="0"
           sodipodi:role="line"
           id="tspan3476">n = 152</tspan></text>
</g><g
       id="g3478"
       transform="matrix(1.5,0,0,1.5,-7999.75,-5818)"><text
         transform="matrix(1,0,0,-1,20465,13914)"
         style="font-variant:normal;font-weight:normal;font-size:646px;font-family:Arial;-inkscape-font-specification:ArialMT;writing-mode:lr-tb;fill:#000000;fill-opacity:1;fill-rule:nonzero;stroke:none"
         id="text3480"><tspan
           x="0 359.17599 538.11798 914.73602 1093.678 1452.854 1812.03"
           y="0"
           sodipodi:role="line"
           id="tspan3482">n = 135</tspan></text>
</g><g
       id="g3484"
       transform="matrix(1.5,0,0,1.5,-7999.75,-5818)"><text
         transform="matrix(1,0,0,-1,17953,11681)"
         style="font-variant:normal;font-weight:normal;font-size:646px;font-family:Arial;-inkscape-font-specification:ArialMT;writing-mode:lr-tb;fill:#000000;fill-opacity:1;fill-rule:nonzero;stroke:none"
         id="text3486"><tspan
           x="0 359.17599 538.11798 914.73602 1093.678 1452.854"
           y="0"
           sodipodi:role="line"
           id="tspan3488">n = 42</tspan></text>
</g><g
       id="g3490"
       transform="matrix(1.5,0,0,1.5,-7999.75,-5818)"><text
         transform="matrix(1,0,0,-1,27442,12239)"
         style="font-variant:normal;font-weight:normal;font-size:646px;font-family:Arial;-inkscape-font-specification:ArialMT;writing-mode:lr-tb;fill:#000000;fill-opacity:1;fill-rule:nonzero;stroke:none"
         id="text3492"><tspan
           x="0 359.17599 538.11798 914.73602 1093.678 1452.854 1812.03"
           y="0"
           sodipodi:role="line"
           id="tspan3494">n = 111</tspan></text>
</g><g
       id="g3496"
       transform="matrix(1.5,0,0,1.5,-7999.75,-5818)"><text
         transform="matrix(1,0,0,-1,24930,10658)"
         style="font-variant:normal;font-weight:normal;font-size:646px;font-family:Arial;-inkscape-font-specification:ArialMT;writing-mode:lr-tb;fill:#000000;fill-opacity:1;fill-rule:nonzero;stroke:none"
         id="text3498"><tspan
           x="0 359.17599 538.11798 914.73602 1093.678 1452.854"
           y="0"
           sodipodi:role="line"
           id="tspan3500">n = 36</tspan></text>
</g><path
       d="m -4474.75,2070.5 0,23682"
       style="fill:none;stroke:#000000;stroke-width:69.81599426;stroke-linecap:butt;stroke-linejoin:miter;stroke-miterlimit:10;stroke-dasharray:none;stroke-opacity:1"
       id="path3502"
       inkscape:connector-curvature="0" /><path
       d="m -4474.75,2070.5 -484.5,0"
       style="fill:none;stroke:#000000;stroke-width:69.81599426;stroke-linecap:butt;stroke-linejoin:miter;stroke-miterlimit:10;stroke-dasharray:none;stroke-opacity:1"
       id="path3504"
       inkscape:connector-curvature="0" /><g
       id="g3506" /><g
       id="g3508"
       transform="matrix(1.5,0,0,1.5,-7999.75,-5818)"><text
         transform="matrix(0,1,1,0,1623,5034.376)"
         style="font-variant:normal;font-weight:normal;font-size:808px;font-family:Arial;-inkscape-font-specification:ArialMT;writing-mode:lr-tb;fill:#000000;fill-opacity:1;fill-rule:nonzero;stroke:none"
         id="text3510"><tspan
           x="0"
           y="0"
           id="tspan3512">0</tspan></text>
</g><path
       d="m -4474.75,6563 -484.5,0"
       style="fill:none;stroke:#000000;stroke-width:69.81599426;stroke-linecap:butt;stroke-linejoin:miter;stroke-miterlimit:10;stroke-dasharray:none;stroke-opacity:1"
       id="path3514"
       inkscape:connector-curvature="0" /><g
       id="g3516" /><g
       id="g3518"
       transform="matrix(1.5,0,0,1.5,-7999.75,-5818)"><text
         transform="matrix(0,1,1,0,1623,7804.7519)"
         style="font-variant:normal;font-weight:normal;font-size:808px;font-family:Arial;-inkscape-font-specification:ArialMT;writing-mode:lr-tb;fill:#000000;fill-opacity:1;fill-rule:nonzero;stroke:none"
         id="text3520"><tspan
           x="0 449.24799"
           y="0"
           sodipodi:role="line"
           id="tspan3522">20</tspan></text>
</g><path
       d="m -4474.75,11055.5 -484.5,0"
       style="fill:none;stroke:#000000;stroke-width:69.81599426;stroke-linecap:butt;stroke-linejoin:miter;stroke-miterlimit:10;stroke-dasharray:none;stroke-opacity:1"
       id="path3524"
       inkscape:connector-curvature="0" /><g
       id="g3526" /><g
       id="g3528"
       transform="matrix(1.5,0,0,1.5,-7999.75,-5818)"><text
         transform="matrix(0,1,1,0,1623,10799.752)"
         style="font-variant:normal;font-weight:normal;font-size:808px;font-family:Arial;-inkscape-font-specification:ArialMT;writing-mode:lr-tb;fill:#000000;fill-opacity:1;fill-rule:nonzero;stroke:none"
         id="text3530"><tspan
           x="0 449.24799"
           y="0"
           sodipodi:role="line"
           id="tspan3532">40</tspan></text>
</g><path
       d="m -4474.75,15546.5 -484.5,0"
       style="fill:none;stroke:#000000;stroke-width:69.81599426;stroke-linecap:butt;stroke-linejoin:miter;stroke-miterlimit:10;stroke-dasharray:none;stroke-opacity:1"
       id="path3534"
       inkscape:connector-curvature="0" /><g
       id="g3536" /><g
       id="g3538"
       transform="matrix(1.5,0,0,1.5,-7999.75,-5818)"><text
         transform="matrix(0,1,1,0,1623,13793.752)"
         style="font-variant:normal;font-weight:normal;font-size:808px;font-family:Arial;-inkscape-font-specification:ArialMT;writing-mode:lr-tb;fill:#000000;fill-opacity:1;fill-rule:nonzero;stroke:none"
         id="text3540"><tspan
           x="0 449.24799"
           y="0"
           sodipodi:role="line"
           id="tspan3542">60</tspan></text>
</g><path
       d="m -4474.75,20039 -484.5,0"
       style="fill:none;stroke:#000000;stroke-width:69.81599426;stroke-linecap:butt;stroke-linejoin:miter;stroke-miterlimit:10;stroke-dasharray:none;stroke-opacity:1"
       id="path3544"
       inkscape:connector-curvature="0" /><g
       id="g3546" /><g
       id="g3548"
       transform="matrix(1.5,0,0,1.5,-7999.75,-5818)"><text
         transform="matrix(0,1,1,0,1623,16788.752)"
         style="font-variant:normal;font-weight:normal;font-size:808px;font-family:Arial;-inkscape-font-specification:ArialMT;writing-mode:lr-tb;fill:#000000;fill-opacity:1;fill-rule:nonzero;stroke:none"
         id="text3550"><tspan
           x="0 449.24799"
           y="0"
           sodipodi:role="line"
           id="tspan3552">80</tspan></text>
</g><path
       d="m -4474.75,24530 -484.5,0"
       style="fill:none;stroke:#000000;stroke-width:69.81599426;stroke-linecap:butt;stroke-linejoin:miter;stroke-miterlimit:10;stroke-dasharray:none;stroke-opacity:1"
       id="path3554"
       inkscape:connector-curvature="0" /><g
       id="g3556" /><g
       id="g3558"
       transform="matrix(1.5,0,0,1.5,-7999.75,-5818)"><text
         transform="matrix(0,1,1,0,1623,19558.129)"
         style="font-variant:normal;font-weight:normal;font-size:808px;font-family:Arial;-inkscape-font-specification:ArialMT;writing-mode:lr-tb;fill:#000000;fill-opacity:1;fill-rule:nonzero;stroke:none"
         id="text3560"><tspan
           x="0 449.24799 898.49597"
           y="0"
           sodipodi:role="line"
           id="tspan3562">100</tspan></text>
</g><path
       d="m -4474.75,2070.5 43251,0"
       style="fill:none;stroke:#000000;stroke-width:69.81599426;stroke-linecap:butt;stroke-linejoin:miter;stroke-miterlimit:10;stroke-dasharray:none;stroke-opacity:1"
       id="path3564"
       inkscape:connector-curvature="0" /><g
       id="g3566" /><g
       id="g3568"
       transform="matrix(1.5,0,0,1.5,-7999.75,-5818)"><text
         transform="matrix(1,0,0,-1,4594.7158,4370)"
         style="font-variant:normal;font-weight:normal;font-size:808px;font-family:Arial;-inkscape-font-specification:ArialMT;writing-mode:lr-tb;fill:#000000;fill-opacity:1;fill-rule:nonzero;stroke:none"
         id="text3570"><tspan
           x="0 627.81598 1077.064 1526.312 1795.376 2019.192 2468.4399 2737.5039 2961.3201"
           y="0"
           sodipodi:role="line"
           id="tspan3572">Quarter 1</tspan></text>
</g><g
       id="g3574" /><g
       id="g3576"
       transform="matrix(1.5,0,0,1.5,-7999.75,-5818)"><text
         transform="matrix(1,0,0,-1,11572.716,4370)"
         style="font-variant:normal;font-weight:normal;font-size:808px;font-family:Arial;-inkscape-font-specification:ArialMT;writing-mode:lr-tb;fill:#000000;fill-opacity:1;fill-rule:nonzero;stroke:none"
         id="text3578"><tspan
           x="0 627.81598 1077.064 1526.312 1795.376 2019.192 2468.4399 2737.5039 2961.3201"
           y="0"
           sodipodi:role="line"
           id="tspan3580">Quarter 2</tspan></text>
</g><g
       id="g3582" /><g
       id="g3584"
       transform="matrix(1.5,0,0,1.5,-7999.75,-5818)"><text
         transform="matrix(1,0,0,-1,18550.717,4370)"
         style="font-variant:normal;font-weight:normal;font-size:808px;font-family:Arial;-inkscape-font-specification:ArialMT;writing-mode:lr-tb;fill:#000000;fill-opacity:1;fill-rule:nonzero;stroke:none"
         id="text3586"><tspan
           x="0 627.81598 1077.064 1526.312 1795.376 2019.192 2468.4399 2737.5039 2961.3201"
           y="0"
           sodipodi:role="line"
           id="tspan3588">Quarter 3</tspan></text>
</g><g
       id="g3590" /><g
       id="g3592"
       transform="matrix(1.5,0,0,1.5,-7999.75,-5818)"><text
         transform="matrix(1,0,0,-1,25528.717,4370)"
         style="font-variant:normal;font-weight:normal;font-size:808px;font-family:Arial;-inkscape-font-specification:ArialMT;writing-mode:lr-tb;fill:#000000;fill-opacity:1;fill-rule:nonzero;stroke:none"
         id="text3594"><tspan
           x="0 627.81598 1077.064 1526.312 1795.376 2019.192 2468.4399 2737.5039 2961.3201"
           y="0"
           sodipodi:role="line"
           id="tspan3596">Quarter 4</tspan></text>
</g><g
       id="g3598" /><g
       id="g3600"
       transform="matrix(1.5,0,0,1.5,-7999.75,-5818)"><text
         transform="matrix(1,0,0,-1,8031.7217,21526)"
         style="font-variant:normal;font-weight:normal;font-size:1131px;font-family:Arial;-inkscape-font-specification:ArialMT;writing-mode:lr-tb;fill:#000000;fill-opacity:1;fill-rule:nonzero;stroke:none"
         id="text3602"><tspan
           x="0 753.24597 1382.082 1758.705 2324.2051 2953.041 3581.877 3895.1641 4208.4512 4585.0742 5213.9102 5527.1968 6156.0332 6407.1152 7035.9512 7664.7871 8293.623 8606.9102 9235.7461 9864.582 10177.869 10806.705 11435.541 12064.377 12441 13069.836 13698.672 14327.508 14704.131 15332.967 15961.803 16212.885 16841.721"
           y="0"
           sodipodi:role="line"
           id="tspan3604">Percent retained on buprenorphine</tspan></text>
</g><path
       d="m 3778.25,-4177 26745,0 0,3889.5 -26745,0 0,-3889.5 z"
       style="fill:#ffffff;fill-opacity:1;fill-rule:nonzero;stroke:#000000;stroke-width:69.81599426;stroke-linecap:butt;stroke-linejoin:miter;stroke-miterlimit:10;stroke-dasharray:none;stroke-opacity:1"
       id="path3606"
       inkscape:connector-curvature="0" /><path
       d="m 4303.25,-3653.5 4537.5,0 0,1212 -4537.5,0 0,-1212 z"
       style="fill:#add8e6;fill-opacity:1;fill-rule:nonzero;stroke:#1a476f;stroke-width:14.54500389;stroke-linecap:butt;stroke-linejoin:miter;stroke-miterlimit:10;stroke-dasharray:none;stroke-opacity:1"
       id="path3608"
       inkscape:connector-curvature="0" /><path
       d="m 17911.25,-3653.5 4537.5,0 0,1212 -4537.5,0 0,-1212 z"
       style="fill:#938dd2;fill-opacity:1;fill-rule:nonzero;stroke:#000000;stroke-width:14.54500389;stroke-linecap:butt;stroke-linejoin:miter;stroke-miterlimit:10;stroke-dasharray:none;stroke-opacity:1"
       id="path3610"
       inkscape:connector-curvature="0" /><g
       id="g3612"
       transform="matrix(1.5,0,0,1.5,-7999.75,-5818)"><text
         transform="matrix(1,0,0,-1,11712,1564)"
         style="font-variant:normal;font-weight:normal;font-size:808px;font-family:Arial;-inkscape-font-specification:ArialMT;writing-mode:lr-tb;fill:#000000;fill-opacity:1;fill-rule:nonzero;stroke:none"
         id="text3614"><tspan
           x="0 538.12799 987.37598 1391.376 1615.192 1839.0081 2422.384 2646.2 3117.2639 3341.0801 3790.3279"
           y="0"
           sodipodi:role="line"
           id="tspan3616">Yes, N = 89</tspan></text>
</g><g
       id="g3618"
       transform="matrix(1.5,0,0,1.5,-7999.75,-5818)"><text
         transform="matrix(1,0,0,-1,20784,1564)"
         style="font-variant:normal;font-weight:normal;font-size:808px;font-family:Arial;-inkscape-font-specification:ArialMT;writing-mode:lr-tb;fill:#000000;fill-opacity:1;fill-rule:nonzero;stroke:none"
         id="text3620"><tspan
           x="0 583.37598 1032.624 1256.4399 1480.256 2063.6321 2287.448 2758.512 2982.3279 3431.5759 3880.824"
           y="0"
           sodipodi:role="line"
           id="tspan3622">No, N = 216</tspan></text>
</g><g
       id="g3624" /><g
       id="g3626"
       transform="matrix(1.5,0,0,1.5,-7999.75,-5818)"><text
         transform="matrix(1,0,0,-1,10662.156,2702)"
         style="font-variant:normal;font-weight:normal;font-size:808px;font-family:Arial;-inkscape-font-specification:ArialMT;writing-mode:lr-tb;fill:#000000;fill-opacity:1;fill-rule:nonzero;stroke:none"
         id="text3628"><tspan
           x="0 627.81598 1077.064 1300.88 1750.1281 2199.376 2468.4399 2917.688 3097.064 3546.312 3770.1279 4219.376 4488.4399 4712.2559 5161.5039 5430.5679 5879.8159 6329.064 6778.312 7002.1279 7181.5039 7630.752 8080 8303.8164 8753.0645 8976.8799 9200.6963 9649.9443 10099.192 10503.192 10952.44 11131.816 11311.192 11760.44"
           y="0"
           sodipodi:role="line"
           id="tspan3630">On parole or probation at baseline</tspan></text>
</g></g></svg>