<?xml version="1.0" encoding="UTF-8" standalone="no"?>
<!-- Created with Inkscape (http://www.inkscape.org/) -->

<svg
   xmlns:dc="http://purl.org/dc/elements/1.1/"
   xmlns:cc="http://creativecommons.org/ns#"
   xmlns:rdf="http://www.w3.org/1999/02/22-rdf-syntax-ns#"
   xmlns:svg="http://www.w3.org/2000/svg"
   xmlns="http://www.w3.org/2000/svg"
   xmlns:sodipodi="http://sodipodi.sourceforge.net/DTD/sodipodi-0.dtd"
   xmlns:inkscape="http://www.inkscape.org/namespaces/inkscape"
   id="svg4520"
   version="1.1"
   inkscape:version="0.91 r13725"
   xml:space="preserve"
   width="750"
   height="550"
   viewBox="0 0 750 550"
   sodipodi:docname="reten_by_baseline_ever_incar.svg"><metadata
     id="metadata4526"><rdf:RDF><cc:Work
         rdf:about=""><dc:format>image/svg+xml</dc:format><dc:type
           rdf:resource="http://purl.org/dc/dcmitype/StillImage" /><dc:title></dc:title></cc:Work></rdf:RDF></metadata><defs
     id="defs4524" /><sodipodi:namedview
     pagecolor="#ffffff"
     bordercolor="#666666"
     borderopacity="1"
     objecttolerance="10"
     gridtolerance="10"
     guidetolerance="10"
     inkscape:pageopacity="0"
     inkscape:pageshadow="2"
     inkscape:window-width="1366"
     inkscape:window-height="706"
     id="namedview4522"
     showgrid="false"
     inkscape:zoom="0.65555556"
     inkscape:cx="207.45575"
     inkscape:cy="180"
     inkscape:window-x="-8"
     inkscape:window-y="-8"
     inkscape:window-maximized="1"
     inkscape:current-layer="g4528" /><g
     id="g4528"
     inkscape:groupmode="layer"
     inkscape:label="reten_by_baseline_ever_incar"
     transform="matrix(0.015475,0,0,-0.015475,0,550)"><path
       d="m 212.51144,324.21954 47998.50056,0 0,34908.00046 -47998.50056,0 0,-34908.00046 z"
       style="fill:#eaf2f3;fill-opacity:1;fill-rule:nonzero;stroke:#eaf2f3;stroke-width:69.81599426;stroke-linecap:butt;stroke-linejoin:miter;stroke-miterlimit:10;stroke-dasharray:none;stroke-opacity:1"
       id="path4530"
       inkscape:connector-curvature="0" /><path
       d="m 3737.5114,8212.7195 43251.0006,0 0,23682.0005 -43251.0006,0 0,-23682.0005 z"
       style="fill:#ffffff;fill-opacity:1;fill-rule:nonzero;stroke:#ffffff;stroke-width:69.81599426;stroke-linecap:butt;stroke-linejoin:miter;stroke-miterlimit:10;stroke-dasharray:none;stroke-opacity:1"
       id="path4532"
       inkscape:connector-curvature="0" /><path
       d="m 3737.5114,8212.7195 43251.0006,0"
       style="fill:none;stroke:#eaf2f3;stroke-width:104.72399902;stroke-linecap:butt;stroke-linejoin:miter;stroke-miterlimit:10;stroke-dasharray:none;stroke-opacity:1"
       id="path4534"
       inkscape:connector-curvature="0" /><path
       d="m 3737.5114,12705.22 43251.0006,0"
       style="fill:none;stroke:#eaf2f3;stroke-width:104.72399902;stroke-linecap:butt;stroke-linejoin:miter;stroke-miterlimit:10;stroke-dasharray:none;stroke-opacity:1"
       id="path4536"
       inkscape:connector-curvature="0" /><path
       d="m 3737.5114,17197.72 43251.0006,0"
       style="fill:none;stroke:#eaf2f3;stroke-width:104.72399902;stroke-linecap:butt;stroke-linejoin:miter;stroke-miterlimit:10;stroke-dasharray:none;stroke-opacity:1"
       id="path4538"
       inkscape:connector-curvature="0" /><path
       d="m 3737.5114,21688.72 43251.0006,0"
       style="fill:none;stroke:#eaf2f3;stroke-width:104.72399902;stroke-linecap:butt;stroke-linejoin:miter;stroke-miterlimit:10;stroke-dasharray:none;stroke-opacity:1"
       id="path4540"
       inkscape:connector-curvature="0" /><path
       d="m 3737.5114,26181.22 43251.0006,0"
       style="fill:none;stroke:#eaf2f3;stroke-width:104.72399902;stroke-linecap:butt;stroke-linejoin:miter;stroke-miterlimit:10;stroke-dasharray:none;stroke-opacity:1"
       id="path4542"
       inkscape:connector-curvature="0" /><path
       d="m 3737.5114,30672.22 43251.0006,0"
       style="fill:none;stroke:#eaf2f3;stroke-width:104.72399902;stroke-linecap:butt;stroke-linejoin:miter;stroke-miterlimit:10;stroke-dasharray:none;stroke-opacity:1"
       id="path4544"
       inkscape:connector-curvature="0" /><path
       d="m 5743.0114,8212.7195 3919.5,0 0,16329.0005 -3919.5,0 0,-16329.0005 z"
       style="fill:#add8e6;fill-opacity:1;fill-rule:nonzero;stroke:#1a476f;stroke-width:14.54500389;stroke-linecap:butt;stroke-linejoin:miter;stroke-miterlimit:10;stroke-dasharray:none;stroke-opacity:1"
       id="path4546"
       inkscape:connector-curvature="0" /><path
       d="m 9662.5114,8212.7195 3921.0006,0 0,17901.0005 -3921.0006,0 0,-17901.0005 z"
       style="fill:#938dd2;fill-opacity:1;fill-rule:nonzero;stroke:#000000;stroke-width:14.54500389;stroke-linecap:butt;stroke-linejoin:miter;stroke-miterlimit:10;stroke-dasharray:none;stroke-opacity:1"
       id="path4548"
       inkscape:connector-curvature="0" /><path
       d="m 16210.012,8212.7195 3919.5,0 0,14577.0005 -3919.5,0 0,-14577.0005 z"
       style="fill:#add8e6;fill-opacity:1;fill-rule:nonzero;stroke:#1a476f;stroke-width:14.54500389;stroke-linecap:butt;stroke-linejoin:miter;stroke-miterlimit:10;stroke-dasharray:none;stroke-opacity:1"
       id="path4550"
       inkscape:connector-curvature="0" /><path
       d="m 20129.512,8212.7195 3921,0 0,16149.0005 -3921,0 0,-16149.0005 z"
       style="fill:#938dd2;fill-opacity:1;fill-rule:nonzero;stroke:#000000;stroke-width:14.54500389;stroke-linecap:butt;stroke-linejoin:miter;stroke-miterlimit:10;stroke-dasharray:none;stroke-opacity:1"
       id="path4552"
       inkscape:connector-curvature="0" /><path
       d="m 26677.012,8212.7195 3919.5,0 0,12622.5005 -3919.5,0 0,-12622.5005 z"
       style="fill:#add8e6;fill-opacity:1;fill-rule:nonzero;stroke:#1a476f;stroke-width:14.54500389;stroke-linecap:butt;stroke-linejoin:miter;stroke-miterlimit:10;stroke-dasharray:none;stroke-opacity:1"
       id="path4554"
       inkscape:connector-curvature="0" /><path
       d="m 30596.512,8212.7195 3919.5,0 0,14397.0005 -3919.5,0 0,-14397.0005 z"
       style="fill:#938dd2;fill-opacity:1;fill-rule:nonzero;stroke:#000000;stroke-width:14.54500389;stroke-linecap:butt;stroke-linejoin:miter;stroke-miterlimit:10;stroke-dasharray:none;stroke-opacity:1"
       id="path4556"
       inkscape:connector-curvature="0" /><path
       d="m 37142.512,8212.7195 3921,0 0,10489.5005 -3921,0 0,-10489.5005 z"
       style="fill:#add8e6;fill-opacity:1;fill-rule:nonzero;stroke:#1a476f;stroke-width:14.54500389;stroke-linecap:butt;stroke-linejoin:miter;stroke-miterlimit:10;stroke-dasharray:none;stroke-opacity:1"
       id="path4558"
       inkscape:connector-curvature="0" /><path
       d="m 41063.512,8212.7195 3919.5,0 0,11971.5005 -3919.5,0 0,-11971.5005 z"
       style="fill:#938dd2;fill-opacity:1;fill-rule:nonzero;stroke:#000000;stroke-width:14.54500389;stroke-linecap:butt;stroke-linejoin:miter;stroke-miterlimit:10;stroke-dasharray:none;stroke-opacity:1"
       id="path4560"
       inkscape:connector-curvature="0" /><g
       id="g4562" /><g
       id="g4564"
       transform="matrix(1.5,0,0,1.5,212.51144,324.21954)"><text
         transform="matrix(1,0,0,-1,4365.7651,16565)"
         style="font-variant:normal;font-weight:normal;font-size:646px;font-family:Arial;-inkscape-font-specification:ArialMT;writing-mode:lr-tb;fill:#000000;fill-opacity:1;fill-rule:nonzero;stroke:none"
         id="text4566"><tspan
           x="0 359.17599 718.35199 897.29401"
           y="0"
           sodipodi:role="line"
           id="tspan4568">72.7</tspan></text>
</g><g
       id="g4570" /><g
       id="g4572"
       transform="matrix(1.5,0,0,1.5,212.51144,324.21954)"><text
         transform="matrix(1,0,0,-1,6978.7651,17613)"
         style="font-variant:normal;font-weight:normal;font-size:646px;font-family:Arial;-inkscape-font-specification:ArialMT;writing-mode:lr-tb;fill:#000000;fill-opacity:1;fill-rule:nonzero;stroke:none"
         id="text4574"><tspan
           x="0 359.17599 718.35199 897.29401"
           y="0"
           sodipodi:role="line"
           id="tspan4576">79.7</tspan></text>
</g><g
       id="g4578" /><g
       id="g4580"
       transform="matrix(1.5,0,0,1.5,212.51144,324.21954)"><text
         transform="matrix(1,0,0,-1,11343.765,15397)"
         style="font-variant:normal;font-weight:normal;font-size:646px;font-family:Arial;-inkscape-font-specification:ArialMT;writing-mode:lr-tb;fill:#000000;fill-opacity:1;fill-rule:nonzero;stroke:none"
         id="text4582"><tspan
           x="0 359.17599 718.35199 897.29401"
           y="0"
           sodipodi:role="line"
           id="tspan4584">64.9</tspan></text>
</g><g
       id="g4586" /><g
       id="g4588"
       transform="matrix(1.5,0,0,1.5,212.51144,324.21954)"><text
         transform="matrix(1,0,0,-1,13956.765,16445)"
         style="font-variant:normal;font-weight:normal;font-size:646px;font-family:Arial;-inkscape-font-specification:ArialMT;writing-mode:lr-tb;fill:#000000;fill-opacity:1;fill-rule:nonzero;stroke:none"
         id="text4590"><tspan
           x="0 359.17599 718.35199 897.29401"
           y="0"
           sodipodi:role="line"
           id="tspan4592">71.9</tspan></text>
</g><g
       id="g4594" /><g
       id="g4596"
       transform="matrix(1.5,0,0,1.5,212.51144,324.21954)"><text
         transform="matrix(1,0,0,-1,18320.766,14094)"
         style="font-variant:normal;font-weight:normal;font-size:646px;font-family:Arial;-inkscape-font-specification:ArialMT;writing-mode:lr-tb;fill:#000000;fill-opacity:1;fill-rule:nonzero;stroke:none"
         id="text4598"><tspan
           x="0 359.17599 718.35199 897.29401"
           y="0"
           sodipodi:role="line"
           id="tspan4600">56.2</tspan></text>
</g><g
       id="g4602" /><g
       id="g4604"
       transform="matrix(1.5,0,0,1.5,212.51144,324.21954)"><text
         transform="matrix(1,0,0,-1,20934.766,15277)"
         style="font-variant:normal;font-weight:normal;font-size:646px;font-family:Arial;-inkscape-font-specification:ArialMT;writing-mode:lr-tb;fill:#000000;fill-opacity:1;fill-rule:nonzero;stroke:none"
         id="text4606"><tspan
           x="0 359.17599 718.35199 897.29401"
           y="0"
           sodipodi:role="line"
           id="tspan4608">64.1</tspan></text>
</g><g
       id="g4610" /><g
       id="g4612"
       transform="matrix(1.5,0,0,1.5,212.51144,324.21954)"><text
         transform="matrix(1,0,0,-1,25298.766,12672)"
         style="font-variant:normal;font-weight:normal;font-size:646px;font-family:Arial;-inkscape-font-specification:ArialMT;writing-mode:lr-tb;fill:#000000;fill-opacity:1;fill-rule:nonzero;stroke:none"
         id="text4614"><tspan
           x="0 359.17599 718.35199 897.29401"
           y="0"
           sodipodi:role="line"
           id="tspan4616">46.7</tspan></text>
</g><g
       id="g4618" /><g
       id="g4620"
       transform="matrix(1.5,0,0,1.5,212.51144,324.21954)"><text
         transform="matrix(1,0,0,-1,27912.766,13660)"
         style="font-variant:normal;font-weight:normal;font-size:646px;font-family:Arial;-inkscape-font-specification:ArialMT;writing-mode:lr-tb;fill:#000000;fill-opacity:1;fill-rule:nonzero;stroke:none"
         id="text4622"><tspan
           x="0 359.17599 718.35199 897.29401"
           y="0"
           sodipodi:role="line"
           id="tspan4624">53.3</tspan></text>
</g><path
       d="m 3737.5114,8212.7195 0,23682.0005"
       style="fill:none;stroke:#000000;stroke-width:69.81599426;stroke-linecap:butt;stroke-linejoin:miter;stroke-miterlimit:10;stroke-dasharray:none;stroke-opacity:1"
       id="path4626"
       inkscape:connector-curvature="0" /><path
       d="m 3737.5114,8212.7195 -484.5,0"
       style="fill:none;stroke:#000000;stroke-width:69.81599426;stroke-linecap:butt;stroke-linejoin:miter;stroke-miterlimit:10;stroke-dasharray:none;stroke-opacity:1"
       id="path4628"
       inkscape:connector-curvature="0" /><g
       id="g4630" /><g
       id="g4632"
       transform="matrix(1.5,0,0,1.5,212.51144,324.21954)"><text
         transform="matrix(0,1,1,0,1623,5034.376)"
         style="font-variant:normal;font-weight:normal;font-size:808px;font-family:Arial;-inkscape-font-specification:ArialMT;writing-mode:lr-tb;fill:#000000;fill-opacity:1;fill-rule:nonzero;stroke:none"
         id="text4634"><tspan
           x="0"
           y="0"
           id="tspan4636">0</tspan></text>
</g><path
       d="m 3737.5114,12705.22 -484.5,0"
       style="fill:none;stroke:#000000;stroke-width:69.81599426;stroke-linecap:butt;stroke-linejoin:miter;stroke-miterlimit:10;stroke-dasharray:none;stroke-opacity:1"
       id="path4638"
       inkscape:connector-curvature="0" /><g
       id="g4640" /><g
       id="g4642"
       transform="matrix(1.5,0,0,1.5,212.51144,324.21954)"><text
         transform="matrix(0,1,1,0,1623,7804.7519)"
         style="font-variant:normal;font-weight:normal;font-size:808px;font-family:Arial;-inkscape-font-specification:ArialMT;writing-mode:lr-tb;fill:#000000;fill-opacity:1;fill-rule:nonzero;stroke:none"
         id="text4644"><tspan
           x="0 449.24799"
           y="0"
           sodipodi:role="line"
           id="tspan4646">20</tspan></text>
</g><path
       d="m 3737.5114,17197.72 -484.5,0"
       style="fill:none;stroke:#000000;stroke-width:69.81599426;stroke-linecap:butt;stroke-linejoin:miter;stroke-miterlimit:10;stroke-dasharray:none;stroke-opacity:1"
       id="path4648"
       inkscape:connector-curvature="0" /><g
       id="g4650" /><g
       id="g4652"
       transform="matrix(1.5,0,0,1.5,212.51144,324.21954)"><text
         transform="matrix(0,1,1,0,1623,10799.752)"
         style="font-variant:normal;font-weight:normal;font-size:808px;font-family:Arial;-inkscape-font-specification:ArialMT;writing-mode:lr-tb;fill:#000000;fill-opacity:1;fill-rule:nonzero;stroke:none"
         id="text4654"><tspan
           x="0 449.24799"
           y="0"
           sodipodi:role="line"
           id="tspan4656">40</tspan></text>
</g><path
       d="m 3737.5114,21688.72 -484.5,0"
       style="fill:none;stroke:#000000;stroke-width:69.81599426;stroke-linecap:butt;stroke-linejoin:miter;stroke-miterlimit:10;stroke-dasharray:none;stroke-opacity:1"
       id="path4658"
       inkscape:connector-curvature="0" /><g
       id="g4660" /><g
       id="g4662"
       transform="matrix(1.5,0,0,1.5,212.51144,324.21954)"><text
         transform="matrix(0,1,1,0,1623,13793.752)"
         style="font-variant:normal;font-weight:normal;font-size:808px;font-family:Arial;-inkscape-font-specification:ArialMT;writing-mode:lr-tb;fill:#000000;fill-opacity:1;fill-rule:nonzero;stroke:none"
         id="text4664"><tspan
           x="0 449.24799"
           y="0"
           sodipodi:role="line"
           id="tspan4666">60</tspan></text>
</g><path
       d="m 3737.5114,26181.22 -484.5,0"
       style="fill:none;stroke:#000000;stroke-width:69.81599426;stroke-linecap:butt;stroke-linejoin:miter;stroke-miterlimit:10;stroke-dasharray:none;stroke-opacity:1"
       id="path4668"
       inkscape:connector-curvature="0" /><g
       id="g4670" /><g
       id="g4672"
       transform="matrix(1.5,0,0,1.5,212.51144,324.21954)"><text
         transform="matrix(0,1,1,0,1623,16788.752)"
         style="font-variant:normal;font-weight:normal;font-size:808px;font-family:Arial;-inkscape-font-specification:ArialMT;writing-mode:lr-tb;fill:#000000;fill-opacity:1;fill-rule:nonzero;stroke:none"
         id="text4674"><tspan
           x="0 449.24799"
           y="0"
           sodipodi:role="line"
           id="tspan4676">80</tspan></text>
</g><path
       d="m 3737.5114,30672.22 -484.5,0"
       style="fill:none;stroke:#000000;stroke-width:69.81599426;stroke-linecap:butt;stroke-linejoin:miter;stroke-miterlimit:10;stroke-dasharray:none;stroke-opacity:1"
       id="path4678"
       inkscape:connector-curvature="0" /><g
       id="g4680" /><g
       id="g4682"
       transform="matrix(1.5,0,0,1.5,212.51144,324.21954)"><text
         transform="matrix(0,1,1,0,1623,19558.129)"
         style="font-variant:normal;font-weight:normal;font-size:808px;font-family:Arial;-inkscape-font-specification:ArialMT;writing-mode:lr-tb;fill:#000000;fill-opacity:1;fill-rule:nonzero;stroke:none"
         id="text4684"><tspan
           x="0 449.24799 898.49597"
           y="0"
           sodipodi:role="line"
           id="tspan4686">100</tspan></text>
</g><path
       d="m 3737.5114,8212.7195 43251.0006,0"
       style="fill:none;stroke:#000000;stroke-width:69.81599426;stroke-linecap:butt;stroke-linejoin:miter;stroke-miterlimit:10;stroke-dasharray:none;stroke-opacity:1"
       id="path4688"
       inkscape:connector-curvature="0" /><g
       id="g4690" /><g
       id="g4692"
       transform="matrix(1.5,0,0,1.5,212.51144,324.21954)"><text
         transform="matrix(1,0,0,-1,4594.7158,4370)"
         style="font-variant:normal;font-weight:normal;font-size:808px;font-family:Arial;-inkscape-font-specification:ArialMT;writing-mode:lr-tb;fill:#000000;fill-opacity:1;fill-rule:nonzero;stroke:none"
         id="text4694"><tspan
           x="0 627.81598 1077.064 1526.312 1795.376 2019.192 2468.4399 2737.5039 2961.3201"
           y="0"
           sodipodi:role="line"
           id="tspan4696">Quarter 1</tspan></text>
</g><g
       id="g4698" /><g
       id="g4700"
       transform="matrix(1.5,0,0,1.5,212.51144,324.21954)"><text
         transform="matrix(1,0,0,-1,11572.716,4370)"
         style="font-variant:normal;font-weight:normal;font-size:808px;font-family:Arial;-inkscape-font-specification:ArialMT;writing-mode:lr-tb;fill:#000000;fill-opacity:1;fill-rule:nonzero;stroke:none"
         id="text4702"><tspan
           x="0 627.81598 1077.064 1526.312 1795.376 2019.192 2468.4399 2737.5039 2961.3201"
           y="0"
           sodipodi:role="line"
           id="tspan4704">Quarter 2</tspan></text>
</g><g
       id="g4706" /><g
       id="g4708"
       transform="matrix(1.5,0,0,1.5,212.51144,324.21954)"><text
         transform="matrix(1,0,0,-1,18550.717,4370)"
         style="font-variant:normal;font-weight:normal;font-size:808px;font-family:Arial;-inkscape-font-specification:ArialMT;writing-mode:lr-tb;fill:#000000;fill-opacity:1;fill-rule:nonzero;stroke:none"
         id="text4710"><tspan
           x="0 627.81598 1077.064 1526.312 1795.376 2019.192 2468.4399 2737.5039 2961.3201"
           y="0"
           sodipodi:role="line"
           id="tspan4712">Quarter 3</tspan></text>
</g><g
       id="g4714" /><g
       id="g4716"
       transform="matrix(1.5,0,0,1.5,212.51144,324.21954)"><text
         transform="matrix(1,0,0,-1,25528.717,4370)"
         style="font-variant:normal;font-weight:normal;font-size:808px;font-family:Arial;-inkscape-font-specification:ArialMT;writing-mode:lr-tb;fill:#000000;fill-opacity:1;fill-rule:nonzero;stroke:none"
         id="text4718"><tspan
           x="0 627.81598 1077.064 1526.312 1795.376 2019.192 2468.4399 2737.5039 2961.3201"
           y="0"
           sodipodi:role="line"
           id="tspan4720">Quarter 4</tspan></text>
</g><g
       id="g4722" /><g
       id="g4724"
       transform="matrix(1.5,0,0,1.5,212.51144,324.21954)"><text
         transform="matrix(1,0,0,-1,8031.7217,21526)"
         style="font-variant:normal;font-weight:normal;font-size:1131px;font-family:Arial;-inkscape-font-specification:ArialMT;writing-mode:lr-tb;fill:#000000;fill-opacity:1;fill-rule:nonzero;stroke:none"
         id="text4726"><tspan
           x="0 753.24597 1382.082 1758.705 2324.2051 2953.041 3581.877 3895.1641 4208.4512 4585.0742 5213.9102 5527.1968 6156.0332 6407.1152 7035.9512 7664.7871 8293.623 8606.9102 9235.7461 9864.582 10177.869 10806.705 11435.541 12064.377 12441 13069.836 13698.672 14327.508 14704.131 15332.967 15961.803 16212.885 16841.721"
           y="0"
           sodipodi:role="line"
           id="tspan4728">Percent retained on buprenorphine</tspan></text>
</g><path
       d="m 11990.512,1965.2195 26745,0 0,3889.5 -26745,0 0,-3889.5 z"
       style="fill:#ffffff;fill-opacity:1;fill-rule:nonzero;stroke:#000000;stroke-width:69.81599426;stroke-linecap:butt;stroke-linejoin:miter;stroke-miterlimit:10;stroke-dasharray:none;stroke-opacity:1"
       id="path4730"
       inkscape:connector-curvature="0" /><path
       d="m 12515.512,2488.7195 4537.5,0 0,1212 -4537.5,0 0,-1212 z"
       style="fill:#add8e6;fill-opacity:1;fill-rule:nonzero;stroke:#1a476f;stroke-width:14.54500389;stroke-linecap:butt;stroke-linejoin:miter;stroke-miterlimit:10;stroke-dasharray:none;stroke-opacity:1"
       id="path4732"
       inkscape:connector-curvature="0" /><path
       d="m 26830.012,2488.7195 4539,0 0,1212 -4539,0 0,-1212 z"
       style="fill:#938dd2;fill-opacity:1;fill-rule:nonzero;stroke:#000000;stroke-width:14.54500389;stroke-linecap:butt;stroke-linejoin:miter;stroke-miterlimit:10;stroke-dasharray:none;stroke-opacity:1"
       id="path4734"
       inkscape:connector-curvature="0" /><g
       id="g4736"
       transform="matrix(1.5,0,0,1.5,212.51144,324.21954)"><text
         transform="matrix(1,0,0,-1,11712,1564)"
         style="font-variant:normal;font-weight:normal;font-size:808px;font-family:Arial;-inkscape-font-specification:ArialMT;writing-mode:lr-tb;fill:#000000;fill-opacity:1;fill-rule:nonzero;stroke:none"
         id="text4738"><tspan
           x="0 538.12799 987.37598 1391.376 1615.192 1839.0081 2422.384 2646.2 3117.2639 3341.0801 3790.3279 4239.5762"
           y="0"
           sodipodi:role="line"
           id="tspan4740">Yes, N = 242</tspan></text>
</g><g
       id="g4742"
       transform="matrix(1.5,0,0,1.5,212.51144,324.21954)"><text
         transform="matrix(1,0,0,-1,21255,1564)"
         style="font-variant:normal;font-weight:normal;font-size:808px;font-family:Arial;-inkscape-font-specification:ArialMT;writing-mode:lr-tb;fill:#000000;fill-opacity:1;fill-rule:nonzero;stroke:none"
         id="text4744"><tspan
           x="0 583.37598 1032.624 1256.4399 1480.256 2063.6321 2287.448 2758.512 2982.3279 3431.5759"
           y="0"
           sodipodi:role="line"
           id="tspan4746">No, N = 64</tspan></text>
</g><g
       id="g4748" /><g
       id="g4750"
       transform="matrix(1.5,0,0,1.5,212.51144,324.21954)"><text
         transform="matrix(1,0,0,-1,10942.936,2702)"
         style="font-variant:normal;font-weight:normal;font-size:808px;font-family:Arial;-inkscape-font-specification:ArialMT;writing-mode:lr-tb;fill:#000000;fill-opacity:1;fill-rule:nonzero;stroke:none"
         id="text4752"><tspan
           x="0 538.12799 942.12799 1391.376 1660.4399 1884.256 2333.5039 2782.752 3232 3681.248 3905.064 4084.4399 4533.688 4937.688 5386.936 5656 6060 6509.248 6778.312 7227.5601 7451.376 7900.624 8349.8721 8573.6885 9044.752 9268.5684 9717.8164 9941.6318 10390.88 10840.128 11244.128"
           y="0"
           sodipodi:role="line"
           id="tspan4754">Ever been incarcerated &gt; 3 days</tspan></text>
</g></g></svg>