<?xml version="1.0" encoding="UTF-8" standalone="no"?>
<!-- Created with Inkscape (http://www.inkscape.org/) -->

<svg
   xmlns:dc="http://purl.org/dc/elements/1.1/"
   xmlns:cc="http://creativecommons.org/ns#"
   xmlns:rdf="http://www.w3.org/1999/02/22-rdf-syntax-ns#"
   xmlns:svg="http://www.w3.org/2000/svg"
   xmlns="http://www.w3.org/2000/svg"
   xmlns:sodipodi="http://sodipodi.sourceforge.net/DTD/sodipodi-0.dtd"
   xmlns:inkscape="http://www.inkscape.org/namespaces/inkscape"
   id="svg3336"
   version="1.1"
   inkscape:version="0.91 r13725"
   xml:space="preserve"
   width="750"
   height="550"
   viewBox="0 0 750 550"
   sodipodi:docname="retention_by_baseline_recent_incar.svg"><metadata
     id="metadata3342"><rdf:RDF><cc:Work
         rdf:about=""><dc:format>image/svg+xml</dc:format><dc:type
           rdf:resource="http://purl.org/dc/dcmitype/StillImage" /><dc:title></dc:title></cc:Work></rdf:RDF></metadata><defs
     id="defs3340" /><sodipodi:namedview
     pagecolor="#ffffff"
     bordercolor="#666666"
     borderopacity="1"
     objecttolerance="10"
     gridtolerance="10"
     guidetolerance="10"
     inkscape:pageopacity="0"
     inkscape:pageshadow="2"
     inkscape:window-width="1366"
     inkscape:window-height="706"
     id="namedview3338"
     showgrid="false"
     inkscape:zoom="0.74583333"
     inkscape:cx="249.32407"
     inkscape:cy="241.40279"
     inkscape:window-x="-8"
     inkscape:window-y="-8"
     inkscape:window-maximized="1"
     inkscape:current-layer="g3344" /><g
     id="g3344"
     inkscape:groupmode="layer"
     inkscape:label="retention_by_baseline_recent_incar"
     transform="matrix(0.015475,0,0,-0.015475,0,550)"><path
       d="m 316.42043,376.16792 47998.50057,0 0,34908.00008 -47998.50057,0 0,-34908.00008 z"
       style="fill:#eaf2f3;fill-opacity:1;fill-rule:nonzero;stroke:#eaf2f3;stroke-width:69.81599426;stroke-linecap:butt;stroke-linejoin:miter;stroke-miterlimit:10;stroke-dasharray:none;stroke-opacity:1"
       id="path3346"
       inkscape:connector-curvature="0" /><path
       d="m 3841.4204,8264.6679 43251.0006,0 0,23682.0001 -43251.0006,0 0,-23682.0001 z"
       style="fill:#ffffff;fill-opacity:1;fill-rule:nonzero;stroke:#ffffff;stroke-width:69.81599426;stroke-linecap:butt;stroke-linejoin:miter;stroke-miterlimit:10;stroke-dasharray:none;stroke-opacity:1"
       id="path3348"
       inkscape:connector-curvature="0" /><path
       d="m 3841.4204,8264.6679 43251.0006,0"
       style="fill:none;stroke:#eaf2f3;stroke-width:104.72399902;stroke-linecap:butt;stroke-linejoin:miter;stroke-miterlimit:10;stroke-dasharray:none;stroke-opacity:1"
       id="path3350"
       inkscape:connector-curvature="0" /><path
       d="m 3841.4204,12757.168 43251.0006,0"
       style="fill:none;stroke:#eaf2f3;stroke-width:104.72399902;stroke-linecap:butt;stroke-linejoin:miter;stroke-miterlimit:10;stroke-dasharray:none;stroke-opacity:1"
       id="path3352"
       inkscape:connector-curvature="0" /><path
       d="m 3841.4204,17249.668 43251.0006,0"
       style="fill:none;stroke:#eaf2f3;stroke-width:104.72399902;stroke-linecap:butt;stroke-linejoin:miter;stroke-miterlimit:10;stroke-dasharray:none;stroke-opacity:1"
       id="path3354"
       inkscape:connector-curvature="0" /><path
       d="m 3841.4204,21740.668 43251.0006,0"
       style="fill:none;stroke:#eaf2f3;stroke-width:104.72399902;stroke-linecap:butt;stroke-linejoin:miter;stroke-miterlimit:10;stroke-dasharray:none;stroke-opacity:1"
       id="path3356"
       inkscape:connector-curvature="0" /><path
       d="m 3841.4204,26233.168 43251.0006,0"
       style="fill:none;stroke:#eaf2f3;stroke-width:104.72399902;stroke-linecap:butt;stroke-linejoin:miter;stroke-miterlimit:10;stroke-dasharray:none;stroke-opacity:1"
       id="path3358"
       inkscape:connector-curvature="0" /><path
       d="m 3841.4204,30724.168 43251.0006,0"
       style="fill:none;stroke:#eaf2f3;stroke-width:104.72399902;stroke-linecap:butt;stroke-linejoin:miter;stroke-miterlimit:10;stroke-dasharray:none;stroke-opacity:1"
       id="path3360"
       inkscape:connector-curvature="0" /><path
       d="m 5846.9204,8264.6679 3919.5,0 0,16710.0001 -3919.5,0 0,-16710.0001 z"
       style="fill:#add8e6;fill-opacity:1;fill-rule:nonzero;stroke:#1a476f;stroke-width:14.54500389;stroke-linecap:butt;stroke-linejoin:miter;stroke-miterlimit:10;stroke-dasharray:none;stroke-opacity:1"
       id="path3362"
       inkscape:connector-curvature="0" /><path
       d="m 9766.4204,8264.6679 3921.0006,0 0,16642.5001 -3921.0006,0 0,-16642.5001 z"
       style="fill:#938dd2;fill-opacity:1;fill-rule:nonzero;stroke:#000000;stroke-width:14.54500389;stroke-linecap:butt;stroke-linejoin:miter;stroke-miterlimit:10;stroke-dasharray:none;stroke-opacity:1"
       id="path3364"
       inkscape:connector-curvature="0" /><path
       d="m 16313.921,8264.6679 3919.5,0 0,14980.5001 -3919.5,0 0,-14980.5001 z"
       style="fill:#add8e6;fill-opacity:1;fill-rule:nonzero;stroke:#1a476f;stroke-width:14.54500389;stroke-linecap:butt;stroke-linejoin:miter;stroke-miterlimit:10;stroke-dasharray:none;stroke-opacity:1"
       id="path3366"
       inkscape:connector-curvature="0" /><path
       d="m 20233.421,8264.6679 3921,0 0,14869.5001 -3921,0 0,-14869.5001 z"
       style="fill:#938dd2;fill-opacity:1;fill-rule:nonzero;stroke:#000000;stroke-width:14.54500389;stroke-linecap:butt;stroke-linejoin:miter;stroke-miterlimit:10;stroke-dasharray:none;stroke-opacity:1"
       id="path3368"
       inkscape:connector-curvature="0" /><path
       d="m 26780.921,8264.6679 3919.5,0 0,11523.0001 -3919.5,0 0,-11523.0001 z"
       style="fill:#add8e6;fill-opacity:1;fill-rule:nonzero;stroke:#1a476f;stroke-width:14.54500389;stroke-linecap:butt;stroke-linejoin:miter;stroke-miterlimit:10;stroke-dasharray:none;stroke-opacity:1"
       id="path3370"
       inkscape:connector-curvature="0" /><path
       d="m 30700.421,8264.6679 3919.5,0 0,13251.0001 -3919.5,0 0,-13251.0001 z"
       style="fill:#938dd2;fill-opacity:1;fill-rule:nonzero;stroke:#000000;stroke-width:14.54500389;stroke-linecap:butt;stroke-linejoin:miter;stroke-miterlimit:10;stroke-dasharray:none;stroke-opacity:1"
       id="path3372"
       inkscape:connector-curvature="0" /><path
       d="m 37246.421,8264.6679 3921,0 0,8647.5001 -3921,0 0,-8647.5001 z"
       style="fill:#add8e6;fill-opacity:1;fill-rule:nonzero;stroke:#1a476f;stroke-width:14.54500389;stroke-linecap:butt;stroke-linejoin:miter;stroke-miterlimit:10;stroke-dasharray:none;stroke-opacity:1"
       id="path3374"
       inkscape:connector-curvature="0" /><path
       d="m 41167.421,8264.6679 3919.5,0 0,11140.5001 -3919.5,0 0,-11140.5001 z"
       style="fill:#938dd2;fill-opacity:1;fill-rule:nonzero;stroke:#000000;stroke-width:14.54500389;stroke-linecap:butt;stroke-linejoin:miter;stroke-miterlimit:10;stroke-dasharray:none;stroke-opacity:1"
       id="path3376"
       inkscape:connector-curvature="0" /><g
       id="g3378" /><g
       id="g3380"
       transform="matrix(1.5,0,0,1.5,316.42043,376.16792)"><text
         transform="matrix(1,0,0,-1,4365.7651,16820)"
         style="font-variant:normal;font-weight:normal;font-size:646px;font-family:Arial;-inkscape-font-specification:ArialMT;writing-mode:lr-tb;fill:#000000;fill-opacity:1;fill-rule:nonzero;stroke:none"
         id="text3382"><tspan
           x="0 359.17599 718.35199 897.29401"
           y="0"
           sodipodi:role="line"
           id="tspan3384">74.4</tspan></text>
</g><g
       id="g3386" /><g
       id="g3388"
       transform="matrix(1.5,0,0,1.5,316.42043,376.16792)"><text
         transform="matrix(1,0,0,-1,6978.7651,16775)"
         style="font-variant:normal;font-weight:normal;font-size:646px;font-family:Arial;-inkscape-font-specification:ArialMT;writing-mode:lr-tb;fill:#000000;fill-opacity:1;fill-rule:nonzero;stroke:none"
         id="text3390"><tspan
           x="0 359.17599 718.35199 897.29401"
           y="0"
           sodipodi:role="line"
           id="tspan3392">74.1</tspan></text>
</g><g
       id="g3394" /><g
       id="g3396"
       transform="matrix(1.5,0,0,1.5,316.42043,376.16792)"><text
         transform="matrix(1,0,0,-1,11343.765,15667)"
         style="font-variant:normal;font-weight:normal;font-size:646px;font-family:Arial;-inkscape-font-specification:ArialMT;writing-mode:lr-tb;fill:#000000;fill-opacity:1;fill-rule:nonzero;stroke:none"
         id="text3398"><tspan
           x="0 359.17599 718.35199 897.29401"
           y="0"
           sodipodi:role="line"
           id="tspan3400">66.7</tspan></text>
</g><g
       id="g3402" /><g
       id="g3404"
       transform="matrix(1.5,0,0,1.5,316.42043,376.16792)"><text
         transform="matrix(1,0,0,-1,13956.765,15592)"
         style="font-variant:normal;font-weight:normal;font-size:646px;font-family:Arial;-inkscape-font-specification:ArialMT;writing-mode:lr-tb;fill:#000000;fill-opacity:1;fill-rule:nonzero;stroke:none"
         id="text3406"><tspan
           x="0 359.17599 718.35199 897.29401"
           y="0"
           sodipodi:role="line"
           id="tspan3408">66.2</tspan></text>
</g><g
       id="g3410" /><g
       id="g3412"
       transform="matrix(1.5,0,0,1.5,316.42043,376.16792)"><text
         transform="matrix(1,0,0,-1,18320.766,13361)"
         style="font-variant:normal;font-weight:normal;font-size:646px;font-family:Arial;-inkscape-font-specification:ArialMT;writing-mode:lr-tb;fill:#000000;fill-opacity:1;fill-rule:nonzero;stroke:none"
         id="text3414"><tspan
           x="0 359.17599 718.35199 897.29401"
           y="0"
           sodipodi:role="line"
           id="tspan3416">51.3</tspan></text>
</g><g
       id="g3418" /><g
       id="g3420"
       transform="matrix(1.5,0,0,1.5,316.42043,376.16792)"><text
         transform="matrix(1,0,0,-1,21203.824,14514)"
         style="font-variant:normal;font-weight:normal;font-size:646px;font-family:Arial;-inkscape-font-specification:ArialMT;writing-mode:lr-tb;fill:#000000;fill-opacity:1;fill-rule:nonzero;stroke:none"
         id="text3422"><tspan
           x="0 359.17599"
           y="0"
           sodipodi:role="line"
           id="tspan3424">59</tspan></text>
</g><g
       id="g3426" /><g
       id="g3428"
       transform="matrix(1.5,0,0,1.5,316.42043,376.16792)"><text
         transform="matrix(1,0,0,-1,25298.766,11444)"
         style="font-variant:normal;font-weight:normal;font-size:646px;font-family:Arial;-inkscape-font-specification:ArialMT;writing-mode:lr-tb;fill:#000000;fill-opacity:1;fill-rule:nonzero;stroke:none"
         id="text3430"><tspan
           x="0 359.17599 718.35199 897.29401"
           y="0"
           sodipodi:role="line"
           id="tspan3432">38.5</tspan></text>
</g><g
       id="g3434" /><g
       id="g3436"
       transform="matrix(1.5,0,0,1.5,316.42043,376.16792)"><text
         transform="matrix(1,0,0,-1,27912.766,13106)"
         style="font-variant:normal;font-weight:normal;font-size:646px;font-family:Arial;-inkscape-font-specification:ArialMT;writing-mode:lr-tb;fill:#000000;fill-opacity:1;fill-rule:nonzero;stroke:none"
         id="text3438"><tspan
           x="0 359.17599 718.35199 897.29401"
           y="0"
           sodipodi:role="line"
           id="tspan3440">49.6</tspan></text>
</g><path
       d="m 3841.4204,8264.6679 0,23682.0001"
       style="fill:none;stroke:#000000;stroke-width:69.81599426;stroke-linecap:butt;stroke-linejoin:miter;stroke-miterlimit:10;stroke-dasharray:none;stroke-opacity:1"
       id="path3442"
       inkscape:connector-curvature="0" /><path
       d="m 3841.4204,8264.6679 -484.5,0"
       style="fill:none;stroke:#000000;stroke-width:69.81599426;stroke-linecap:butt;stroke-linejoin:miter;stroke-miterlimit:10;stroke-dasharray:none;stroke-opacity:1"
       id="path3444"
       inkscape:connector-curvature="0" /><g
       id="g3446" /><g
       id="g3448"
       transform="matrix(1.5,0,0,1.5,316.42043,376.16792)"><text
         transform="matrix(0,1,1,0,1623,5034.376)"
         style="font-variant:normal;font-weight:normal;font-size:808px;font-family:Arial;-inkscape-font-specification:ArialMT;writing-mode:lr-tb;fill:#000000;fill-opacity:1;fill-rule:nonzero;stroke:none"
         id="text3450"><tspan
           x="0"
           y="0"
           id="tspan3452">0</tspan></text>
</g><path
       d="m 3841.4204,12757.168 -484.5,0"
       style="fill:none;stroke:#000000;stroke-width:69.81599426;stroke-linecap:butt;stroke-linejoin:miter;stroke-miterlimit:10;stroke-dasharray:none;stroke-opacity:1"
       id="path3454"
       inkscape:connector-curvature="0" /><g
       id="g3456" /><g
       id="g3458"
       transform="matrix(1.5,0,0,1.5,316.42043,376.16792)"><text
         transform="matrix(0,1,1,0,1623,7804.7519)"
         style="font-variant:normal;font-weight:normal;font-size:808px;font-family:Arial;-inkscape-font-specification:ArialMT;writing-mode:lr-tb;fill:#000000;fill-opacity:1;fill-rule:nonzero;stroke:none"
         id="text3460"><tspan
           x="0 449.24799"
           y="0"
           sodipodi:role="line"
           id="tspan3462">20</tspan></text>
</g><path
       d="m 3841.4204,17249.668 -484.5,0"
       style="fill:none;stroke:#000000;stroke-width:69.81599426;stroke-linecap:butt;stroke-linejoin:miter;stroke-miterlimit:10;stroke-dasharray:none;stroke-opacity:1"
       id="path3464"
       inkscape:connector-curvature="0" /><g
       id="g3466" /><g
       id="g3468"
       transform="matrix(1.5,0,0,1.5,316.42043,376.16792)"><text
         transform="matrix(0,1,1,0,1623,10799.752)"
         style="font-variant:normal;font-weight:normal;font-size:808px;font-family:Arial;-inkscape-font-specification:ArialMT;writing-mode:lr-tb;fill:#000000;fill-opacity:1;fill-rule:nonzero;stroke:none"
         id="text3470"><tspan
           x="0 449.24799"
           y="0"
           sodipodi:role="line"
           id="tspan3472">40</tspan></text>
</g><path
       d="m 3841.4204,21740.668 -484.5,0"
       style="fill:none;stroke:#000000;stroke-width:69.81599426;stroke-linecap:butt;stroke-linejoin:miter;stroke-miterlimit:10;stroke-dasharray:none;stroke-opacity:1"
       id="path3474"
       inkscape:connector-curvature="0" /><g
       id="g3476" /><g
       id="g3478"
       transform="matrix(1.5,0,0,1.5,316.42043,376.16792)"><text
         transform="matrix(0,1,1,0,1623,13793.752)"
         style="font-variant:normal;font-weight:normal;font-size:808px;font-family:Arial;-inkscape-font-specification:ArialMT;writing-mode:lr-tb;fill:#000000;fill-opacity:1;fill-rule:nonzero;stroke:none"
         id="text3480"><tspan
           x="0 449.24799"
           y="0"
           sodipodi:role="line"
           id="tspan3482">60</tspan></text>
</g><path
       d="m 3841.4204,26233.168 -484.5,0"
       style="fill:none;stroke:#000000;stroke-width:69.81599426;stroke-linecap:butt;stroke-linejoin:miter;stroke-miterlimit:10;stroke-dasharray:none;stroke-opacity:1"
       id="path3484"
       inkscape:connector-curvature="0" /><g
       id="g3486" /><g
       id="g3488"
       transform="matrix(1.5,0,0,1.5,316.42043,376.16792)"><text
         transform="matrix(0,1,1,0,1623,16788.752)"
         style="font-variant:normal;font-weight:normal;font-size:808px;font-family:Arial;-inkscape-font-specification:ArialMT;writing-mode:lr-tb;fill:#000000;fill-opacity:1;fill-rule:nonzero;stroke:none"
         id="text3490"><tspan
           x="0 449.24799"
           y="0"
           sodipodi:role="line"
           id="tspan3492">80</tspan></text>
</g><path
       d="m 3841.4204,30724.168 -484.5,0"
       style="fill:none;stroke:#000000;stroke-width:69.81599426;stroke-linecap:butt;stroke-linejoin:miter;stroke-miterlimit:10;stroke-dasharray:none;stroke-opacity:1"
       id="path3494"
       inkscape:connector-curvature="0" /><g
       id="g3496" /><g
       id="g3498"
       transform="matrix(1.5,0,0,1.5,316.42043,376.16792)"><text
         transform="matrix(0,1,1,0,1623,19558.129)"
         style="font-variant:normal;font-weight:normal;font-size:808px;font-family:Arial;-inkscape-font-specification:ArialMT;writing-mode:lr-tb;fill:#000000;fill-opacity:1;fill-rule:nonzero;stroke:none"
         id="text3500"><tspan
           x="0 449.24799 898.49597"
           y="0"
           sodipodi:role="line"
           id="tspan3502">100</tspan></text>
</g><path
       d="m 3841.4204,8264.6679 43251.0006,0"
       style="fill:none;stroke:#000000;stroke-width:69.81599426;stroke-linecap:butt;stroke-linejoin:miter;stroke-miterlimit:10;stroke-dasharray:none;stroke-opacity:1"
       id="path3504"
       inkscape:connector-curvature="0" /><g
       id="g3506" /><g
       id="g3508"
       transform="matrix(1.5,0,0,1.5,316.42043,376.16792)"><text
         transform="matrix(1,0,0,-1,4594.7158,4370)"
         style="font-variant:normal;font-weight:normal;font-size:808px;font-family:Arial;-inkscape-font-specification:ArialMT;writing-mode:lr-tb;fill:#000000;fill-opacity:1;fill-rule:nonzero;stroke:none"
         id="text3510"><tspan
           x="0 627.81598 1077.064 1526.312 1795.376 2019.192 2468.4399 2737.5039 2961.3201"
           y="0"
           sodipodi:role="line"
           id="tspan3512">Quarter 1</tspan></text>
</g><g
       id="g3514" /><g
       id="g3516"
       transform="matrix(1.5,0,0,1.5,316.42043,376.16792)"><text
         transform="matrix(1,0,0,-1,11572.716,4370)"
         style="font-variant:normal;font-weight:normal;font-size:808px;font-family:Arial;-inkscape-font-specification:ArialMT;writing-mode:lr-tb;fill:#000000;fill-opacity:1;fill-rule:nonzero;stroke:none"
         id="text3518"><tspan
           x="0 627.81598 1077.064 1526.312 1795.376 2019.192 2468.4399 2737.5039 2961.3201"
           y="0"
           sodipodi:role="line"
           id="tspan3520">Quarter 2</tspan></text>
</g><g
       id="g3522" /><g
       id="g3524"
       transform="matrix(1.5,0,0,1.5,316.42043,376.16792)"><text
         transform="matrix(1,0,0,-1,18550.717,4370)"
         style="font-variant:normal;font-weight:normal;font-size:808px;font-family:Arial;-inkscape-font-specification:ArialMT;writing-mode:lr-tb;fill:#000000;fill-opacity:1;fill-rule:nonzero;stroke:none"
         id="text3526"><tspan
           x="0 627.81598 1077.064 1526.312 1795.376 2019.192 2468.4399 2737.5039 2961.3201"
           y="0"
           sodipodi:role="line"
           id="tspan3528">Quarter 3</tspan></text>
</g><g
       id="g3530" /><g
       id="g3532"
       transform="matrix(1.5,0,0,1.5,316.42043,376.16792)"><text
         transform="matrix(1,0,0,-1,25528.717,4370)"
         style="font-variant:normal;font-weight:normal;font-size:808px;font-family:Arial;-inkscape-font-specification:ArialMT;writing-mode:lr-tb;fill:#000000;fill-opacity:1;fill-rule:nonzero;stroke:none"
         id="text3534"><tspan
           x="0 627.81598 1077.064 1526.312 1795.376 2019.192 2468.4399 2737.5039 2961.3201"
           y="0"
           sodipodi:role="line"
           id="tspan3536">Quarter 4</tspan></text>
</g><g
       id="g3538" /><g
       id="g3540"
       transform="matrix(1.5,0,0,1.5,316.42043,376.16792)"><text
         transform="matrix(1,0,0,-1,8031.7217,21526)"
         style="font-variant:normal;font-weight:normal;font-size:1131px;font-family:Arial;-inkscape-font-specification:ArialMT;writing-mode:lr-tb;fill:#000000;fill-opacity:1;fill-rule:nonzero;stroke:none"
         id="text3542"><tspan
           x="0 753.24597 1382.082 1758.705 2324.2051 2953.041 3581.877 3895.1641 4208.4512 4585.0742 5213.9102 5527.1968 6156.0332 6407.1152 7035.9512 7664.7871 8293.623 8606.9102 9235.7461 9864.582 10177.869 10806.705 11435.541 12064.377 12441 13069.836 13698.672 14327.508 14704.131 15332.967 15961.803 16212.885 16841.721"
           y="0"
           sodipodi:role="line"
           id="tspan3544">Percent retained on buprenorphine</tspan></text>
</g><path
       d="m 12094.421,2017.1679 26745,0 0,3889.5 -26745,0 0,-3889.5 z"
       style="fill:#ffffff;fill-opacity:1;fill-rule:nonzero;stroke:#000000;stroke-width:69.81599426;stroke-linecap:butt;stroke-linejoin:miter;stroke-miterlimit:10;stroke-dasharray:none;stroke-opacity:1"
       id="path3546"
       inkscape:connector-curvature="0" /><path
       d="m 12619.421,2540.6679 4537.5,0 0,1212 -4537.5,0 0,-1212 z"
       style="fill:#add8e6;fill-opacity:1;fill-rule:nonzero;stroke:#1a476f;stroke-width:14.54500389;stroke-linecap:butt;stroke-linejoin:miter;stroke-miterlimit:10;stroke-dasharray:none;stroke-opacity:1"
       id="path3548"
       inkscape:connector-curvature="0" /><path
       d="m 26227.421,2540.6679 4537.5,0 0,1212 -4537.5,0 0,-1212 z"
       style="fill:#938dd2;fill-opacity:1;fill-rule:nonzero;stroke:#000000;stroke-width:14.54500389;stroke-linecap:butt;stroke-linejoin:miter;stroke-miterlimit:10;stroke-dasharray:none;stroke-opacity:1"
       id="path3550"
       inkscape:connector-curvature="0" /><g
       id="g3552"
       transform="matrix(1.5,0,0,1.5,316.42043,376.16792)"><text
         transform="matrix(1,0,0,-1,11712,1564)"
         style="font-variant:normal;font-weight:normal;font-size:808px;font-family:Arial;-inkscape-font-specification:ArialMT;writing-mode:lr-tb;fill:#000000;fill-opacity:1;fill-rule:nonzero;stroke:none"
         id="text3554"><tspan
           x="0 538.12799 987.37598 1391.376 1615.192 1839.0081 2422.384 2646.2 3117.2639 3341.0801 3790.3279"
           y="0"
           sodipodi:role="line"
           id="tspan3556">Yes, N = 39</tspan></text>
</g><g
       id="g3558"
       transform="matrix(1.5,0,0,1.5,316.42043,376.16792)"><text
         transform="matrix(1,0,0,-1,20784,1564)"
         style="font-variant:normal;font-weight:normal;font-size:808px;font-family:Arial;-inkscape-font-specification:ArialMT;writing-mode:lr-tb;fill:#000000;fill-opacity:1;fill-rule:nonzero;stroke:none"
         id="text3560"><tspan
           x="0 583.37598 1032.624 1256.4399 1480.256 2063.6321 2287.448 2758.512 2982.3279 3431.5759 3880.824"
           y="0"
           sodipodi:role="line"
           id="tspan3562">No, N = 266</tspan></text>
</g><g
       id="g3564" /><g
       id="g3566"
       transform="matrix(1.5,0,0,1.5,316.42043,376.16792)"><text
         transform="matrix(1,0,0,-1,9696.5957,2702)"
         style="font-variant:normal;font-weight:normal;font-size:808px;font-family:Arial;-inkscape-font-specification:ArialMT;writing-mode:lr-tb;fill:#000000;fill-opacity:1;fill-rule:nonzero;stroke:none"
         id="text3568"><tspan
           x="0 223.81599 673.06403 1077.064 1526.312 1795.376 2199.376 2648.624 2917.688 3366.936 3590.752 4040 4489.248 4713.064 4892.4399 5341.688 5565.5039 6014.752 6464 6687.8159 7137.064 7586.312 7990.312 8394.3115 8618.1279 9067.376 9516.624 9740.4404 10189.688 10458.752 10908 11131.816 11581.064 12030.312 12434.312 12883.56 13062.936 13242.312 13691.56"
           y="0"
           sodipodi:role="line"
           id="tspan3570">Incarcerated in 30 days before baseline</tspan></text>
</g></g></svg>