<?xml version="1.0" encoding="UTF-8" standalone="no"?>
<!-- Created with Inkscape (http://www.inkscape.org/) -->

<svg
   xmlns:dc="http://purl.org/dc/elements/1.1/"
   xmlns:cc="http://creativecommons.org/ns#"
   xmlns:rdf="http://www.w3.org/1999/02/22-rdf-syntax-ns#"
   xmlns:svg="http://www.w3.org/2000/svg"
   xmlns="http://www.w3.org/2000/svg"
   xmlns:sodipodi="http://sodipodi.sourceforge.net/DTD/sodipodi-0.dtd"
   xmlns:inkscape="http://www.inkscape.org/namespaces/inkscape"
   id="svg4104"
   version="1.1"
   inkscape:version="0.91 r13725"
   xml:space="preserve"
   width="750"
   height="550"
   viewBox="0 0 750 550"
   sodipodi:docname="retention_by_baseline_recent_incar.svg"><metadata
     id="metadata4110"><rdf:RDF><cc:Work
         rdf:about=""><dc:format>image/svg+xml</dc:format><dc:type
           rdf:resource="http://purl.org/dc/dcmitype/StillImage" /><dc:title></dc:title></cc:Work></rdf:RDF></metadata><defs
     id="defs4108" /><sodipodi:namedview
     pagecolor="#ffffff"
     bordercolor="#666666"
     borderopacity="1"
     objecttolerance="10"
     gridtolerance="10"
     guidetolerance="10"
     inkscape:pageopacity="0"
     inkscape:pageshadow="2"
     inkscape:window-width="1366"
     inkscape:window-height="706"
     id="namedview4106"
     showgrid="false"
     inkscape:zoom="0.65555556"
     inkscape:cx="247.5"
     inkscape:cy="180"
     inkscape:window-x="-8"
     inkscape:window-y="-8"
     inkscape:window-maximized="1"
     inkscape:current-layer="g4112" /><g
     id="g4112"
     inkscape:groupmode="layer"
     inkscape:label="retention_by_baseline_recent_incar"
     transform="matrix(0.015475,0,0,-0.015475,0,550)"><path
       d="m 311.08486,392.12568 47998.50014,0 0,34908.00032 -47998.50014,0 0,-34908.00032 z"
       style="fill:#eaf2f3;fill-opacity:1;fill-rule:nonzero;stroke:#eaf2f3;stroke-width:69.81599426;stroke-linecap:butt;stroke-linejoin:miter;stroke-miterlimit:10;stroke-dasharray:none;stroke-opacity:1"
       id="path4114"
       inkscape:connector-curvature="0" /><path
       d="m 3836.0849,8280.6257 43251.0001,0 0,23682.0003 -43251.0001,0 0,-23682.0003 z"
       style="fill:#ffffff;fill-opacity:1;fill-rule:nonzero;stroke:#ffffff;stroke-width:69.81599426;stroke-linecap:butt;stroke-linejoin:miter;stroke-miterlimit:10;stroke-dasharray:none;stroke-opacity:1"
       id="path4116"
       inkscape:connector-curvature="0" /><path
       d="m 3836.0849,8280.6257 43251.0001,0"
       style="fill:none;stroke:#eaf2f3;stroke-width:104.72399902;stroke-linecap:butt;stroke-linejoin:miter;stroke-miterlimit:10;stroke-dasharray:none;stroke-opacity:1"
       id="path4118"
       inkscape:connector-curvature="0" /><path
       d="m 3836.0849,12773.126 43251.0001,0"
       style="fill:none;stroke:#eaf2f3;stroke-width:104.72399902;stroke-linecap:butt;stroke-linejoin:miter;stroke-miterlimit:10;stroke-dasharray:none;stroke-opacity:1"
       id="path4120"
       inkscape:connector-curvature="0" /><path
       d="m 3836.0849,17265.626 43251.0001,0"
       style="fill:none;stroke:#eaf2f3;stroke-width:104.72399902;stroke-linecap:butt;stroke-linejoin:miter;stroke-miterlimit:10;stroke-dasharray:none;stroke-opacity:1"
       id="path4122"
       inkscape:connector-curvature="0" /><path
       d="m 3836.0849,21756.626 43251.0001,0"
       style="fill:none;stroke:#eaf2f3;stroke-width:104.72399902;stroke-linecap:butt;stroke-linejoin:miter;stroke-miterlimit:10;stroke-dasharray:none;stroke-opacity:1"
       id="path4124"
       inkscape:connector-curvature="0" /><path
       d="m 3836.0849,26249.126 43251.0001,0"
       style="fill:none;stroke:#eaf2f3;stroke-width:104.72399902;stroke-linecap:butt;stroke-linejoin:miter;stroke-miterlimit:10;stroke-dasharray:none;stroke-opacity:1"
       id="path4126"
       inkscape:connector-curvature="0" /><path
       d="m 3836.0849,30740.126 43251.0001,0"
       style="fill:none;stroke:#eaf2f3;stroke-width:104.72399902;stroke-linecap:butt;stroke-linejoin:miter;stroke-miterlimit:10;stroke-dasharray:none;stroke-opacity:1"
       id="path4128"
       inkscape:connector-curvature="0" /><path
       d="m 5841.5849,8280.6257 3919.5,0 0,16710.0003 -3919.5,0 0,-16710.0003 z"
       style="fill:#add8e6;fill-opacity:1;fill-rule:nonzero;stroke:#1a476f;stroke-width:14.54500389;stroke-linecap:butt;stroke-linejoin:miter;stroke-miterlimit:10;stroke-dasharray:none;stroke-opacity:1"
       id="path4130"
       inkscape:connector-curvature="0" /><path
       d="m 9761.0849,8280.6257 3921.0001,0 0,16642.5003 -3921.0001,0 0,-16642.5003 z"
       style="fill:#938dd2;fill-opacity:1;fill-rule:nonzero;stroke:#000000;stroke-width:14.54500389;stroke-linecap:butt;stroke-linejoin:miter;stroke-miterlimit:10;stroke-dasharray:none;stroke-opacity:1"
       id="path4132"
       inkscape:connector-curvature="0" /><path
       d="m 16308.585,8280.6257 3919.5,0 0,14980.5003 -3919.5,0 0,-14980.5003 z"
       style="fill:#add8e6;fill-opacity:1;fill-rule:nonzero;stroke:#1a476f;stroke-width:14.54500389;stroke-linecap:butt;stroke-linejoin:miter;stroke-miterlimit:10;stroke-dasharray:none;stroke-opacity:1"
       id="path4134"
       inkscape:connector-curvature="0" /><path
       d="m 20228.085,8280.6257 3921,0 0,14869.5003 -3921,0 0,-14869.5003 z"
       style="fill:#938dd2;fill-opacity:1;fill-rule:nonzero;stroke:#000000;stroke-width:14.54500389;stroke-linecap:butt;stroke-linejoin:miter;stroke-miterlimit:10;stroke-dasharray:none;stroke-opacity:1"
       id="path4136"
       inkscape:connector-curvature="0" /><path
       d="m 26775.585,8280.6257 3919.5,0 0,11523.0003 -3919.5,0 0,-11523.0003 z"
       style="fill:#add8e6;fill-opacity:1;fill-rule:nonzero;stroke:#1a476f;stroke-width:14.54500389;stroke-linecap:butt;stroke-linejoin:miter;stroke-miterlimit:10;stroke-dasharray:none;stroke-opacity:1"
       id="path4138"
       inkscape:connector-curvature="0" /><path
       d="m 30695.085,8280.6257 3919.5,0 0,13251.0003 -3919.5,0 0,-13251.0003 z"
       style="fill:#938dd2;fill-opacity:1;fill-rule:nonzero;stroke:#000000;stroke-width:14.54500389;stroke-linecap:butt;stroke-linejoin:miter;stroke-miterlimit:10;stroke-dasharray:none;stroke-opacity:1"
       id="path4140"
       inkscape:connector-curvature="0" /><path
       d="m 37241.085,8280.6257 3921,0 0,8647.5003 -3921,0 0,-8647.5003 z"
       style="fill:#add8e6;fill-opacity:1;fill-rule:nonzero;stroke:#1a476f;stroke-width:14.54500389;stroke-linecap:butt;stroke-linejoin:miter;stroke-miterlimit:10;stroke-dasharray:none;stroke-opacity:1"
       id="path4142"
       inkscape:connector-curvature="0" /><path
       d="m 41162.085,8280.6257 3919.5,0 0,11140.5003 -3919.5,0 0,-11140.5003 z"
       style="fill:#938dd2;fill-opacity:1;fill-rule:nonzero;stroke:#000000;stroke-width:14.54500389;stroke-linecap:butt;stroke-linejoin:miter;stroke-miterlimit:10;stroke-dasharray:none;stroke-opacity:1"
       id="path4144"
       inkscape:connector-curvature="0" /><g
       id="g4146" /><g
       id="g4148"
       transform="matrix(1.5,0,0,1.5,311.08486,392.12568)"><text
         transform="matrix(1,0,0,-1,4365.7651,16820)"
         style="font-variant:normal;font-weight:normal;font-size:646px;font-family:Arial;-inkscape-font-specification:ArialMT;writing-mode:lr-tb;fill:#000000;fill-opacity:1;fill-rule:nonzero;stroke:none"
         id="text4150"><tspan
           x="0 359.17599 718.35199 897.29401"
           y="0"
           sodipodi:role="line"
           id="tspan4152">74.4</tspan></text>
</g><g
       id="g4154" /><g
       id="g4156"
       transform="matrix(1.5,0,0,1.5,311.08486,392.12568)"><text
         transform="matrix(1,0,0,-1,6978.7651,16775)"
         style="font-variant:normal;font-weight:normal;font-size:646px;font-family:Arial;-inkscape-font-specification:ArialMT;writing-mode:lr-tb;fill:#000000;fill-opacity:1;fill-rule:nonzero;stroke:none"
         id="text4158"><tspan
           x="0 359.17599 718.35199 897.29401"
           y="0"
           sodipodi:role="line"
           id="tspan4160">74.1</tspan></text>
</g><g
       id="g4162" /><g
       id="g4164"
       transform="matrix(1.5,0,0,1.5,311.08486,392.12568)"><text
         transform="matrix(1,0,0,-1,11343.765,15667)"
         style="font-variant:normal;font-weight:normal;font-size:646px;font-family:Arial;-inkscape-font-specification:ArialMT;writing-mode:lr-tb;fill:#000000;fill-opacity:1;fill-rule:nonzero;stroke:none"
         id="text4166"><tspan
           x="0 359.17599 718.35199 897.29401"
           y="0"
           sodipodi:role="line"
           id="tspan4168">66.7</tspan></text>
</g><g
       id="g4170" /><g
       id="g4172"
       transform="matrix(1.5,0,0,1.5,311.08486,392.12568)"><text
         transform="matrix(1,0,0,-1,13956.765,15592)"
         style="font-variant:normal;font-weight:normal;font-size:646px;font-family:Arial;-inkscape-font-specification:ArialMT;writing-mode:lr-tb;fill:#000000;fill-opacity:1;fill-rule:nonzero;stroke:none"
         id="text4174"><tspan
           x="0 359.17599 718.35199 897.29401"
           y="0"
           sodipodi:role="line"
           id="tspan4176">66.2</tspan></text>
</g><g
       id="g4178" /><g
       id="g4180"
       transform="matrix(1.5,0,0,1.5,311.08486,392.12568)"><text
         transform="matrix(1,0,0,-1,18320.766,13361)"
         style="font-variant:normal;font-weight:normal;font-size:646px;font-family:Arial;-inkscape-font-specification:ArialMT;writing-mode:lr-tb;fill:#000000;fill-opacity:1;fill-rule:nonzero;stroke:none"
         id="text4182"><tspan
           x="0 359.17599 718.35199 897.29401"
           y="0"
           sodipodi:role="line"
           id="tspan4184">51.3</tspan></text>
</g><g
       id="g4186" /><g
       id="g4188"
       transform="matrix(1.5,0,0,1.5,311.08486,392.12568)"><text
         transform="matrix(1,0,0,-1,21203.824,14514)"
         style="font-variant:normal;font-weight:normal;font-size:646px;font-family:Arial;-inkscape-font-specification:ArialMT;writing-mode:lr-tb;fill:#000000;fill-opacity:1;fill-rule:nonzero;stroke:none"
         id="text4190"><tspan
           x="0 359.17599"
           y="0"
           sodipodi:role="line"
           id="tspan4192">59</tspan></text>
</g><g
       id="g4194" /><g
       id="g4196"
       transform="matrix(1.5,0,0,1.5,311.08486,392.12568)"><text
         transform="matrix(1,0,0,-1,25298.766,11444)"
         style="font-variant:normal;font-weight:normal;font-size:646px;font-family:Arial;-inkscape-font-specification:ArialMT;writing-mode:lr-tb;fill:#000000;fill-opacity:1;fill-rule:nonzero;stroke:none"
         id="text4198"><tspan
           x="0 359.17599 718.35199 897.29401"
           y="0"
           sodipodi:role="line"
           id="tspan4200">38.5</tspan></text>
</g><g
       id="g4202" /><g
       id="g4204"
       transform="matrix(1.5,0,0,1.5,311.08486,392.12568)"><text
         transform="matrix(1,0,0,-1,27912.766,13106)"
         style="font-variant:normal;font-weight:normal;font-size:646px;font-family:Arial;-inkscape-font-specification:ArialMT;writing-mode:lr-tb;fill:#000000;fill-opacity:1;fill-rule:nonzero;stroke:none"
         id="text4206"><tspan
           x="0 359.17599 718.35199 897.29401"
           y="0"
           sodipodi:role="line"
           id="tspan4208">49.6</tspan></text>
</g><g
       id="g4210"
       transform="matrix(1.5,0,0,1.5,311.08486,392.12568)"><text
         transform="matrix(1,0,0,-1,6465,15681)"
         style="font-variant:normal;font-weight:normal;font-size:646px;font-family:Arial;-inkscape-font-specification:ArialMT;writing-mode:lr-tb;fill:#000000;fill-opacity:1;fill-rule:nonzero;stroke:none"
         id="text4212"><tspan
           x="0 359.17599 538.11798 914.73602 1093.678 1452.854 1812.03"
           y="0"
           sodipodi:role="line"
           id="tspan4214">n = 197</tspan></text>
</g><g
       id="g4216"
       transform="matrix(1.5,0,0,1.5,311.08486,392.12568)"><text
         transform="matrix(1,0,0,-1,4000,15727)"
         style="font-variant:normal;font-weight:normal;font-size:646px;font-family:Arial;-inkscape-font-specification:ArialMT;writing-mode:lr-tb;fill:#000000;fill-opacity:1;fill-rule:nonzero;stroke:none"
         id="text4218"><tspan
           x="0 359.17599 538.11798 914.73602 1093.678 1452.854"
           y="0"
           sodipodi:role="line"
           id="tspan4220">n = 29</tspan></text>
</g><g
       id="g4222"
       transform="matrix(1.5,0,0,1.5,311.08486,392.12568)"><text
         transform="matrix(1,0,0,-1,13442,14518)"
         style="font-variant:normal;font-weight:normal;font-size:646px;font-family:Arial;-inkscape-font-specification:ArialMT;writing-mode:lr-tb;fill:#000000;fill-opacity:1;fill-rule:nonzero;stroke:none"
         id="text4224"><tspan
           x="0 359.17599 538.11798 914.73602 1093.678 1452.854 1812.03"
           y="0"
           sodipodi:role="line"
           id="tspan4226">n = 176</tspan></text>
</g><g
       id="g4228"
       transform="matrix(1.5,0,0,1.5,311.08486,392.12568)"><text
         transform="matrix(1,0,0,-1,10977,14611)"
         style="font-variant:normal;font-weight:normal;font-size:646px;font-family:Arial;-inkscape-font-specification:ArialMT;writing-mode:lr-tb;fill:#000000;fill-opacity:1;fill-rule:nonzero;stroke:none"
         id="text4230"><tspan
           x="0 359.17599 538.11798 914.73602 1093.678 1452.854"
           y="0"
           sodipodi:role="line"
           id="tspan4232">n = 26</tspan></text>
</g><g
       id="g4234"
       transform="matrix(1.5,0,0,1.5,311.08486,392.12568)"><text
         transform="matrix(1,0,0,-1,20465,13402)"
         style="font-variant:normal;font-weight:normal;font-size:646px;font-family:Arial;-inkscape-font-specification:ArialMT;writing-mode:lr-tb;fill:#000000;fill-opacity:1;fill-rule:nonzero;stroke:none"
         id="text4236"><tspan
           x="0 359.17599 538.11798 914.73602 1093.678 1452.854 1812.03"
           y="0"
           sodipodi:role="line"
           id="tspan4238">n = 157</tspan></text>
</g><g
       id="g4240"
       transform="matrix(1.5,0,0,1.5,311.08486,392.12568)"><text
         transform="matrix(1,0,0,-1,18047,12286)"
         style="font-variant:normal;font-weight:normal;font-size:646px;font-family:Arial;-inkscape-font-specification:ArialMT;writing-mode:lr-tb;fill:#000000;fill-opacity:1;fill-rule:nonzero;stroke:none"
         id="text4242"><tspan
           x="0 359.17599 538.11798 914.73602 1093.678 1452.854"
           y="0"
           sodipodi:role="line"
           id="tspan4244">n = 20</tspan></text>
</g><g
       id="g4246"
       transform="matrix(1.5,0,0,1.5,311.08486,392.12568)"><text
         transform="matrix(1,0,0,-1,27442,12007)"
         style="font-variant:normal;font-weight:normal;font-size:646px;font-family:Arial;-inkscape-font-specification:ArialMT;writing-mode:lr-tb;fill:#000000;fill-opacity:1;fill-rule:nonzero;stroke:none"
         id="text4248"><tspan
           x="0 359.17599 538.11798 914.73602 1093.678 1452.854 1812.03"
           y="0"
           sodipodi:role="line"
           id="tspan4250">n = 132</tspan></text>
</g><g
       id="g4252"
       transform="matrix(1.5,0,0,1.5,311.08486,392.12568)"><text
         transform="matrix(1,0,0,-1,24977,10379)"
         style="font-variant:normal;font-weight:normal;font-size:646px;font-family:Arial;-inkscape-font-specification:ArialMT;writing-mode:lr-tb;fill:#000000;fill-opacity:1;fill-rule:nonzero;stroke:none"
         id="text4254"><tspan
           x="0 359.17599 538.11798 914.73602 1093.678 1452.854"
           y="0"
           sodipodi:role="line"
           id="tspan4256">n = 15</tspan></text>
</g><path
       d="m 3836.0849,8280.6257 0,23682.0003"
       style="fill:none;stroke:#000000;stroke-width:69.81599426;stroke-linecap:butt;stroke-linejoin:miter;stroke-miterlimit:10;stroke-dasharray:none;stroke-opacity:1"
       id="path4258"
       inkscape:connector-curvature="0" /><path
       d="m 3836.0849,8280.6257 -484.5,0"
       style="fill:none;stroke:#000000;stroke-width:69.81599426;stroke-linecap:butt;stroke-linejoin:miter;stroke-miterlimit:10;stroke-dasharray:none;stroke-opacity:1"
       id="path4260"
       inkscape:connector-curvature="0" /><g
       id="g4262" /><g
       id="g4264"
       transform="matrix(1.5,0,0,1.5,311.08486,392.12568)"><text
         transform="matrix(0,1,1,0,1623,5034.376)"
         style="font-variant:normal;font-weight:normal;font-size:808px;font-family:Arial;-inkscape-font-specification:ArialMT;writing-mode:lr-tb;fill:#000000;fill-opacity:1;fill-rule:nonzero;stroke:none"
         id="text4266"><tspan
           x="0"
           y="0"
           id="tspan4268">0</tspan></text>
</g><path
       d="m 3836.0849,12773.126 -484.5,0"
       style="fill:none;stroke:#000000;stroke-width:69.81599426;stroke-linecap:butt;stroke-linejoin:miter;stroke-miterlimit:10;stroke-dasharray:none;stroke-opacity:1"
       id="path4270"
       inkscape:connector-curvature="0" /><g
       id="g4272" /><g
       id="g4274"
       transform="matrix(1.5,0,0,1.5,311.08486,392.12568)"><text
         transform="matrix(0,1,1,0,1623,7804.7519)"
         style="font-variant:normal;font-weight:normal;font-size:808px;font-family:Arial;-inkscape-font-specification:ArialMT;writing-mode:lr-tb;fill:#000000;fill-opacity:1;fill-rule:nonzero;stroke:none"
         id="text4276"><tspan
           x="0 449.24799"
           y="0"
           sodipodi:role="line"
           id="tspan4278">20</tspan></text>
</g><path
       d="m 3836.0849,17265.626 -484.5,0"
       style="fill:none;stroke:#000000;stroke-width:69.81599426;stroke-linecap:butt;stroke-linejoin:miter;stroke-miterlimit:10;stroke-dasharray:none;stroke-opacity:1"
       id="path4280"
       inkscape:connector-curvature="0" /><g
       id="g4282" /><g
       id="g4284"
       transform="matrix(1.5,0,0,1.5,311.08486,392.12568)"><text
         transform="matrix(0,1,1,0,1623,10799.752)"
         style="font-variant:normal;font-weight:normal;font-size:808px;font-family:Arial;-inkscape-font-specification:ArialMT;writing-mode:lr-tb;fill:#000000;fill-opacity:1;fill-rule:nonzero;stroke:none"
         id="text4286"><tspan
           x="0 449.24799"
           y="0"
           sodipodi:role="line"
           id="tspan4288">40</tspan></text>
</g><path
       d="m 3836.0849,21756.626 -484.5,0"
       style="fill:none;stroke:#000000;stroke-width:69.81599426;stroke-linecap:butt;stroke-linejoin:miter;stroke-miterlimit:10;stroke-dasharray:none;stroke-opacity:1"
       id="path4290"
       inkscape:connector-curvature="0" /><g
       id="g4292" /><g
       id="g4294"
       transform="matrix(1.5,0,0,1.5,311.08486,392.12568)"><text
         transform="matrix(0,1,1,0,1623,13793.752)"
         style="font-variant:normal;font-weight:normal;font-size:808px;font-family:Arial;-inkscape-font-specification:ArialMT;writing-mode:lr-tb;fill:#000000;fill-opacity:1;fill-rule:nonzero;stroke:none"
         id="text4296"><tspan
           x="0 449.24799"
           y="0"
           sodipodi:role="line"
           id="tspan4298">60</tspan></text>
</g><path
       d="m 3836.0849,26249.126 -484.5,0"
       style="fill:none;stroke:#000000;stroke-width:69.81599426;stroke-linecap:butt;stroke-linejoin:miter;stroke-miterlimit:10;stroke-dasharray:none;stroke-opacity:1"
       id="path4300"
       inkscape:connector-curvature="0" /><g
       id="g4302" /><g
       id="g4304"
       transform="matrix(1.5,0,0,1.5,311.08486,392.12568)"><text
         transform="matrix(0,1,1,0,1623,16788.752)"
         style="font-variant:normal;font-weight:normal;font-size:808px;font-family:Arial;-inkscape-font-specification:ArialMT;writing-mode:lr-tb;fill:#000000;fill-opacity:1;fill-rule:nonzero;stroke:none"
         id="text4306"><tspan
           x="0 449.24799"
           y="0"
           sodipodi:role="line"
           id="tspan4308">80</tspan></text>
</g><path
       d="m 3836.0849,30740.126 -484.5,0"
       style="fill:none;stroke:#000000;stroke-width:69.81599426;stroke-linecap:butt;stroke-linejoin:miter;stroke-miterlimit:10;stroke-dasharray:none;stroke-opacity:1"
       id="path4310"
       inkscape:connector-curvature="0" /><g
       id="g4312" /><g
       id="g4314"
       transform="matrix(1.5,0,0,1.5,311.08486,392.12568)"><text
         transform="matrix(0,1,1,0,1623,19558.129)"
         style="font-variant:normal;font-weight:normal;font-size:808px;font-family:Arial;-inkscape-font-specification:ArialMT;writing-mode:lr-tb;fill:#000000;fill-opacity:1;fill-rule:nonzero;stroke:none"
         id="text4316"><tspan
           x="0 449.24799 898.49597"
           y="0"
           sodipodi:role="line"
           id="tspan4318">100</tspan></text>
</g><path
       d="m 3836.0849,8280.6257 43251.0001,0"
       style="fill:none;stroke:#000000;stroke-width:69.81599426;stroke-linecap:butt;stroke-linejoin:miter;stroke-miterlimit:10;stroke-dasharray:none;stroke-opacity:1"
       id="path4320"
       inkscape:connector-curvature="0" /><g
       id="g4322" /><g
       id="g4324"
       transform="matrix(1.5,0,0,1.5,311.08486,392.12568)"><text
         transform="matrix(1,0,0,-1,4594.7158,4370)"
         style="font-variant:normal;font-weight:normal;font-size:808px;font-family:Arial;-inkscape-font-specification:ArialMT;writing-mode:lr-tb;fill:#000000;fill-opacity:1;fill-rule:nonzero;stroke:none"
         id="text4326"><tspan
           x="0 627.81598 1077.064 1526.312 1795.376 2019.192 2468.4399 2737.5039 2961.3201"
           y="0"
           sodipodi:role="line"
           id="tspan4328">Quarter 1</tspan></text>
</g><g
       id="g4330" /><g
       id="g4332"
       transform="matrix(1.5,0,0,1.5,311.08486,392.12568)"><text
         transform="matrix(1,0,0,-1,11572.716,4370)"
         style="font-variant:normal;font-weight:normal;font-size:808px;font-family:Arial;-inkscape-font-specification:ArialMT;writing-mode:lr-tb;fill:#000000;fill-opacity:1;fill-rule:nonzero;stroke:none"
         id="text4334"><tspan
           x="0 627.81598 1077.064 1526.312 1795.376 2019.192 2468.4399 2737.5039 2961.3201"
           y="0"
           sodipodi:role="line"
           id="tspan4336">Quarter 2</tspan></text>
</g><g
       id="g4338" /><g
       id="g4340"
       transform="matrix(1.5,0,0,1.5,311.08486,392.12568)"><text
         transform="matrix(1,0,0,-1,18550.717,4370)"
         style="font-variant:normal;font-weight:normal;font-size:808px;font-family:Arial;-inkscape-font-specification:ArialMT;writing-mode:lr-tb;fill:#000000;fill-opacity:1;fill-rule:nonzero;stroke:none"
         id="text4342"><tspan
           x="0 627.81598 1077.064 1526.312 1795.376 2019.192 2468.4399 2737.5039 2961.3201"
           y="0"
           sodipodi:role="line"
           id="tspan4344">Quarter 3</tspan></text>
</g><g
       id="g4346" /><g
       id="g4348"
       transform="matrix(1.5,0,0,1.5,311.08486,392.12568)"><text
         transform="matrix(1,0,0,-1,25528.717,4370)"
         style="font-variant:normal;font-weight:normal;font-size:808px;font-family:Arial;-inkscape-font-specification:ArialMT;writing-mode:lr-tb;fill:#000000;fill-opacity:1;fill-rule:nonzero;stroke:none"
         id="text4350"><tspan
           x="0 627.81598 1077.064 1526.312 1795.376 2019.192 2468.4399 2737.5039 2961.3201"
           y="0"
           sodipodi:role="line"
           id="tspan4352">Quarter 4</tspan></text>
</g><g
       id="g4354" /><g
       id="g4356"
       transform="matrix(1.5,0,0,1.5,311.08486,392.12568)"><text
         transform="matrix(1,0,0,-1,8031.7217,21526)"
         style="font-variant:normal;font-weight:normal;font-size:1131px;font-family:Arial;-inkscape-font-specification:ArialMT;writing-mode:lr-tb;fill:#000000;fill-opacity:1;fill-rule:nonzero;stroke:none"
         id="text4358"><tspan
           x="0 753.24597 1382.082 1758.705 2324.2051 2953.041 3581.877 3895.1641 4208.4512 4585.0742 5213.9102 5527.1968 6156.0332 6407.1152 7035.9512 7664.7871 8293.623 8606.9102 9235.7461 9864.582 10177.869 10806.705 11435.541 12064.377 12441 13069.836 13698.672 14327.508 14704.131 15332.967 15961.803 16212.885 16841.721"
           y="0"
           sodipodi:role="line"
           id="tspan4360">Percent retained on buprenorphine</tspan></text>
</g><path
       d="m 12089.085,2033.1257 26745,0 0,3889.5 -26745,0 0,-3889.5 z"
       style="fill:#ffffff;fill-opacity:1;fill-rule:nonzero;stroke:#000000;stroke-width:69.81599426;stroke-linecap:butt;stroke-linejoin:miter;stroke-miterlimit:10;stroke-dasharray:none;stroke-opacity:1"
       id="path4362"
       inkscape:connector-curvature="0" /><path
       d="m 12614.085,2556.6257 4537.5,0 0,1212 -4537.5,0 0,-1212 z"
       style="fill:#add8e6;fill-opacity:1;fill-rule:nonzero;stroke:#1a476f;stroke-width:14.54500389;stroke-linecap:butt;stroke-linejoin:miter;stroke-miterlimit:10;stroke-dasharray:none;stroke-opacity:1"
       id="path4364"
       inkscape:connector-curvature="0" /><path
       d="m 26222.085,2556.6257 4537.5,0 0,1212 -4537.5,0 0,-1212 z"
       style="fill:#938dd2;fill-opacity:1;fill-rule:nonzero;stroke:#000000;stroke-width:14.54500389;stroke-linecap:butt;stroke-linejoin:miter;stroke-miterlimit:10;stroke-dasharray:none;stroke-opacity:1"
       id="path4366"
       inkscape:connector-curvature="0" /><g
       id="g4368"
       transform="matrix(1.5,0,0,1.5,311.08486,392.12568)"><text
         transform="matrix(1,0,0,-1,11712,1564)"
         style="font-variant:normal;font-weight:normal;font-size:808px;font-family:Arial;-inkscape-font-specification:ArialMT;writing-mode:lr-tb;fill:#000000;fill-opacity:1;fill-rule:nonzero;stroke:none"
         id="text4370"><tspan
           x="0 538.12799 987.37598 1391.376 1615.192 1839.0081 2422.384 2646.2 3117.2639 3341.0801 3790.3279"
           y="0"
           sodipodi:role="line"
           id="tspan4372">Yes, N = 39</tspan></text>
</g><g
       id="g4374"
       transform="matrix(1.5,0,0,1.5,311.08486,392.12568)"><text
         transform="matrix(1,0,0,-1,20784,1564)"
         style="font-variant:normal;font-weight:normal;font-size:808px;font-family:Arial;-inkscape-font-specification:ArialMT;writing-mode:lr-tb;fill:#000000;fill-opacity:1;fill-rule:nonzero;stroke:none"
         id="text4376"><tspan
           x="0 583.37598 1032.624 1256.4399 1480.256 2063.6321 2287.448 2758.512 2982.3279 3431.5759 3880.824"
           y="0"
           sodipodi:role="line"
           id="tspan4378">No, N = 266</tspan></text>
</g><g
       id="g4380" /><g
       id="g4382"
       transform="matrix(1.5,0,0,1.5,311.08486,392.12568)"><text
         transform="matrix(1,0,0,-1,9696.5957,2702)"
         style="font-variant:normal;font-weight:normal;font-size:808px;font-family:Arial;-inkscape-font-specification:ArialMT;writing-mode:lr-tb;fill:#000000;fill-opacity:1;fill-rule:nonzero;stroke:none"
         id="text4384"><tspan
           x="0 223.81599 673.06403 1077.064 1526.312 1795.376 2199.376 2648.624 2917.688 3366.936 3590.752 4040 4489.248 4713.064 4892.4399 5341.688 5565.5039 6014.752 6464 6687.8159 7137.064 7586.312 7990.312 8394.3115 8618.1279 9067.376 9516.624 9740.4404 10189.688 10458.752 10908 11131.816 11581.064 12030.312 12434.312 12883.56 13062.936 13242.312 13691.56"
           y="0"
           sodipodi:role="line"
           id="tspan4386">Incarcerated in 30 days before baseline</tspan></text>
</g></g></svg>